{
date = "2015-05-12 14:01:48 +0000";
familyName = "Rukiye";
featurePrefixes = (
{
automatic = 1;
code = "languagesystem DFLT dflt;\012languagesystem arab dflt;\012";
name = Languagesystems;
}
);
features = (
{
automatic = 1;
code = "feature ccmp;\012feature sups;\012feature frac;\012feature ordn;\012feature case;\012feature init;\012feature medi;\012feature fina;\012feature rlig;\012";
name = aalt;
},
{
automatic = 1;
code = "lookup arab_comb {\012\011script arab;\012\011sub hamzaabove-ar damma-ar by hamzaaboveDamma-ar;\012\011sub damma-ar hamzaabove-ar by hamzaaboveDamma-ar;\012\011sub hamzaabove-ar dammatan-ar by hamzaaboveDammatan-ar;\012\011sub dammatan-ar hamzaabove-ar by hamzaaboveDammatan-ar;\012\011sub hamzaabove-ar fatha-ar by hamzaaboveFatha-ar;\012\011sub fatha-ar hamzaabove-ar by hamzaaboveFatha-ar;\012\011sub hamzaabove-ar fathatan-ar by hamzaaboveFathatan-ar;\012\011sub fathatan-ar hamzaabove-ar by hamzaaboveFathatan-ar;\012\011sub hamzaabove-ar sukun-ar by hamzaaboveSukun-ar;\012\011sub sukun-ar hamzaabove-ar by hamzaaboveSukun-ar;\012\011sub hamzabelow-ar kasra-ar by hamzabelowKasra-ar;\012\011sub kasra-ar hamzabelow-ar by hamzabelowKasra-ar;\012\011sub shadda-ar fatha-ar by shaddaFatha-ar;\012\011sub fatha-ar shadda-ar by shaddaFatha-ar;\012\011sub shadda-ar fathatan-ar by shaddaFathatan-ar;\012\011sub fathatan-ar shadda-ar by shaddaFathatan-ar;\012\011sub shadda-ar kasra-ar by shaddaKasra-ar;\012\011sub kasra-ar shadda-ar by shaddaKasra-ar;\012} arab_comb;\012";
name = ccmp;
},
{
automatic = 1;
code = "sub one by onesuperior;\012sub two by twosuperior;\012sub three by threesuperior;\012";
name = sups;
},
{
automatic = 1;
code = "sub one slash four by onequarter;\012sub one slash two by onehalf;\012sub three slash four by threequarters;\012";
name = frac;
},
{
automatic = 1;
code = "sub [zero one two three four five six seven eight nine] [A a]' by ordfeminine;\012sub [zero one two three four five six seven eight nine] [O o]' by ordmasculine;\012";

glyphs = (
{
glyphname = A;
lastChange = "2016-02-18 17:12:53 +0000";
layers = (
{
anchors = (
{
name = bottom;
position = "{343, 0}";
},
{
name = ogonek;
position = "{616, 10}";
},
{
name = top;
position = "{343, 770}";
}
);
background = {
paths = (
{
closed = 1;
nodes = (
"-2061 674 LINE",
"-1944 674 OFFCURVE",
"-1896 642 OFFCURVE",
"-1868 550 CURVE SMOOTH",
"-1708 35 LINE",
"-1608 35 LINE",
"-1608 0 LINE",
"-1873 0 LINE",
"-1990 395 LINE SMOOTH",
"-2013 476 OFFCURVE",
"-2033 502 OFFCURVE",
"-2135 502 CURVE"
);
},
{
closed = 1;
nodes = (
"-2042 521 LINE",
"-2019 517 LINE",
"-2138 19 LINE",
"-2272 19 LINE"
);
},
{
closed = 1;
nodes = (
"-2134 228 LINE",
"-1927 228 LINE",
"-1912 191 LINE",
"-2158 191 LINE"
);
},
{
closed = 1;
nodes = (
"-2080 33 LINE",
"-2080 0 LINE",
"-2337 0 LINE",
"-2337 33 LINE"
);
},
{
closed = 1;
nodes = (
"-1590 40 LINE",
"-1590 0 LINE",
"-1368 0 LINE",
"-1368 40 LINE",
"-1417 41 LINE",
"-1298 595 LINE",
"-1319 587 LINE",
"-1162 41 LINE",
"-1211 40 LINE",
"-1211 0 LINE",
"-913 0 LINE",
"-913 40 LINE",
"-962 41 LINE",
"-1182 672 LINE",
"-1308 665 LINE",
"-1543 41 LINE"
);
},
{
closed = 1;
nodes = (
"-1172 191 LINE",
"-1187 228 LINE",
"-1394 228 LINE",
"-1418 191 LINE"
);
},
{
closed = 1;
nodes = (
"-795 40 LINE",
"-795 0 LINE",
"-573 0 LINE",
"-573 40 LINE",
"-624 41 LINE",
"-505 591 LINE",
"-522 577 LINE",
"-372 41 LINE",
"-421 40 LINE",
"-421 0 LINE",
"-122 0 LINE",
"-122 40 LINE",
"-171 41 LINE",
"-387 672 LINE",
"-521 655 LINE",
"-746 41 LINE"
);
},
{
closed = 1;
nodes = (
"-372 191 LINE",
"-387 228 LINE",
"-594 228 LINE",
"-618 191 LINE"
);
},
{
closed = 1;
nodes = (
"-2 38 LINE",
"-2 -2 LINE",
"230 -2 LINE",
"230 38 LINE",
"179 39 LINE",
"294 589 LINE",
"267 575 LINE",
"420 39 LINE",
"371 38 LINE",
"371 -2 LINE",
"699 -2 LINE",
"699 38 LINE",
"650 39 LINE",
"402 670 LINE",
"278 653 LINE",
"47 39 LINE"
);
}
);
};
layerId = "FABFC9D4-E17A-4CB6-8F8E-4923CD579275";
name = Regular;
paths = (
{
closed = 1;
nodes = (
"428 200 LINE",
"413 237 LINE",
"206 237 LINE",
"182 200 LINE"
);
},
{
closed = 1;
nodes = (
"2 35 LINE",
"2 0 LINE",
"228 0 LINE",
"228 35 LINE",
"177 36 LINE",
"291 598 LINE",
"269 594 LINE",
"426 36 LINE",
"377 35 LINE",
"377 0 LINE",
"678 0 LINE",
"678 35 LINE",
"629 36 LINE",
"399 679 LINE",
"275 662 LINE",
"51 36 LINE"
);
}
);
width = 680;
}
);
leftKerningGroup = A;
rightKerningGroup = A;
unicode = 0041;
},
{
glyphname = Aring;
lastChange = "2016-02-18 17:11:12 +0000";
layers = (
{
components = (
{
name = A;
}
);
guideLines = (
{
angle = 270;
position = "{335, 719}";
}
);
layerId = "FABFC9D4-E17A-4CB6-8F8E-4923CD579275";
name = Regular;
paths = (
{
closed = 1;
nodes = (
"398 639 OFFCURVE",
"435 682 OFFCURVE",
"435 736 CURVE SMOOTH",
"435 791 OFFCURVE",
"398 836 OFFCURVE",
"335 836 CURVE SMOOTH",
"271 836 OFFCURVE",
"234 791 OFFCURVE",
"234 736 CURVE SMOOTH",
"234 682 OFFCURVE",
"271 639 OFFCURVE",
"335 639 CURVE SMOOTH"
);
},
{
closed = 1;
nodes = (
"298 672 OFFCURVE",
"272 697 OFFCURVE",
"272 736 CURVE SMOOTH",
"272 774 OFFCURVE",
"298 799 OFFCURVE",
"335 799 CURVE SMOOTH",
"372 799 OFFCURVE",
"398 774 OFFCURVE",
"398 736 CURVE SMOOTH",
"398 697 OFFCURVE",
"372 672 OFFCURVE",
"335 672 CURVE SMOOTH"
);
}
);
width = 682;
}
);
leftKerningGroup = A;
rightKerningGroup = A;
unicode = 00C5;
},
{
glyphname = AE;
lastChange = "2016-02-18 17:09:26 +0000";
layers = (
{
anchors = (
{
name = bottom;
position = "{513, 0}";
},
{
name = top;
position = "{589, 770}";
}
);
background = {
paths = (
{
closed = 1;
nodes = (
"-1834 345 LINE",
"-1302 345 LINE",
"-1302 308 LINE",
"-1858 308 LINE"
);
},
{
closed = 1;
nodes = (
"-1905 36 LINE",
"-1854 35 LINE",
"-1854 0 LINE",
"-2090 0 LINE",
"-2090 35 LINE",
"-2041 36 LINE",
"-1685 656 LINE",
"-1219 673 LINE",
"-1219 491 LINE",
"-1258 492 LINE",
"-1260 542 LINE",
"-1341 581 OFFCURVE",
"-1422 613 OFFCURVE",
"-1503 638 CURVE",
"-1491 648 LINE",
"-1487 12 LINE",
"-1503 22 LINE",
"-1415 49 OFFCURVE",
"-1328 85 OFFCURVE",
"-1240 128 CURVE",
"-1238 178 LINE",
"-1199 179 LINE",
"-1199 0 LINE",
"-1706 0 LINE",
"-1706 35 LINE",
"-1657 36 LINE",
"-1657 636 LINE",
"-1646 641 LINE"
);
},
{
closed = 1;
nodes = (
"-734 345 LINE",
"-202 345 LINE",
"-202 308 LINE",
"-758 308 LINE"
);
},
{
closed = 1;
nodes = (
"-815 36 LINE",
"-764 35 LINE",
"-764 0 LINE",
"-1000 0 LINE",
"-1000 35 LINE",
"-951 36 LINE",
"-685 660 LINE",
"-119 673 LINE",
"-119 491 LINE",
"-158 492 LINE",
"-160 542 LINE",
"-241 581 OFFCURVE",
"-322 613 OFFCURVE",
"-403 638 CURVE",
"-391 648 LINE",
"-387 12 LINE",
"-403 22 LINE",
"-315 49 OFFCURVE",
"-228 85 OFFCURVE",
"-140 128 CURVE",
"-138 178 LINE",
"-99 179 LINE",
"-99 0 LINE",
"-606 0 LINE",
"-606 35 LINE",
"-557 36 LINE",
"-557 597 LINE",
"-647 623 LINE"
);
},
{
closed = 1;
nodes = (
"778 300 LINE",
"778 337 LINE",
"256 337 LINE",
"232 300 LINE"
);
},
{
closed = 1;
nodes = (
"633 16 LINE",
"489 679 LINE",
"365 662 LINE",
"51 36 LINE",
"2 35 LINE",
"2 0 LINE",
"228 0 LINE",
"228 35 LINE",
"177 36 LINE",
"381 598 LINE",
"359 594 LINE",
"426 36 LINE",
"377 35 LINE",
"377 0 LINE",
"880 0 LINE",
"880 179 LINE",
"841 178 LINE",
"839 128 LINE",
"751 85 OFFCURVE",
"685 49 OFFCURVE",
"597 22 CURVE"
);
},
{
closed = 1;
nodes = (
"607 618 OFFCURVE",
"703 584 OFFCURVE",
"820 543 CURVE",
"822 493 LINE",
"861 492 LINE",
"861 674 LINE",
"489 679 LINE",
"490 644 LINE"
);
}
);
};
layerId = "FABFC9D4-E17A-4CB6-8F8E-4923CD579275";
name = Regular;
paths = (
{
closed = 1;
nodes = (
"266 345 LINE",
"783 345 LINE",
"783 308 LINE",
"242 308 LINE"
);
},
{
closed = 1;
nodes = (
"155 36 LINE",
"206 35 LINE",
"206 0 LINE",
"10 0 LINE",
"10 35 LINE",
"59 36 LINE",
"415 656 LINE",
"866 673 LINE",
"866 491 LINE",
"827 492 LINE",
"825 542 LINE",
"744 581 OFFCURVE",
"673 613 OFFCURVE",
"597 638 CURVE",
"609 648 LINE",
"613 12 LINE",
"597 22 LINE",
"680 49 OFFCURVE",
"757 85 OFFCURVE",
"845 128 CURVE",
"847 178 LINE",
"886 179 LINE",
"886 0 LINE",
"394 0 LINE",
"394 35 LINE",
"443 36 LINE",
"443 636 LINE",
"450 639 LINE"
);
}
);
width = 926;
}
);
unicode = 00C6;
},
{
glyphname = B;
lastChange = "2016-02-15 14:52:10 +0000";
layers = (
{
background = {
paths = (
{
closed = 1;
nodes = (
"-2583 347 LINE",
"-2436 347 LINE SMOOTH",
"-2254 348 OFFCURVE",
"-2198 316 OFFCURVE",
"-2198 211 CURVE SMOOTH",
"-2198 75 OFFCURVE",
"-2288 0 OFFCURVE",
"-2565 0 CURVE SMOOTH",
"-2800 0 LINE",
"-2800 40 LINE",
"-2751 41 LINE",
"-2751 629 LINE",
"-2800 630 LINE",
"-2800 670 LINE",
"-2564 670 LINE",
"-2383 670 LINE",
"-2296 659 OFFCURVE",
"-2258 617 OFFCURVE",
"-2258 529 CURVE SMOOTH",
"-2258 400 OFFCURVE",
"-2385 318 OFFCURVE",
"-2584 318 CURVE",
"-2588 347 LINE",
"-2492 347 OFFCURVE",
"-2446 393 OFFCURVE",
"-2446 488 CURVE SMOOTH",
"-2446 581 OFFCURVE",
"-2486 628 OFFCURVE",
"-2565 628 CURVE",
"-2565 39 LINE",
"-2434 39 OFFCURVE",
"-2386 81 OFFCURVE",
"-2386 170 CURVE SMOOTH",
"-2386 263 OFFCURVE",
"-2437 310 OFFCURVE",
"-2535 310 CURVE SMOOTH",
"-2586 310 LINE"
);
},
{
closed = 1;
nodes = (
"-2080 35 LINE",
"-2031 36 LINE",
"-2031 634 LINE",
"-2080 635 LINE",
"-2080 670 LINE",
"-1683 670 LINE",
"-1586 659 OFFCURVE",
"-1543 614 OFFCURVE",
"-1543 529 CURVE SMOOTH",
"-1543 435 OFFCURVE",
"-1615 366 OFFCURVE",
"-1756 331 CURVE",
"-1756 347 LINE",
"-1554 350 OFFCURVE",
"-1493 320 OFFCURVE",
"-1493 211 CURVE SMOOTH",
"-1493 75 OFFCURVE",
"-1584 0 OFFCURVE",
"-1865 0 CURVE SMOOTH",
"-2080 0 LINE"
);
},
{
closed = 1;
nodes = (
"-1874 346 LINE",
"-1772 350 OFFCURVE",
"-1721 397 OFFCURVE",
"-1721 488 CURVE SMOOTH",
"-1721 586 OFFCURVE",
"-1769 635 OFFCURVE",
"-1865 635 CURVE",
"-1865 35 LINE",
"-1723 35 OFFCURVE",
"-1671 78 OFFCURVE",
"-1671 170 CURVE SMOOTH",
"-1671 263 OFFCURVE",
"-1727 311 OFFCURVE",
"-1835 311 CURVE SMOOTH",
"-1874 311 LINE"
);
},
{
closed = 1;
nodes = (
"-1380 35 LINE",
"-1331 36 LINE",
"-1331 634 LINE",
"-1380 635 LINE",
"-1380 670 LINE",
"-1001 670 LINE",
"-898 659 OFFCURVE",
"-843 610 OFFCURVE",
"-843 529 CURVE SMOOTH",
"-843 434 OFFCURVE",
"-916 366 OFFCURVE",
"-1056 331 CURVE",
"-1056 347 LINE",
"-890 347 LINE",
"-830 327 OFFCURVE",
"-793 270 OFFCURVE",
"-793 198 CURVE SMOOTH",
"-793 76 OFFCURVE",
"-897 0 OFFCURVE",
"-1105 0 CURVE SMOOTH",
"-1380 0 LINE"
);
},
{
closed = 1;
nodes = (
"-1174 346 LINE",
"-1070 351 OFFCURVE",
"-1021 397 OFFCURVE",
"-1021 491 CURVE SMOOTH",
"-1021 586 OFFCURVE",
"-1070 635 OFFCURVE",
"-1165 635 CURVE",
"-1165 35 LINE",
"-1029 35 OFFCURVE",
"-971 75 OFFCURVE",
"-971 169 CURVE SMOOTH",
"-971 263 OFFCURVE",
"-1027 311 OFFCURVE",
"-1135 311 CURVE SMOOTH",
"-1174 311 LINE"
);
},
{
closed = 1;
nodes = (
"-680 35 LINE",
"-631 36 LINE",
"-631 634 LINE",
"-680 635 LINE",
"-680 670 LINE",
"-301 670 LINE",
"-198 659 OFFCURVE",
"-143 610 OFFCURVE",
"-143 529 CURVE SMOOTH",
"-143 434 OFFCURVE",
"-216 366 OFFCURVE",
"-356 331 CURVE",
"-356 347 LINE",
"-210 347 LINE",
"-150 327 OFFCURVE",
"-93 270 OFFCURVE",
"-93 198 CURVE SMOOTH",
"-93 76 OFFCURVE",
"-197 0 OFFCURVE",
"-405 0 CURVE SMOOTH",
"-680 0 LINE"
);
},
{
closed = 1;
nodes = (
"-474 346 LINE",
"-370 351 OFFCURVE",
"-321 397 OFFCURVE",
"-321 491 CURVE SMOOTH",
"-321 586 OFFCURVE",
"-370 635 OFFCURVE",
"-465 635 CURVE",
"-465 35 LINE",
"-329 35 OFFCURVE",
"-271 75 OFFCURVE",
"-271 169 CURVE SMOOTH",
"-271 263 OFFCURVE",
"-327 311 OFFCURVE",
"-435 311 CURVE SMOOTH",
"-474 311 LINE"
);
},
{
closed = 1;
nodes = (
"20 35 LINE",
"69 36 LINE",
"69 634 LINE",
"20 635 LINE",
"20 670 LINE",
"213 668 LINE",
"213 668 OFFCURVE",
"314 680 OFFCURVE",
"359 680 CURVE SMOOTH",
"492 680 OFFCURVE",
"557 616 OFFCURVE",
"557 529 CURVE SMOOTH",
"557 434 OFFCURVE",
"484 366 OFFCURVE",
"344 331 CURVE",
"344 347 LINE",
"408 347 LINE SMOOTH",
"553 347 OFFCURVE",
"607 270 OFFCURVE",
"607 198 CURVE SMOOTH",
"607 76 OFFCURVE",
"503 0 OFFCURVE",
"295 0 CURVE SMOOTH",
"20 0 LINE"
);
},
{
closed = 1;
nodes = (
"226 346 LINE",
"330 351 OFFCURVE",
"379 397 OFFCURVE",
"379 491 CURVE SMOOTH",
"379 586 OFFCURVE",
"330 635 OFFCURVE",
"235 635 CURVE",
"235 35 LINE",
"371 35 OFFCURVE",
"429 75 OFFCURVE",
"429 169 CURVE SMOOTH",
"429 263 OFFCURVE",
"373 311 OFFCURVE",
"265 311 CURVE SMOOTH",
"226 311 LINE"
);
}
);
};
layerId = "FABFC9D4-E17A-4CB6-8F8E-4923CD579275";
name = Regular;
paths = (
{
closed = 1;
nodes = (
"20 35 LINE",
"69 36 LINE",
"69 634 LINE",
"20 635 LINE",
"20 670 LINE",
"213 668 LINE",
"359 680 LINE",
"492 680 OFFCURVE",
"557 616 OFFCURVE",
"557 529 CURVE SMOOTH",
"557 434 OFFCURVE",
"484 366 OFFCURVE",
"344 331 CURVE",
"344 341 LINE",
"441 347 LINE",
"553 347 OFFCURVE",
"607 270 OFFCURVE",
"607 198 CURVE SMOOTH",
"607 76 OFFCURVE",
"503 0 OFFCURVE",
"295 0 CURVE SMOOTH",
"20 0 LINE"
);
},
{
closed = 1;
nodes = (
"226 346 LINE",
"330 351 OFFCURVE",
"379 397 OFFCURVE",
"379 491 CURVE SMOOTH",
"379 586 OFFCURVE",
"330 635 OFFCURVE",
"235 635 CURVE",
"235 35 LINE",
"371 35 OFFCURVE",
"429 75 OFFCURVE",
"429 169 CURVE SMOOTH",
"429 263 OFFCURVE",
"373 311 OFFCURVE",
"265 311 CURVE SMOOTH",
"226 311 LINE"
);
}
);
width = 636;
}
);
unicode = 0042;
},
{
glyphname = C;
lastChange = "2016-02-18 17:14:26 +0000";
layers = (
{
anchors = (
{
name = bottom;
position = "{314, -80}";
},
{
name = top;
position = "{332, 770}";
}
);
background = {
paths = (
{
closed = 1;
nodes = (
"-511 60 OFFCURVE",
"-595 163 OFFCURVE",
"-595 338 CURVE SMOOTH",
"-595 492 OFFCURVE",
"-527 622 OFFCURVE",
"-453 657 CURVE",
"-469 670 LINE",
"-322 453 LINE",
"-199 556 LINE",
"-241 622 OFFCURVE",
"-327 683 OFFCURVE",
"-446 683 CURVE SMOOTH",
"-516 683 OFFCURVE",
"-599 660 OFFCURVE",
"-665 625 CURVE",
"-734 551 OFFCURVE",
"-774 437 OFFCURVE",
"-774 322 CURVE SMOOTH",
"-774 111 OFFCURVE",
"-642 -15 OFFCURVE",
"-461 -15 CURVE SMOOTH",
"-326 -15 OFFCURVE",
"-213 69 OFFCURVE",
"-166 169 CURVE",
"-198 187 LINE",
"-246 107 OFFCURVE",
"-323 60 OFFCURVE",
"-402 60 CURVE SMOOTH"
);
},
{
closed = 1;
nodes = (
"578 167 LINE",
"535 124 OFFCURVE",
"477 100 OFFCURVE",
"415 100 CURVE SMOOTH",
"286 100 OFFCURVE",
"205 201 OFFCURVE",
"205 364 CURVE SMOOTH",
"205 502 OFFCURVE",
"264 624 OFFCURVE",
"347 658 CURVE",
"331 670 LINE",
"466 457 LINE",
"589 560 LINE",
"540 637 OFFCURVE",
"453 683 OFFCURVE",
"354 683 CURVE SMOOTH",
"281 683 OFFCURVE",
"203 659 OFFCURVE",
"135 615 CURVE",
"68 552 OFFCURVE",
"26 438 OFFCURVE",
"26 318 CURVE SMOOTH",
"26 120 OFFCURVE",
"145 -15 OFFCURVE",
"320 -15 CURVE SMOOTH",
"430 -15 OFFCURVE",
"535 43 OFFCURVE",
"606 143 CURVE"
);
}
);
};
layerId = "FABFC9D4-E17A-4CB6-8F8E-4923CD579275";
name = Regular;
paths = (
{
closed = 1;
nodes = (
"578 167 LINE",
"535 124 OFFCURVE",
"477 100 OFFCURVE",
"415 100 CURVE SMOOTH",
"282 100 OFFCURVE",
"199 201 OFFCURVE",
"199 364 CURVE SMOOTH",
"199 502 OFFCURVE",
"260 624 OFFCURVE",
"352 658 CURVE",
"336 670 LINE",
"471 457 LINE",
"594 560 LINE",
"545 637 OFFCURVE",
"455 683 OFFCURVE",
"354 683 CURVE SMOOTH",
"279 683 OFFCURVE",
"197 659 OFFCURVE",
"129 615 CURVE",
"62 552 OFFCURVE",
"20 438 OFFCURVE",
"20 318 CURVE SMOOTH",
"20 120 OFFCURVE",
"141 -15 OFFCURVE",
"320 -15 CURVE SMOOTH",
"430 -15 OFFCURVE",
"535 43 OFFCURVE",
"606 143 CURVE"
);
}
);
width = 628;
}
);
leftKerningGroup = C;
rightKerningGroup = C;
unicode = 0043;
},
{
glyphname = D;
lastChange = "2016-02-20 20:37:17 +0000";
layers = (
{
anchors = (
{
name = bottom;
position = "{354, 0}";
},
{
name = center;
position = "{354, 335}";
},
{
name = top;
position = "{324, 770}";
}
);
background = {
paths = (
{
closed = 1;
nodes = (
"-1210 35 OFFCURVE",
"-1118 128 OFFCURVE",
"-1118 338 CURVE SMOOTH",
"-1118 517 OFFCURVE",
"-1222 633 OFFCURVE",
"-1365 633 CURVE",
"-1365 30 LINE",
"-1377 35 LINE"
);
},
{
closed = 1;
nodes = (
"-1177 16 OFFCURVE",
"-1276 0 OFFCURVE",
"-1580 0 CURVE",
"-1580 35 LINE",
"-1531 36 LINE",
"-1531 634 LINE",
"-1580 635 LINE",
"-1580 670 LINE",
"-1307 670 LINE SMOOTH",
"-1041 670 OFFCURVE",
"-940 562 OFFCURVE",
"-940 341 CURVE SMOOTH",
"-940 162 OFFCURVE",
"-1005 78 OFFCURVE",
"-1094 40 CURVE"
);
},
{
closed = 1;
nodes = (
"-408 35 OFFCURVE",
"-318 118 OFFCURVE",
"-318 342 CURVE SMOOTH",
"-318 537 OFFCURVE",
"-421 633 OFFCURVE",
"-565 633 CURVE",
"-565 35 LINE",
"-547 35 LINE SMOOTH"
);
},
{
closed = 1;
nodes = (
"-780 0 LINE",
"-780 35 LINE",
"-731 36 LINE",
"-731 634 LINE",
"-780 635 LINE",
"-780 670 LINE",
"-368 670 LINE",
"-231 642 OFFCURVE",
"-140 527 OFFCURVE",
"-140 367 CURVE SMOOTH",
"-140 129 OFFCURVE",
"-274 0 OFFCURVE",
"-517 0 CURVE SMOOTH"
);
},
{
closed = 1;
nodes = (
"402 35 OFFCURVE",
"489 128 OFFCURVE",
"489 332 CURVE SMOOTH",
"489 537 OFFCURVE",
"379 633 OFFCURVE",
"235 633 CURVE",
"235 35 LINE",
"263 35 LINE SMOOTH"
);
},
{
closed = 1;
nodes = (
"20 0 LINE",
"20 35 LINE",
"69 36 LINE",
"69 634 LINE",
"20 635 LINE",
"20 670 LINE",
"213 668 LINE",
"213 668 OFFCURVE",
"289 680 OFFCURVE",
"335 680 CURVE SMOOTH",
"563 680 OFFCURVE",
"667 567 OFFCURVE",
"667 357 CURVE SMOOTH",
"667 149 OFFCURVE",
"546 0 OFFCURVE",
"303 0 CURVE SMOOTH"
);
}
);
};
layerId = "FABFC9D4-E17A-4CB6-8F8E-4923CD579275";
name = Regular;
paths = (
{
closed = 1;
nodes = (
"402 35 OFFCURVE",
"489 128 OFFCURVE",
"489 332 CURVE SMOOTH",
"489 537 OFFCURVE",
"375 633 OFFCURVE",
"235 633 CURVE",
"235 35 LINE",
"263 35 LINE SMOOTH"
);
},
{
closed = 1;
nodes = (
"20 0 LINE",
"20 35 LINE",
"69 36 LINE",
"69 634 LINE",
"20 635 LINE",
"20 670 LINE",
"213 668 LINE",
"355 680 LINE",
"553 680 OFFCURVE",
"667 567 OFFCURVE",
"667 357 CURVE SMOOTH",
"667 149 OFFCURVE",
"546 0 OFFCURVE",
"303 0 CURVE SMOOTH"
);
}
);
width = 700;
}
);
leftKerningGroup = D;
rightKerningGroup = D;
unicode = 0044;
},
{
glyphname = Eth;
lastChange = "2016-02-18 17:14:39 +0000";
layers = (
{
components = (
{
name = D;
}
);
layerId = "FABFC9D4-E17A-4CB6-8F8E-4923CD579275";
name = Regular;
paths = (
{
closed = 1;
nodes = (
"363 361 LINE",
"353 315 LINE",
"-5 315 LINE",
"0 353 LINE"
);
}
);
width = 717;
}
);
leftKerningGroup = D;
rightKerningGroup = D;
unicode = 00D0;
},
{
glyphname = E;
lastChange = "2016-02-18 17:14:15 +0000";
layers = (
{
anchors = (
{
name = bottom;
position = "{253, -80}";
},
{
name = top;
position = "{276, 770}";
}
);
background = {
paths = (
{
closed = 1;
nodes = (
"-108 441 LINE",
"-147 442 LINE",
"-149 492 LINE",
"-234 573 OFFCURVE",
"-317 621 OFFCURVE",
"-417 648 CURVE",
"-370 649 LINE",
"-370 20 LINE",
"-417 22 LINE",
"-310 49 OFFCURVE",
"-214 102 OFFCURVE",
"-129 178 CURVE",
"-127 228 LINE",
"-88 229 LINE",
"-88 0 LINE",
"-605 0 LINE",
"-605 40 LINE",
"-556 41 LINE",
"-556 629 LINE",
"-605 630 LINE",
"-605 670 LINE",
"-108 670 LINE"
);
},
{
closed = 1;
nodes = (
"-413 360 LINE",
"-191 360 LINE",
"-191 323 LINE",
"-437 323 LINE"
);
},
{
closed = 1;
nodes = (
"512 179 LINE",
"473 178 LINE",
"471 128 LINE",
"383 85 OFFCURVE",
"296 49 OFFCURVE",
"208 22 CURVE",
"224 12 LINE",
"220 658 LINE",
"208 648 LINE",
"289 621 OFFCURVE",
"370 585 OFFCURVE",
"451 542 CURVE",
"453 492 LINE",
"492 491 LINE",
"492 670 LINE",
"5 670 LINE",
"5 635 LINE",
"54 634 LINE",
"54 36 LINE",
"5 35 LINE",
"5 0 LINE",
"512 0 LINE"
);
},
{
closed = 1;
nodes = (
"409 328 LINE",
"409 365 LINE",
"177 365 LINE",
"153 328 LINE"
);
}
);
};
layerId = "FABFC9D4-E17A-4CB6-8F8E-4923CD579275";
name = Regular;
paths = (
{
closed = 1;
nodes = (
"512 199 LINE",
"473 198 LINE",
"471 148 LINE",
"383 95 OFFCURVE",
"296 54 OFFCURVE",
"208 22 CURVE",
"224 12 LINE",
"220 658 LINE",
"208 648 LINE",
"289 617 OFFCURVE",
"370 577 OFFCURVE",
"451 527 CURVE",
"453 477 LINE",
"492 476 LINE",
"492 670 LINE",
"5 670 LINE",
"5 635 LINE",
"54 634 LINE",
"54 36 LINE",
"5 35 LINE",
"5 0 LINE",
"512 0 LINE"
);
},
{
closed = 1;
nodes = (
"409 328 LINE",
"409 365 LINE",
"177 365 LINE",
"153 328 LINE"
);
}
);
width = 541;
}
);
leftKerningGroup = E;
rightKerningGroup = E;
unicode = 0045;
},
{
glyphname = F;
lastChange = "2016-01-24 17:04:12 +0000";
layers = (
{
background = {
paths = (
{
closed = 1;
nodes = (
"419 303 LINE",
"419 340 LINE",
"197 340 LINE",
"173 303 LINE"
);
},
{
closed = 1;
nodes = (
"240 649 LINE",
"193 648 LINE",
"297 648 OFFCURVE",
"430 564 OFFCURVE",
"471 492 CURVE",
"473 442 LINE",
"512 441 LINE",
"512 670 LINE",
"25 670 LINE",
"25 635 LINE",
"74 634 LINE",
"74 36 LINE",
"25 35 LINE",
"25 0 LINE",
"349 0 LINE",
"349 35 LINE",
"240 36 LINE"
);
}
);
};
layerId = "FABFC9D4-E17A-4CB6-8F8E-4923CD579275";
name = Regular;
paths = (
{
closed = 1;
nodes = (
"429 303 LINE",
"429 340 LINE",
"197 340 LINE",
"173 303 LINE"
);
},
{
closed = 1;
nodes = (
"349 0 LINE",
"349 35 LINE",
"242 36 LINE",
"242 658 LINE",
"228 648 LINE",
"309 616 OFFCURVE",
"390 573 OFFCURVE",
"471 522 CURVE",
"473 472 LINE",
"512 471 LINE",
"512 670 LINE",
"25 670 LINE",
"25 635 LINE",
"74 634 LINE",
"74 36 LINE",
"25 35 LINE",
"25 0 LINE"
);
}
);
width = 527;
}
);
unicode = 0046;
},
{
glyphname = G;
lastChange = "2016-02-18 17:14:49 +0000";
layers = (
{
anchors = (
{
name = bottom;
position = "{314, -80}";
},
{
name = top;
position = "{332, 770}";
}
);
background = {
components = (
{
name = C;
transform = "{1, 0, 0, 1, 6, 0}";
}
);
paths = (
{
closed = 1;
nodes = (
"653 312 LINE",
"653 347 LINE",
"389 347 LINE",
"389 312 LINE",
"438 311 LINE",
"438 88 LINE",
"572 0 LINE",
"604 0 LINE",
"604 311 LINE"
);
},
{
closed = 1;
nodes = (
"551 152 LINE",
"507 106 OFFCURVE",
"470 88 OFFCURVE",
"419 88 CURVE SMOOTH",
"288 88 OFFCURVE",
"205 198 OFFCURVE",
"205 370 CURVE SMOOTH",
"205 503 OFFCURVE",
"263 621 OFFCURVE",
"352 658 CURVE",
"336 670 LINE",
"471 457 LINE",
"594 560 LINE",
"545 637 OFFCURVE",
"455 683 OFFCURVE",
"354 683 CURVE SMOOTH",
"281 683 OFFCURVE",
"203 659 OFFCURVE",
"135 615 CURVE",
"68 552 OFFCURVE",
"26 437 OFFCURVE",
"26 318 CURVE SMOOTH",
"26 123 OFFCURVE",
"146 -15 OFFCURVE",
"316 -15 CURVE SMOOTH",
"417 -15 OFFCURVE",
"512 38 OFFCURVE",
"570 128 CURVE"
);
}
);
};
layerId = "FABFC9D4-E17A-4CB6-8F8E-4923CD579275";
name = Regular;
paths = (
{
closed = 1;
nodes = (
"653 312 LINE",
"653 347 LINE",
"389 347 LINE",
"389 312 LINE",
"438 311 LINE",
"438 88 LINE",
"572 0 LINE",
"604 0 LINE",
"604 311 LINE"
);
},
{
closed = 1;
nodes = (
"551 152 LINE",
"505 106 OFFCURVE",
"467 88 OFFCURVE",
"414 88 CURVE SMOOTH",
"282 88 OFFCURVE",
"199 198 OFFCURVE",
"199 370 CURVE SMOOTH",
"199 503 OFFCURVE",
"259 621 OFFCURVE",
"352 658 CURVE",
"336 670 LINE",
"471 457 LINE",
"594 560 LINE",
"545 637 OFFCURVE",
"455 683 OFFCURVE",
"354 683 CURVE SMOOTH",
"279 683 OFFCURVE",
"197 659 OFFCURVE",
"129 615 CURVE",
"62 552 OFFCURVE",
"20 437 OFFCURVE",
"20 318 CURVE SMOOTH",
"20 123 OFFCURVE",
"142 -15 OFFCURVE",
"316 -15 CURVE SMOOTH",
"414 -15 OFFCURVE",
"510 44 OFFCURVE",
"562 128 CURVE"
);
}
);
width = 673;
}
);
leftKerningGroup = G;
rightKerningGroup = G;
unicode = 0047;
},
{
glyphname = H;
lastChange = "2016-02-15 17:41:44 +0000";
layers = (
{
anchors = (
{
name = top;
position = "{346, 770}";
}
);
background = {
paths = (
{
closed = 1;
nodes = (
"-21 40 LINE",
"-21 0 LINE",
"201 0 LINE",
"201 40 LINE",
"152 41 LINE",
"271 595 LINE",
"250 587 LINE",
"407 41 LINE",
"358 40 LINE",
"358 0 LINE",
"656 0 LINE",
"656 40 LINE",
"607 41 LINE",
"387 672 LINE",
"261 665 LINE",
"26 41 LINE"
);
}
);
};
components = (
{
disableAlignment = 1;
name = I;
},
{
disableAlignment = 1;
name = I;
transform = "{1, 0, 0, 1, 390, 0}";
}
);
layerId = "FABFC9D4-E17A-4CB6-8F8E-4923CD579275";
name = Regular;
paths = (
{
closed = 1;
nodes = (
"493 314 LINE",
"493 351 LINE",
"211 351 LINE",
"211 314 LINE"
);
}
);
width = 694;
}
);
unicode = 0048;
},
{
glyphname = I;
lastChange = "2016-02-18 17:15:11 +0000";
layers = (
{
anchors = (
{
name = ogonek;
position = "{282, 10}";
},
{
name = top;
position = "{154, 770}";
}
);
guideLines = (
{
angle = 270;
position = "{154, 0}";
}
);
layerId = "FABFC9D4-E17A-4CB6-8F8E-4923CD579275";
name = Regular;
paths = (
{
closed = 1;
nodes = (
"235 634 LINE",
"284 635 LINE",
"284 670 LINE",
"20 670 LINE",
"20 635 LINE",
"69 634 LINE",
"69 36 LINE",
"20 35 LINE",
"20 0 LINE",
"284 0 LINE",
"284 35 LINE",
"235 36 LINE"
);
}
);
width = 304;
}
);
leftKerningGroup = I;
rightKerningGroup = I;
unicode = 0049;
},
{
glyphname = J;
lastChange = "2016-02-17 23:02:57 +0000";
layers = (
{
anchors = (
{
name = top;
position = "{158, 770}";
}
);
background = {
paths = (
{
closed = 1;
nodes = (
"239 634 LINE",
"288 635 LINE",
"288 670 LINE",
"24 670 LINE",
"24 635 LINE",
"73 634 LINE",
"73 -184 LINE",
"84 -175 LINE",
"-38 -20 LINE",
"-121 -153 LINE",
"-95 -178 OFFCURVE",
"-30 -203 OFFCURVE",
"23 -203 CURVE SMOOTH",
"152 -203 OFFCURVE",
"239 -98 OFFCURVE",
"239 215 CURVE SMOOTH"
);
}
);
};
guideLines = (
{
angle = 270;
position = "{158, 526}";
}
);
layerId = "FABFC9D4-E17A-4CB6-8F8E-4923CD579275";
name = Regular;
paths = (
{
closed = 1;
nodes = (
"239 634 LINE",
"288 635 LINE",
"288 670 LINE",
"24 670 LINE",
"24 635 LINE",
"73 634 LINE",
"73 -184 LINE",
"84 -175 LINE",
"-58 -30 LINE",
"-141 -153 LINE",
"-112 -176 OFFCURVE",
"-37 -203 OFFCURVE",
"23 -203 CURVE SMOOTH",
"152 -203 OFFCURVE",
"239 -98 OFFCURVE",
"239 215 CURVE SMOOTH"
);
}
);
width = 313;
}
);
unicode = 004A;
},
{
glyphname = K;
lastChange = "2016-02-18 17:15:25 +0000";
layers = (
{
anchors = (
{
name = bottom;
position = "{336, -80}";
},
{
name = top;
position = "{361, 770}";
}
);
background = {
components = (
{
name = I;
}
);
paths = (
{
closed = 1;
nodes = (
"-545 629 LINE",
"-496 630 LINE",
"-496 670 LINE",
"-780 670 LINE",
"-780 630 LINE",
"-731 629 LINE",
"-731 41 LINE",
"-780 40 LINE",
"-780 0 LINE",
"-496 0 LINE",
"-496 40 LINE",
"-545 41 LINE"
);
},
{
closed = 1;
nodes = (
"-433 391 LINE",
"-197 629 LINE",
"-138 630 LINE",
"-138 670 LINE",
"-386 670 LINE",
"-386 630 LINE",
"-322 629 LINE",
"-534 329 LINE",
"-381 41 LINE",
"-430 40 LINE",
"-430 0 LINE",
"-102 0 LINE",
"-102 40 LINE",
"-151 41 LINE",
"-399 435 LINE"
);
},
{
closed = 1;
nodes = (
"367 391 LINE",
"588 634 LINE",
"642 635 LINE",
"642 670 LINE",
"404 670 LINE",
"404 635 LINE",
"463 634 LINE",
"266 329 LINE",
"429 36 LINE",
"380 35 LINE",
"380 0 LINE",
"688 0 LINE",
"688 35 LINE",
"639 36 LINE",
"386 435 LINE"
);
}
);
};
components = (
{
name = I;
}
);
layerId = "FABFC9D4-E17A-4CB6-8F8E-4923CD579275";
name = Regular;
paths = (
{
closed = 1;
nodes = (
"367 391 LINE",
"598 634 LINE",
"652 635 LINE",
"652 670 LINE",
"414 670 LINE",
"414 635 LINE",
"473 634 LINE",
"266 329 LINE",
"439 36 LINE",
"390 35 LINE",
"390 0 LINE",
"698 0 LINE",
"698 35 LINE",
"649 36 LINE",
"386 435 LINE"
);
}
);
width = 710;
}
);
leftKerningGroup = K;
rightKerningGroup = K;
unicode = 004B;
},
{
glyphname = L;
lastChange = "2016-02-18 17:15:37 +0000";
layers = (
{
anchors = (
{
name = bottom;
position = "{274, -80}";
},
{
name = center;
position = "{153, 365}";
},
{
name = top;
position = "{244, 770}";
},
{
name = topright;
position = "{527, 670}";
}
);
background = {
paths = (
{
closed = 1;
nodes = (
"-580 0 LINE",
"-580 40 LINE",
"-531 41 LINE",
"-531 629 LINE",
"-580 630 LINE",
"-580 670 LINE",
"-296 670 LINE",
"-296 630 LINE",
"-345 629 LINE",
"-345 21 LINE",
"-392 22 LINE",
"-285 51 OFFCURVE",
"-189 107 OFFCURVE",
"-104 188 CURVE",
"-102 238 LINE",
"-63 239 LINE",
"-63 0 LINE"
);
},
{
closed = 1;
nodes = (
"344 635 LINE",
"344 670 LINE",
"20 670 LINE",
"20 635 LINE",
"69 634 LINE",
"69 36 LINE",
"20 35 LINE",
"20 0 LINE",
"527 0 LINE",
"527 179 LINE",
"488 178 LINE",
"486 128 LINE",
"387 85 OFFCURVE",
"287 49 OFFCURVE",
"188 22 CURVE",
"235 21 LINE",
"235 634 LINE"
);
}
);
};
layerId = "FABFC9D4-E17A-4CB6-8F8E-4923CD579275";
name = Regular;
paths = (
{
closed = 1;
nodes = (
"344 635 LINE",
"344 670 LINE",
"20 670 LINE",
"20 635 LINE",
"69 634 LINE",
"69 36 LINE",
"20 35 LINE",
"20 0 LINE",
"527 0 LINE",
"527 199 LINE",
"488 198 LINE",
"486 148 LINE",
"388 97 OFFCURVE",
"287 54 OFFCURVE",
"188 22 CURVE",
"235 21 LINE",
"235 634 LINE"
);
}
);
width = 547;
}
);
leftKerningGroup = L;
rightKerningGroup = L;
unicode = 004C;
},
{
glyphname = M;
lastChange = "2016-02-15 14:46:39 +0000";
layers = (
{
anchors = (
{
name = top;
position = "{464, 770}";
}
);
background = {
paths = (
{
closed = 1;
nodes = (
"483 308 LINE",
"300 670 LINE",
"131 670 LINE",
"39 36 LINE",
"-10 35 LINE",
"-10 0 LINE",
"214 0 LINE",
"214 35 LINE",
"165 36 LINE",
"180 625 LINE",
"146 619 LINE",
"390 112 LINE",
"417 112 LINE",
"641 617 LINE",
"609 614 LINE",
"646 36 LINE",
"597 35 LINE",
"597 0 LINE",
"879 0 LINE",
"879 35 LINE",
"830 36 LINE",
"759 670 LINE",
"610 670 LINE",
"446 281 LINE"
);
},
{
closed = 1;
nodes = (
"811 635 LINE",
"811 670 LINE",
"759 670 LINE",
"762 634 LINE"
);
},
{
closed = 1;
nodes = (
"131 670 LINE",
"80 670 LINE",
"80 635 LINE",
"129 634 LINE"
);
}
);
};
guideLines = (
{
angle = 270;
position = "{465, 552}";
},
{
position = "{111, 741}";
}
);
layerId = "FABFC9D4-E17A-4CB6-8F8E-4923CD579275";
name = Regular;
paths = (
{
closed = 1;
nodes = (
"481 308 LINE",
"306 670 LINE",
"141 670 LINE",
"39 36 LINE",
"-10 35 LINE",
"-10 0 LINE",
"214 0 LINE",
"214 35 LINE",
"165 36 LINE",
"176 625 LINE",
"142 619 LINE",
"380 112 LINE",
"411 112 LINE",
"641 617 LINE",
"609 614 LINE",
"646 36 LINE",
"597 35 LINE",
"597 0 LINE",
"879 0 LINE",
"879 35 LINE",
"830 36 LINE",
"759 670 LINE",
"610 670 LINE",
"440 281 LINE"
);
},
{
closed = 1;
nodes = (
"811 635 LINE",
"811 670 LINE",
"759 670 LINE",
"762 634 LINE"
);
},
{
closed = 1;
nodes = (
"141 670 LINE",
"80 670 LINE",
"80 635 LINE",
"139 634 LINE"
);
}
);
width = 882;
}
);
unicode = 004D;
},
{
glyphname = N;
lastChange = "2016-02-18 17:15:43 +0000";
layers = (
{
anchors = (
{
name = bottom;
position = "{322, -80}";
},
{
name = top;
position = "{346, 770}";
}
);
background = {
paths = (
{
closed = 1;
nodes = (
"-695 634 LINE",
"-646 635 LINE",
"-646 670 LINE",
"-780 670 LINE",
"-780 635 LINE",
"-731 634 LINE",
"-731 36 LINE",
"-780 35 LINE",
"-780 0 LINE",
"-646 0 LINE",
"-646 35 LINE",
"-695 36 LINE"
);
},
{
closed = 1;
nodes = (
"-246 158 LINE",
"-222 155 LINE",
"-546 670 LINE",
"-780 670 LINE",
"-780 635 LINE",
"-731 634 LINE",
"-305 0 LINE",
"-210 1 LINE",
"-210 634 LINE",
"-161 635 LINE",
"-161 670 LINE",
"-295 670 LINE",
"-295 635 LINE",
"-246 634 LINE"
);
},
{
closed = 1;
nodes = (
"105 634 LINE",
"154 635 LINE",
"154 670 LINE",
"20 670 LINE",
"20 635 LINE",
"69 634 LINE",
"69 36 LINE",
"20 35 LINE",
"20 0 LINE",
"194 0 LINE",
"194 35 LINE",
"105 36 LINE"
);
},
{
closed = 1;
nodes = (
"524 158 LINE",
"548 185 LINE",
"254 670 LINE",
"20 670 LINE",
"20 635 LINE",
"69 634 LINE",
"465 0 LINE",
"560 1 LINE",
"560 634 LINE",
"609 635 LINE",
"609 670 LINE",
"435 670 LINE",
"435 635 LINE",
"524 634 LINE"
);
}
);
};
guideLines = (
{
angle = 270;
position = "{332, 621}";
}
);
layerId = "FABFC9D4-E17A-4CB6-8F8E-4923CD579275";
name = Regular;
paths = (
{
closed = 1;
nodes = (
"150 36 LINE",
"199 35 LINE",
"199 0 LINE",
"5 0 LINE",
"5 35 LINE",
"54 36 LINE",
"69 634 LINE",
"20 635 LINE",
"20 670 LINE",
"254 670 LINE",
"558 165 LINE",
"542 158 LINE",
"499 634 LINE",
"450 635 LINE",
"450 670 LINE",
"644 670 LINE",
"644 635 LINE",
"595 634 LINE",
"570 1 LINE",
"445 0 LINE",
"76 623 LINE",
"105 634 LINE"
);
}
);
width = 654;
}
);
leftKerningGroup = N;
rightKerningGroup = N;
unicode = 004E;
},
{
glyphname = O;
lastChange = "2016-02-20 20:37:34 +0000";
layers = (
{
anchors = (
{
name = center;
position = "{364, 335}";
},
{
name = ogonek;
position = "{668, 10}";
},
{
name = top;
position = "{365, 770}";
}
);
background = {
paths = (
{
closed = 1;
nodes = (
"-2494 253 OFFCURVE",
"-2517 161 OFFCURVE",
"-2561 87 CURVE",
"-2609 45 OFFCURVE",
"-2749 -15 OFFCURVE",
"-2827 -15 CURVE SMOOTH",
"-2996 -15 OFFCURVE",
"-3111 103 OFFCURVE",
"-3111 301 CURVE SMOOTH",
"-3111 412 OFFCURVE",
"-3088 502 OFFCURVE",
"-3044 578 CURVE",
"-2996 619 OFFCURVE",
"-2856 679 OFFCURVE",
"-2778 679 CURVE SMOOTH",
"-2609 679 OFFCURVE",
"-2494 559 OFFCURVE",
"-2494 364 CURVE SMOOTH"
);
},
{
closed = 1;
nodes = (
"-2939 204 OFFCURVE",
"-2859 95 OFFCURVE",
"-2750 95 CURVE SMOOTH",
"-2655 95 LINE",
"-2686 68 LINE",
"-2670 125 OFFCURVE",
"-2666 231 OFFCURVE",
"-2666 308 CURVE SMOOTH",
"-2666 461 OFFCURVE",
"-2746 569 OFFCURVE",
"-2855 569 CURVE SMOOTH",
"-2950 569 LINE",
"-2919 596 LINE",
"-2935 540 OFFCURVE",
"-2939 434 OFFCURVE",
"-2939 356 CURVE SMOOTH"
);
},
{
closed = 1;
nodes = (
"-2008 566 OFFCURVE",
"-1888 494 OFFCURVE",
"-1888 284 CURVE SMOOTH",
"-1888 239 OFFCURVE",
"-1898 138 OFFCURVE",
"-1917 75 CURVE",
"-1877 105 LINE",
"-2073 105 OFFCURVE",
"-2194 176 OFFCURVE",
"-2194 386 CURVE SMOOTH",
"-2194 432 OFFCURVE",
"-2183 532 OFFCURVE",
"-2164 595 CURVE",
"-2200 566 LINE"
);
},
{
closed = 1;
nodes = (
"-2127 685 OFFCURVE",
"-2207 640 OFFCURVE",
"-2266 585 CURVE",
"-2330 507 OFFCURVE",
"-2362 401 OFFCURVE",
"-2362 316 CURVE SMOOTH",
"-2362 99 OFFCURVE",
"-2230 -15 OFFCURVE",
"-2046 -15 CURVE SMOOTH",
"-1954 -15 OFFCURVE",
"-1874 30 OFFCURVE",
"-1815 86 CURVE",
"-1750 163 OFFCURVE",
"-1720 270 OFFCURVE",
"-1720 354 CURVE SMOOTH",
"-1720 572 OFFCURVE",
"-1852 685 OFFCURVE",
"-2036 685 CURVE SMOOTH"
);
},
{
closed = 1;
nodes = (
"-1289 28 OFFCURVE",
"-1394 169 OFFCURVE",
"-1394 355 CURVE SMOOTH",
"-1394 521 OFFCURVE",
"-1335 639 OFFCURVE",
"-1258 639 CURVE SMOOTH",
"-1184 639 OFFCURVE",
"-1080 497 OFFCURVE",
"-1080 312 CURVE SMOOTH",
"-1080 146 OFFCURVE",
"-1139 28 OFFCURVE",
"-1216 28 CURVE SMOOTH"
);
},
{
closed = 1;
nodes = (
"-1582 186 OFFCURVE",
"-1525 75 OFFCURVE",
"-1422 11 CURVE",
"-1373 -5 OFFCURVE",
"-1300 -15 OFFCURVE",
"-1251 -15 CURVE SMOOTH",
"-1014 -15 OFFCURVE",
"-892 144 OFFCURVE",
"-892 361 CURVE SMOOTH",
"-892 481 OFFCURVE",
"-949 592 OFFCURVE",
"-1052 656 CURVE",
"-1101 672 OFFCURVE",
"-1175 682 OFFCURVE",
"-1224 682 CURVE SMOOTH",
"-1460 682 OFFCURVE",
"-1582 523 OFFCURVE",
"-1582 306 CURVE SMOOTH"
);
},
{
closed = 1;
nodes = (
"-506 20 OFFCURVE",
"-609 160 OFFCURVE",
"-609 345 CURVE SMOOTH",
"-609 543 OFFCURVE",
"-543 647 OFFCURVE",
"-458 647 CURVE SMOOTH",
"-367 647 OFFCURVE",
"-265 506 OFFCURVE",
"-265 322 CURVE SMOOTH",
"-265 124 OFFCURVE",
"-331 20 OFFCURVE",
"-416 20 CURVE SMOOTH"
);
},
{
closed = 1;
nodes = (
"-787 113 OFFCURVE",
"-657 -15 OFFCURVE",
"-441 -15 CURVE SMOOTH",
"-211 -15 OFFCURVE",
"-87 134 OFFCURVE",
"-87 351 CURVE SMOOTH",
"-87 555 OFFCURVE",
"-218 682 OFFCURVE",
"-434 682 CURVE SMOOTH",
"-663 682 OFFCURVE",
"-787 533 OFFCURVE",
"-787 316 CURVE SMOOTH"
);
},
{
closed = 1;
nodes = (
"413 616 OFFCURVE",
"527 531 OFFCURVE",
"527 284 CURVE SMOOTH",
"527 232 OFFCURVE",
"517 117 OFFCURVE",
"497 45 CURVE",
"528 55 LINE",
"314 55 OFFCURVE",
"201 139 OFFCURVE",
"201 386 CURVE SMOOTH",
"201 438 OFFCURVE",
"212 553 OFFCURVE",
"232 625 CURVE",
"205 616 LINE"
);
},
{
closed = 1;
nodes = (
"269 685 OFFCURVE",
"177 640 OFFCURVE",
"119 585 CURVE",
"55 507 OFFCURVE",
"23 401 OFFCURVE",
"23 316 CURVE SMOOTH",
"23 98 OFFCURVE",
"163 -15 OFFCURVE",
"358 -15 CURVE SMOOTH",
"459 -15 OFFCURVE",
"551 30 OFFCURVE",
"610 85 CURVE",
"675 163 OFFCURVE",
"704 269 OFFCURVE",
"704 354 CURVE SMOOTH",
"704 572 OFFCURVE",
"564 685 OFFCURVE",
"368 685 CURVE SMOOTH"
);
},
{
closed = 1;
nodes = (
"416 616 OFFCURVE",
"532 531 OFFCURVE",
"532 284 CURVE SMOOTH",
"532 232 OFFCURVE",
"522 117 OFFCURVE",
"502 45 CURVE",
"528 55 LINE",
"311 55 OFFCURVE",
"196 139 OFFCURVE",
"196 386 CURVE SMOOTH",
"196 438 OFFCURVE",
"207 553 OFFCURVE",
"227 625 CURVE",
"205 616 LINE"
);
},
{
closed = 1;
nodes = (
"267 685 OFFCURVE",
"172 640 OFFCURVE",
"114 585 CURVE",
"45 507 OFFCURVE",
"18 401 OFFCURVE",
"18 316 CURVE SMOOTH",
"18 98 OFFCURVE",
"160 -15 OFFCURVE",
"358 -15 CURVE SMOOTH",
"461 -15 OFFCURVE",
"556 30 OFFCURVE",
"615 85 CURVE",
"680 163 OFFCURVE",
"709 269 OFFCURVE",
"709 354 CURVE SMOOTH",
"709 572 OFFCURVE",
"567 685 OFFCURVE",
"368 685 CURVE SMOOTH"
);
}
);
};
guideLines = (
{
angle = 270;
position = "{364, 331}";
}
);
layerId = "FABFC9D4-E17A-4CB6-8F8E-4923CD579275";
name = Regular;
paths = (
{
closed = 1;
nodes = (
"410 616 OFFCURVE",
"522 531 OFFCURVE",
"522 284 CURVE SMOOTH",
"522 232 OFFCURVE",
"512 117 OFFCURVE",
"492 45 CURVE",
"528 55 LINE",
"317 55 OFFCURVE",
"206 139 OFFCURVE",
"206 386 CURVE SMOOTH",
"206 438 OFFCURVE",
"217 553 OFFCURVE",
"237 625 CURVE",
"205 616 LINE"
);
},
{
closed = 1;
nodes = (
"271 685 OFFCURVE",
"182 640 OFFCURVE",
"124 585 CURVE",
"60 507 OFFCURVE",
"28 401 OFFCURVE",
"28 316 CURVE SMOOTH",
"28 98 OFFCURVE",
"166 -15 OFFCURVE",
"358 -15 CURVE SMOOTH",
"457 -15 OFFCURVE",
"546 30 OFFCURVE",
"605 85 CURVE",
"670 163 OFFCURVE",
"699 269 OFFCURVE",
"699 354 CURVE SMOOTH",
"699 572 OFFCURVE",
"561 685 OFFCURVE",
"368 685 CURVE SMOOTH"
);
}
);
width = 727;
}
);
leftKerningGroup = O;
rightKerningGroup = O;
unicode = 004F;
},
{
glyphname = Oslash;
lastChange = "2016-02-18 17:13:52 +0000";
layers = (
{
anchors = (
{
name = _center;
position = "{380.5, 335}";
}
);
components = (
{
name = O;
}
);
layerId = "FABFC9D4-E17A-4CB6-8F8E-4923CD579275";
name = Regular;
paths = (
{
closed = 1;
nodes = (
"509 632 LINE",
"213 43 LINE",
"246 27 LINE",
"542 618 LINE"
);
}
);
width = 761;
}
);
leftKerningGroup = O;
rightKerningGroup = O;
unicode = 00D8;
},
{
glyphname = OE;
lastChange = "2016-02-18 17:13:57 +0000";
layers = (
{
anchors = (
{
name = bottom;
position = "{563, -80}";
},
{
name = center;
position = "{376, 335}";
},
{
name = ogonek;
position = "{680, 10}";
},
{
name = top;
position = "{566, 770}";
}
);
background = {
paths = (
{
closed = 1;
nodes = (
"430 3116 OFFCURVE",
"544 3031 OFFCURVE",
"544 2784 CURVE SMOOTH",
"544 2732 OFFCURVE",
"534 2617 OFFCURVE",
"514 2545 CURVE",
"545 2555 LINE",
"331 2555 OFFCURVE",
"218 2639 OFFCURVE",
"218 2886 CURVE SMOOTH",
"218 2938 OFFCURVE",
"229 3053 OFFCURVE",
"249 3125 CURVE",
"222 3116 LINE"
);
},
{
closed = 1;
nodes = (
"286 3185 OFFCURVE",
"194 3140 OFFCURVE",
"136 3085 CURVE",
"72 3007 OFFCURVE",
"40 2901 OFFCURVE",
"40 2816 CURVE SMOOTH",
"40 2598 OFFCURVE",
"180 2485 OFFCURVE",
"375 2485 CURVE SMOOTH",
"476 2485 OFFCURVE",
"568 2530 OFFCURVE",
"627 2585 CURVE",
"692 2663 OFFCURVE",
"721 2769 OFFCURVE",
"721 2854 CURVE SMOOTH",
"721 3072 OFFCURVE",
"581 3185 OFFCURVE",
"385 3185 CURVE SMOOTH"
);
},
{
closed = 1;
nodes = (
"1002 2679 LINE",
"963 2678 LINE",
"961 2628 LINE",
"873 2585 OFFCURVE",
"786 2549 OFFCURVE",
"698 2522 CURVE",
"714 2512 LINE",
"710 3158 LINE",
"698 3148 LINE",
"779 3121 OFFCURVE",
"860 3085 OFFCURVE",
"941 3042 CURVE",
"943 2992 LINE",
"982 2991 LINE",
"982 3170 LINE",
"495 3170 LINE",
"495 3135 LINE",
"544 3134 LINE",
"544 2536 LINE",
"495 2535 LINE",
"495 2500 LINE",
"1002 2500 LINE"
);
},
{
closed = 1;
nodes = (
"899 2828 LINE",
"899 2865 LINE",
"667 2865 LINE",
"643 2828 LINE"
);
},
{
closed = 1;
nodes = (
"876 2028 LINE",
"876 2065 LINE",
"644 2065 LINE",
"620 2028 LINE"
);
},
{
closed = 1;
nodes = (
"397 2368 LINE",
"543 2341 OFFCURVE",
"766 2285 OFFCURVE",
"920 2242 CURVE",
"922 2192 LINE",
"961 2191 LINE",
"961 2370 LINE",
"406 2373 LINE"
);
},
{
closed = 1;
nodes = (
"693 2036 LINE SMOOTH",
"695 2224 OFFCURVE",
"588 2372 OFFCURVE",
"403 2373 CURVE SMOOTH",
"286 2374 OFFCURVE",
"194 2340 OFFCURVE",
"136 2285 CURVE",
"72 2207 OFFCURVE",
"40 2101 OFFCURVE",
"40 2016 CURVE SMOOTH",
"40 1813 OFFCURVE",
"167 1685 OFFCURVE",
"366 1685 CURVE SMOOTH",
"434 1685 OFFCURVE",
"500 1713 OFFCURVE",
"558 1775 CURVE",
"544 1789 LINE",
"321 1789 OFFCURVE",
"218 1864 OFFCURVE",
"218 2086 CURVE SMOOTH",
"218 2136 OFFCURVE",
"229 2247 OFFCURVE",
"249 2317 CURVE",
"233 2308 LINE",
"403 2308 OFFCURVE",
"528 2205 OFFCURVE",
"528 1954 CURVE SMOOTH",
"528 1700 LINE",
"981 1700 LINE",
"981 1879 LINE",
"942 1878 LINE",
"940 1828 LINE",
"852 1785 OFFCURVE",
"765 1749 OFFCURVE",
"677 1722 CURVE",
"690 1712 LINE"
);
},
{
closed = 1;
nodes = (
"876 1228 LINE",
"876 1265 LINE",
"644 1265 LINE",
"620 1228 LINE"
);
},
{
closed = 1;
nodes = (
"691 1558 LINE",
"679 1548 LINE",
"760 1521 OFFCURVE",
"841 1485 OFFCURVE",
"922 1442 CURVE",
"924 1392 LINE",
"963 1391 LINE",
"963 1570 LINE",
"474 1570 LINE",
"474 1535 LINE",
"528 1534 LINE",
"528 900 LINE",
"981 900 LINE",
"981 1079 LINE",
"942 1078 LINE",
"940 1028 LINE",
"852 985 OFFCURVE",
"765 949 OFFCURVE",
"677 922 CURVE",
"691 912 LINE"
);
},
{
closed = 1;
nodes = (
"573 1538 LINE",
"547 1563 OFFCURVE",
"498 1572 OFFCURVE",
"403 1573 CURVE SMOOTH",
"286 1574 OFFCURVE",
"194 1540 OFFCURVE",
"136 1485 CURVE",
"72 1407 OFFCURVE",
"40 1301 OFFCURVE",
"40 1206 CURVE SMOOTH",
"40 993 OFFCURVE",
"167 885 OFFCURVE",
"326 885 CURVE SMOOTH",
"431 885 OFFCURVE",
"504 919 OFFCURVE",
"558 980 CURVE",
"544 994 LINE",
"321 994 OFFCURVE",
"218 1068 OFFCURVE",
"218 1286 CURVE SMOOTH",
"218 1336 OFFCURVE",
"229 1447 OFFCURVE",
"249 1517 CURVE",
"233 1508 LINE",
"403 1508 OFFCURVE",
"500 1461 OFFCURVE",
"552 1391 CURVE"
);
},
{
closed = 1;
nodes = (
"876 328 LINE",
"876 365 LINE",
"644 365 LINE",
"620 328 LINE"
);
},
{
closed = 1;
nodes = (
"691 658 LINE",
"679 648 LINE",
"760 621 OFFCURVE",
"841 585 OFFCURVE",
"922 542 CURVE",
"924 492 LINE",
"963 491 LINE",
"963 670 LINE",
"474 670 LINE",
"474 635 LINE",
"528 634 LINE",
"528 0 LINE",
"981 0 LINE",
"981 179 LINE",
"942 178 LINE",
"940 128 LINE",
"852 85 OFFCURVE",
"765 49 OFFCURVE",
"677 22 CURVE",
"691 12 LINE"
);
},
{
closed = 1;
nodes = (
"573 638 LINE",
"547 663 OFFCURVE",
"498 672 OFFCURVE",
"403 673 CURVE SMOOTH",
"286 674 OFFCURVE",
"194 640 OFFCURVE",
"136 585 CURVE",
"72 507 OFFCURVE",
"40 401 OFFCURVE",
"40 306 CURVE SMOOTH",
"40 93 OFFCURVE",
"167 -15 OFFCURVE",
"326 -15 CURVE SMOOTH",
"431 -15 OFFCURVE",
"504 19 OFFCURVE",
"558 80 CURVE",
"544 94 LINE",
"321 94 OFFCURVE",
"218 168 OFFCURVE",
"218 386 CURVE SMOOTH",
"218 436 OFFCURVE",
"229 547 OFFCURVE",
"249 617 CURVE",
"233 608 LINE",
"390 608 OFFCURVE",
"528 577 OFFCURVE",
"528 349 CURVE"
);
}
);
};
layerId = "FABFC9D4-E17A-4CB6-8F8E-4923CD579275";
name = Regular;
paths = (
{
closed = 1;
nodes = (
"870 328 LINE",
"870 365 LINE",
"638 365 LINE",
"614 328 LINE"
);
},
{
closed = 1;
nodes = (
"973 0 LINE",
"973 199 LINE",
"934 198 LINE",
"933 148 LINE",
"838 95 OFFCURVE",
"765 54 OFFCURVE",
"669 22 CURVE",
"685 12 LINE",
"681 658 LINE",
"669 648 LINE",
"750 617 OFFCURVE",
"831 577 OFFCURVE",
"912 527 CURVE",
"914 477 LINE",
"953 476 LINE",
"953 670 LINE",
"561 667 LINE",
"505 679 OFFCURVE",
"445 685 OFFCURVE",
"380 685 CURVE SMOOTH",
"291 685 OFFCURVE",
"214 640 OFFCURVE",
"156 585 CURVE",
"92 507 OFFCURVE",
"57 401 OFFCURVE",
"57 316 CURVE SMOOTH",
"57 88 OFFCURVE",
"198 -15 OFFCURVE",
"370 -15 CURVE SMOOTH",
"426 -15 OFFCURVE",
"482 -7 OFFCURVE",
"528 0 CURVE"
);
},
{
closed = 1;
nodes = (
"346 58 OFFCURVE",
"235 142 OFFCURVE",
"235 386 CURVE SMOOTH",
"235 444 OFFCURVE",
"249 553 OFFCURVE",
"269 625 CURVE",
"237 616 LINE",
"439 616 OFFCURVE",
"534 521 OFFCURVE",
"534 294 CURVE SMOOTH",
"534 180 OFFCURVE",
"523 96 OFFCURVE",
"500 35 CURVE",
"540 55 LINE"
);
}
);
width = 998;
}
);
leftKerningGroup = O;
rightKerningGroup = E;
unicode = 0152;
},
{
glyphname = P;
lastChange = "2016-02-15 15:01:59 +0000";
layers = (
{
background = {
paths = (
{
closed = 1;
nodes = (
"-1165 36 LINE",
"-1056 35 LINE",
"-1056 0 LINE",
"-1380 0 LINE",
"-1380 35 LINE",
"-1331 36 LINE",
"-1331 634 LINE",
"-1380 635 LINE",
"-1380 670 LINE",
"-968 670 LINE",
"-873 654 OFFCURVE",
"-810 581 OFFCURVE",
"-810 493 CURVE SMOOTH",
"-810 329 OFFCURVE",
"-937 246 OFFCURVE",
"-1188 246 CURVE",
"-1188 284 LINE",
"-1052 284 OFFCURVE",
"-988 338 OFFCURVE",
"-988 452 CURVE SMOOTH",
"-988 555 OFFCURVE",
"-1062 635 OFFCURVE",
"-1165 635 CURVE"
);
},
{
closed = 1;
nodes = (
"-465 36 LINE",
"-356 35 LINE",
"-356 0 LINE",
"-680 0 LINE",
"-680 35 LINE",
"-631 36 LINE",
"-631 634 LINE",
"-680 635 LINE",
"-680 670 LINE",
"-487 668 LINE",
"-487 668 OFFCURVE",
"-398 680 OFFCURVE",
"-338 680 CURVE",
"-188 680 OFFCURVE",
"-110 581 OFFCURVE",
"-110 493 CURVE SMOOTH",
"-110 329 OFFCURVE",
"-237 246 OFFCURVE",
"-488 246 CURVE",
"-488 284 LINE",
"-352 284 OFFCURVE",
"-288 338 OFFCURVE",
"-288 452 CURVE SMOOTH",
"-288 555 OFFCURVE",
"-362 635 OFFCURVE",
"-465 635 CURVE"
);
},
{
closed = 1;
nodes = (
"235 36 LINE",
"344 35 LINE",
"344 0 LINE",
"20 0 LINE",
"20 35 LINE",
"69 36 LINE",
"69 634 LINE",
"20 635 LINE",
"20 670 LINE",
"213 668 LINE",
"362 680 LINE",
"512 680 OFFCURVE",
"590 581 OFFCURVE",
"590 493 CURVE SMOOTH",
"590 329 OFFCURVE",
"463 246 OFFCURVE",
"212 246 CURVE",
"212 284 LINE",
"348 284 OFFCURVE",
"412 338 OFFCURVE",
"412 452 CURVE SMOOTH",
"412 555 OFFCURVE",
"338 635 OFFCURVE",
"235 635 CURVE"
);
}
);
};
layerId = "FABFC9D4-E17A-4CB6-8F8E-4923CD579275";
name = Regular;
paths = (
{
closed = 1;
nodes = (
"235 36 LINE",
"344 35 LINE",
"344 0 LINE",
"20 0 LINE",
"20 35 LINE",
"69 36 LINE",
"69 634 LINE",
"20 635 LINE",
"20 670 LINE",
"213 668 LINE",
"362 680 LINE",
"512 680 OFFCURVE",
"590 587 OFFCURVE",
"590 479 CURVE SMOOTH",
"590 339 OFFCURVE",
"469 251 OFFCURVE",
"231 246 CURVE SMOOTH",
"212 246 LINE",
"212 284 LINE",
"336 284 OFFCURVE",
"412 345 OFFCURVE",
"412 450 CURVE SMOOTH",
"412 556 OFFCURVE",
"338 635 OFFCURVE",
"235 635 CURVE"
);
}
);
width = 611;
}
);
unicode = 0050;
},
{
glyphname = Thorn;
lastChange = "2016-01-22 15:10:06 +0000";
layers = (
{
background = {
paths = (
{
closed = 1;
nodes = (
"240 36 LINE",
"349 35 LINE",
"349 0 LINE",
"25 0 LINE",
"25 35 LINE",
"74 36 LINE",
"74 634 LINE",
"25 635 LINE",
"25 670 LINE",
"218 668 LINE",
"367 680 LINE",
"517 680 OFFCURVE",
"595 581 OFFCURVE",
"595 493 CURVE SMOOTH",
"595 329 OFFCURVE",
"468 246 OFFCURVE",
"217 246 CURVE",
"217 284 LINE",
"353 284 OFFCURVE",
"417 338 OFFCURVE",
"417 452 CURVE SMOOTH",
"417 555 OFFCURVE",
"343 635 OFFCURVE",
"240 635 CURVE"
);
}
);
};
layerId = "FABFC9D4-E17A-4CB6-8F8E-4923CD579275";
name = Regular;
paths = (
{
closed = 1;
nodes = (
"343 525 OFFCURVE",
"417 445 OFFCURVE",
"417 342 CURVE SMOOTH",
"417 228 OFFCURVE",
"353 174 OFFCURVE",
"217 174 CURVE",
"217 136 LINE",
"468 136 OFFCURVE",
"595 219 OFFCURVE",
"595 383 CURVE SMOOTH",
"595 471 OFFCURVE",
"517 570 OFFCURVE",
"367 570 CURVE",
"218 558 LINE",
"219 526 LINE",
"240 525 LINE"
);
},
{
closed = 1;
nodes = (
"241 634 LINE",
"310 635 LINE",
"310 670 LINE",
"26 670 LINE",
"26 635 LINE",
"75 634 LINE",
"75 36 LINE",
"26 35 LINE",
"26 0 LINE",
"310 0 LINE",
"310 35 LINE",
"241 36 LINE"
);
}
);
width = 600;
}
);
unicode = 00DE;
},
{
glyphname = Q;
lastChange = "2016-02-17 22:53:59 +0000";
layers = (
{
background = {
components = (
{
name = O;
}
);
paths = (
{
closed = 1;
nodes = (
"-1750 -100 LINE",
"-1738 -137 LINE",
"-1560 -137 OFFCURVE",
"-1405 -264 OFFCURVE",
"-1284 -264 CURVE",
"-1063 -112 LINE",
"-1089 -79 LINE",
"-1137 -101 OFFCURVE",
"-1181 -111 OFFCURVE",
"-1225 -111 CURVE SMOOTH",
"-1317 -111 OFFCURVE",
"-1450 -57 OFFCURVE",
"-1548 -59 CURVE",
"-1369 23 LINE",
"-1391 56 LINE"
);
},
{
closed = 1;
nodes = (
"-712 -84 LINE",
"-738 -137 LINE",
"-599 -188 OFFCURVE",
"-301 -244 OFFCURVE",
"-180 -244 CURVE",
"-119 -84 LINE",
"-259 -97 OFFCURVE",
"-478 -97 OFFCURVE",
"-613 -89 CURVE",
"-369 23 LINE",
"-391 56 LINE"
);
},
{
closed = 1;
nodes = (
"217 -44 LINE",
"217 -106 LINE",
"341 -166 OFFCURVE",
"579 -234 OFFCURVE",
"696 -242 CURVE",
"748 -76 LINE",
"599 -88 OFFCURVE",
"371 -82 OFFCURVE",
"250 -61 CURVE",
"231 -80 LINE",
"475 7 LINE",
"481 50 LINE"
);
}
);
};
components = (
{
name = O;
}
);
layerId = "FABFC9D4-E17A-4CB6-8F8E-4923CD579275";
name = Regular;
paths = (
{
closed = 1;
nodes = (
"217 -44 LINE",
"217 -106 LINE",
"341 -166 OFFCURVE",
"579 -234 OFFCURVE",
"696 -242 CURVE",
"748 -76 LINE",
"599 -88 OFFCURVE",
"371 -82 OFFCURVE",
"250 -61 CURVE",
"231 -80 LINE",
"475 7 LINE",
"481 50 LINE"
);
}
);
width = 745;
}
);
unicode = 0051;
},
{
glyphname = R;
lastChange = "2016-02-18 17:16:21 +0000";
layers = (
{
anchors = (
{
name = top;
position = "{336, 770}";
}
);
background = {
paths = (
{
closed = 1;
nodes = (
"-3665 36 LINE",
"-3556 35 LINE",
"-3556 0 LINE",
"-3880 0 LINE",
"-3880 35 LINE",
"-3831 36 LINE",
"-3831 634 LINE",
"-3880 635 LINE",
"-3880 670 LINE",
"-3664 670 LINE",
"-3468 670 LINE",
"-3375 655 OFFCURVE",
"-3320 595 OFFCURVE",
"-3320 509 CURVE SMOOTH",
"-3320 362 OFFCURVE",
"-3454 278 OFFCURVE",
"-3688 278 CURVE",
"-3688 316 LINE",
"-3559 316 OFFCURVE",
"-3498 365 OFFCURVE",
"-3498 468 CURVE SMOOTH",
"-3498 565 OFFCURVE",
"-3564 633 OFFCURVE",
"-3665 633 CURVE"
);
},
{
closed = 1;
nodes = (
"-3567 291 LINE",
"-3424 334 LINE",
"-3408 301 LINE SMOOTH",
"-3365 214 OFFCURVE",
"-3304 138 OFFCURVE",
"-3252 113 CURVE",
"-3209 135 LINE",
"-3194 106 LINE",
"-3371 -11 LINE",
"-3432 19 OFFCURVE",
"-3498 107 OFFCURVE",
"-3537 211 CURVE SMOOTH"
);
},
{
closed = 1;
nodes = (
"-2865 36 LINE",
"-2816 35 LINE",
"-2816 0 LINE",
"-3080 0 LINE",
"-3080 35 LINE",
"-3031 36 LINE",
"-3031 634 LINE",
"-3080 635 LINE",
"-3080 670 LINE",
"-2668 670 LINE",
"-2573 654 OFFCURVE",
"-2510 581 OFFCURVE",
"-2510 493 CURVE SMOOTH",
"-2510 329 OFFCURVE",
"-2637 246 OFFCURVE",
"-2888 246 CURVE",
"-2888 284 LINE",
"-2752 284 OFFCURVE",
"-2688 338 OFFCURVE",
"-2688 452 CURVE SMOOTH",
"-2688 555 OFFCURVE",
"-2762 635 OFFCURVE",
"-2865 635 CURVE"
);
},
{
closed = 1;
nodes = (
"-2475 36 LINE",
"-2426 35 LINE",
"-2426 0 LINE",
"-2734 0 LINE",
"-2734 35 LINE",
"-2685 36 LINE",
"-2803 268 LINE",
"-2683 344 LINE"
);
},
{
closed = 1;
nodes = (
"-1775 36 LINE",
"-1726 35 LINE",
"-1726 0 LINE",
"-2034 0 LINE",
"-2034 35 LINE",
"-1985 36 LINE",
"-2103 268 LINE",
"-1983 344 LINE"
);
},
{
closed = 1;
nodes = (
"-2165 36 LINE",
"-2116 35 LINE",
"-2116 0 LINE",
"-2380 0 LINE",
"-2380 35 LINE",
"-2331 36 LINE",
"-2331 634 LINE",
"-2380 635 LINE",
"-2380 670 LINE",
"-2187 668 LINE",
"-2187 668 OFFCURVE",
"-2098 680 OFFCURVE",
"-2038 680 CURVE SMOOTH",
"-1888 680 OFFCURVE",
"-1810 581 OFFCURVE",
"-1810 493 CURVE SMOOTH",
"-1810 329 OFFCURVE",
"-1937 246 OFFCURVE",
"-2188 246 CURVE",
"-2188 284 LINE",
"-2052 284 OFFCURVE",
"-1988 338 OFFCURVE",
"-1988 452 CURVE SMOOTH",
"-1988 555 OFFCURVE",
"-2062 635 OFFCURVE",
"-2165 635 CURVE"
);
},
{
closed = 1;
nodes = (
"-975 36 LINE",
"-926 35 LINE",
"-926 0 LINE",
"-1234 0 LINE",
"-1234 35 LINE",
"-1185 36 LINE",
"-1303 268 LINE",
"-1183 344 LINE"
);
},
{
closed = 1;
nodes = (
"-1365 36 LINE",
"-1316 35 LINE",
"-1316 0 LINE",
"-1580 0 LINE",
"-1580 35 LINE",
"-1531 36 LINE",
"-1531 634 LINE",
"-1580 635 LINE",
"-1580 670 LINE",
"-1387 668 LINE",
"-1238 680 LINE",
"-1088 680 OFFCURVE",
"-1010 581 OFFCURVE",
"-1010 493 CURVE SMOOTH",
"-1010 329 OFFCURVE",
"-1137 246 OFFCURVE",
"-1388 246 CURVE",
"-1388 284 LINE",
"-1252 284 OFFCURVE",
"-1188 338 OFFCURVE",
"-1188 452 CURVE SMOOTH",
"-1188 555 OFFCURVE",
"-1262 635 OFFCURVE",
"-1365 635 CURVE"
);
},
{
closed = 1;
nodes = (
"-175 36 LINE",
"-126 35 LINE",
"-126 0 LINE",
"-367 0 LINE",
"-503 268 LINE",
"-383 344 LINE"
);
},
{
closed = 1;
nodes = (
"-565 36 LINE",
"-516 35 LINE",
"-516 0 LINE",
"-780 0 LINE",
"-780 35 LINE",
"-731 36 LINE",
"-731 634 LINE",
"-780 635 LINE",
"-780 670 LINE",
"-587 668 LINE",
"-438 680 LINE",
"-288 680 OFFCURVE",
"-210 581 OFFCURVE",
"-210 493 CURVE SMOOTH",
"-210 329 OFFCURVE",
"-337 246 OFFCURVE",
"-588 246 CURVE",
"-588 284 LINE",
"-452 284 OFFCURVE",
"-388 338 OFFCURVE",
"-388 452 CURVE SMOOTH",
"-388 555 OFFCURVE",
"-462 635 OFFCURVE",
"-565 635 CURVE"
);
},
{
closed = 1;
nodes = (
"625 36 LINE",
"674 35 LINE",
"674 0 LINE",
"433 0 LINE",
"297 268 LINE",
"417 344 LINE"
);
},
{
closed = 1;
nodes = (
"284 35 LINE",
"284 0 LINE",
"20 0 LINE",
"20 35 LINE",
"69 36 LINE",
"69 634 LINE",
"20 635 LINE",
"20 670 LINE",
"213 668 LINE",
"362 680 LINE",
"512 680 OFFCURVE",
"590 589 OFFCURVE",
"590 484 CURVE SMOOTH",
"590 347 OFFCURVE",
"469 261 OFFCURVE",
"231 256 CURVE SMOOTH",
"212 256 LINE",
"212 294 LINE",
"336 294 OFFCURVE",
"412 353 OFFCURVE",
"412 455 CURVE SMOOTH",
"412 558 OFFCURVE",
"338 635 OFFCURVE",
"235 635 CURVE",
"235 36 LINE"
);
}
);
};
layerId = "FABFC9D4-E17A-4CB6-8F8E-4923CD579275";
name = Regular;
paths = (
{
closed = 1;
nodes = (
"625 36 LINE",
"674 35 LINE",
"674 0 LINE",
"433 0 LINE",
"297 268 LINE",
"417 344 LINE"
);
},
{
closed = 1;
nodes = (
"284 35 LINE",
"284 0 LINE",
"20 0 LINE",
"20 35 LINE",
"69 36 LINE",
"69 634 LINE",
"20 635 LINE",
"20 670 LINE",
"213 668 LINE",
"362 680 LINE",
"512 680 OFFCURVE",
"590 589 OFFCURVE",
"590 484 CURVE SMOOTH",
"590 355 OFFCURVE",
"469 271 OFFCURVE",
"231 266 CURVE SMOOTH",
"212 266 LINE",
"212 304 LINE",
"336 304 OFFCURVE",
"412 361 OFFCURVE",
"412 460 CURVE SMOOTH",
"412 560 OFFCURVE",
"338 635 OFFCURVE",
"235 635 CURVE",
"235 36 LINE"
);
}
);
width = 676;
}
);
leftKerningGroup = R;
rightKerningGroup = R;
unicode = 0052;
},
{
glyphname = S;
lastChange = "2016-02-18 17:16:30 +0000";
layers = (
{
anchors = (
{
name = bottom;
position = "{254, -80}";
},
{
name = top;
position = "{275, 770}";
}
);
background = {
paths = (
{
closed = 1;
nodes = (
"332 71 OFFCURVE",
"284 20 OFFCURVE",
"222 20 CURVE",
"114 212 LINE",
"1 125 LINE",
"43 43 OFFCURVE",
"126 -15 OFFCURVE",
"244 -15 CURVE SMOOTH",
"424 -15 OFFCURVE",
"507 87 OFFCURVE",
"507 181 CURVE SMOOTH",
"507 382 OFFCURVE",
"202 424 OFFCURVE",
"202 556 CURVE SMOOTH",
"202 614 OFFCURVE",
"234 650 OFFCURVE",
"295 650 CURVE",
"405 480 LINE",
"508 591 LINE",
"465 643 OFFCURVE",
"392 685 OFFCURVE",
"308 685 CURVE SMOOTH",
"121 685 OFFCURVE",
"33 595 OFFCURVE",
"33 480 CURVE SMOOTH",
"33 294 OFFCURVE",
"332 267 OFFCURVE",
"332 131 CURVE SMOOTH"
);
}
);
};
layerId = "FABFC9D4-E17A-4CB6-8F8E-4923CD579275";
name = Regular;
paths = (
{
closed = 1;
nodes = (
"332 72 OFFCURVE",
"282 20 OFFCURVE",
"223 20 CURVE SMOOTH",
"212 20 OFFCURVE",
"201 22 OFFCURVE",
"189 25 CURVE",
"239 -5 LINE",
"192 65 OFFCURVE",
"150 137 OFFCURVE",
"114 212 CURVE",
"1 125 LINE",
"43 45 OFFCURVE",
"119 -15 OFFCURVE",
"251 -15 CURVE SMOOTH",
"422 -15 OFFCURVE",
"507 87 OFFCURVE",
"507 189 CURVE SMOOTH",
"507 383 OFFCURVE",
"202 417 OFFCURVE",
"202 564 CURVE SMOOTH",
"202 611 OFFCURVE",
"234 650 OFFCURVE",
"296 650 CURVE SMOOTH",
"306 650 OFFCURVE",
"321 649 OFFCURVE",
"335 646 CURVE",
"278 675 LINE",
"323 613 OFFCURVE",
"365 549 OFFCURVE",
"403 485 CURVE",
"508 591 LINE",
"461 644 OFFCURVE",
"403 685 OFFCURVE",
"292 685 CURVE SMOOTH",
"130 685 OFFCURVE",
"33 597 OFFCURVE",
"33 487 CURVE SMOOTH",
"33 293 OFFCURVE",
"332 270 OFFCURVE",
"332 129 CURVE SMOOTH"
);
}
);
width = 541;
}
);
leftKerningGroup = S;
rightKerningGroup = S;
unicode = 0053;
},
{
glyphname = T;
lastChange = "2016-02-15 14:49:49 +0000";
layers = (
{
anchors = (
{
name = bottom;
position = "{285, -80}";
},
{
name = center;
position = "{307, 335}";
},
{
name = top;
position = "{306, 770}";
}
);
background = {
paths = (
{
closed = 1;
nodes = (
"-452 648 LINE",
"-520 621 OFFCURVE",
"-589 585 OFFCURVE",
"-657 542 CURVE",
"-659 492 LINE",
"-698 491 LINE",
"-698 670 LINE",
"-88 670 LINE",
"-88 491 LINE",
"-127 492 LINE",
"-129 542 LINE",
"-197 585 OFFCURVE",
"-266 621 OFFCURVE",
"-334 648 CURVE",
"-310 648 LINE",
"-310 36 LINE",
"-261 35 LINE",
"-261 0 LINE",
"-525 0 LINE",
"-525 35 LINE",
"-476 36 LINE",
"-476 648 LINE"
);
},
{
closed = 1;
nodes = (
"248 648 LINE",
"180 617 OFFCURVE",
"111 576 OFFCURVE",
"43 527 CURVE",
"41 477 LINE",
"2 476 LINE",
"2 670 LINE",
"612 670 LINE",
"612 476 LINE",
"573 477 LINE",
"571 527 LINE",
"503 576 OFFCURVE",
"434 617 OFFCURVE",
"366 648 CURVE",
"390 648 LINE",
"390 36 LINE",
"469 35 LINE",
"469 0 LINE",
"145 0 LINE",
"145 35 LINE",
"224 36 LINE",
"224 648 LINE"
);
}
);
};
guideLines = (
{
angle = 270;
position = "{306, 574}";
}
);
layerId = "FABFC9D4-E17A-4CB6-8F8E-4923CD579275";
name = Regular;
paths = (
{
closed = 1;
nodes = (
"248 648 LINE",
"183 617 OFFCURVE",
"121 576 OFFCURVE",
"53 527 CURVE",
"51 477 LINE",
"12 476 LINE",
"12 670 LINE",
"602 670 LINE",
"602 476 LINE",
"563 477 LINE",
"561 527 LINE",
"493 576 OFFCURVE",
"431 617 OFFCURVE",
"366 648 CURVE",
"390 648 LINE",
"390 36 LINE",
"469 35 LINE",
"469 0 LINE",
"145 0 LINE",
"145 35 LINE",
"224 36 LINE",
"224 648 LINE"
);
}
);
width = 614;
}
);
unicode = 0054;
},
{
glyphname = U;
lastChange = "2016-02-18 17:16:37 +0000";
layers = (
{
anchors = (
{
name = ogonek;
position = "{641, 10}";
},
{
name = top;
position = "{353, 770}";
}
);
background = {
paths = (
{
closed = 1;
nodes = (
"-994 -15 OFFCURVE",
"-902 95 OFFCURVE",
"-902 266 CURVE SMOOTH",
"-902 389 OFFCURVE",
"-892 511 OFFCURVE",
"-892 634 CURVE",
"-843 635 LINE",
"-843 670 LINE",
"-1007 670 LINE",
"-1007 635 LINE",
"-958 634 LINE",
"-948 504 OFFCURVE",
"-938 335 OFFCURVE",
"-938 245 CURVE SMOOTH",
"-938 121 OFFCURVE",
"-1034 22 OFFCURVE",
"-1124 22 CURVE SMOOTH",
"-1200 22 OFFCURVE",
"-1276 91 OFFCURVE",
"-1276 295 CURVE SMOOTH",
"-1276 634 LINE",
"-1227 635 LINE",
"-1227 670 LINE",
"-1491 670 LINE",
"-1491 635 LINE",
"-1442 634 LINE",
"-1442 266 LINE SMOOTH",
"-1442 85 OFFCURVE",
"-1340 -15 OFFCURVE",
"-1147 -15 CURVE SMOOTH"
);
},
{
closed = 1;
nodes = (
"-312 147 LINE",
"-336 104 OFFCURVE",
"-375 74 OFFCURVE",
"-420 74 CURVE SMOOTH",
"-504 74 OFFCURVE",
"-576 141 OFFCURVE",
"-576 311 CURVE SMOOTH",
"-576 634 LINE",
"-527 635 LINE",
"-527 670 LINE",
"-791 670 LINE",
"-791 635 LINE",
"-742 634 LINE",
"-742 286 LINE SMOOTH",
"-742 81 OFFCURVE",
"-637 -15 OFFCURVE",
"-494 -15 CURVE SMOOTH",
"-386 -15 OFFCURVE",
"-315 53 OFFCURVE",
"-282 119 CURVE"
);
},
{
closed = 1;
nodes = (
"-161 634 LINE",
"-112 635 LINE",
"-112 670 LINE",
"-376 670 LINE",
"-376 635 LINE",
"-327 634 LINE",
"-327 0 LINE",
"-112 0 LINE",
"-112 35 LINE",
"-161 36 LINE"
);
},
{
closed = 1;
nodes = (
"488 147 LINE",
"459 97 OFFCURVE",
"423 74 OFFCURVE",
"374 74 CURVE SMOOTH",
"278 74 OFFCURVE",
"224 149 OFFCURVE",
"224 301 CURVE SMOOTH",
"224 634 LINE",
"273 635 LINE",
"273 670 LINE",
"9 670 LINE",
"9 635 LINE",
"58 634 LINE",
"58 286 LINE SMOOTH",
"58 94 OFFCURVE",
"140 -15 OFFCURVE",
"302 -15 CURVE SMOOTH",
"396 -15 OFFCURVE",
"474 33 OFFCURVE",
"518 119 CURVE"
);
},
{
closed = 1;
nodes = (
"688 635 LINE",
"688 670 LINE",
"424 670 LINE",
"424 635 LINE",
"473 634 LINE",
"473 88 LINE",
"607 0 LINE",
"639 0 LINE",
"639 634 LINE"
);
}
);
};
guideLines = (
{
angle = 270;
position = "{353, 434}";
}
);
layerId = "FABFC9D4-E17A-4CB6-8F8E-4923CD579275";
name = Regular;
paths = (
{
closed = 1;
nodes = (
"495 136 LINE",
"456 89 OFFCURVE",
"422 74 OFFCURVE",
"370 74 CURVE SMOOTH",
"282 74 OFFCURVE",
"227 135 OFFCURVE",
"227 271 CURVE SMOOTH",
"227 634 LINE",
"276 635 LINE",
"276 670 LINE",
"9 670 LINE",
"9 635 LINE",
"58 634 LINE",
"58 266 LINE SMOOTH",
"58 80 OFFCURVE",
"143 -15 OFFCURVE",
"296 -15 CURVE SMOOTH",
"388 -15 OFFCURVE",
"460 25 OFFCURVE",
"521 104 CURVE"
);
},
{
closed = 1;
nodes = (
"688 635 LINE",
"688 670 LINE",
"424 670 LINE",
"424 635 LINE",
"473 634 LINE",
"473 88 LINE",
"607 0 LINE",
"639 0 LINE",
"639 634 LINE"
);
}
);
width = 705;
}
);
leftKerningGroup = U;
rightKerningGroup = U;
unicode = 0055;
},
{
glyphname = Uogonek;
lastChange = "2016-02-18 17:16:37 +0000";
layers = (
{
anchors = (
{
name = ogonek;
position = "{647, 10}";
},
{
name = top;
position = "{359, 770}";
}
);
components = (
{
disableAlignment = 1;
name = ogonekcomb.case;
transform = "{1, 0, 0, 1, 208, 0}";
}
);
layerId = "FABFC9D4-E17A-4CB6-8F8E-4923CD579275";
name = Regular;
paths = (
{
closed = 1;
nodes = (
"494 147 LINE",
"465 97 OFFCURVE",
"429 74 OFFCURVE",
"380 74 CURVE SMOOTH",
"284 74 OFFCURVE",
"230 159 OFFCURVE",
"230 311 CURVE SMOOTH",
"230 634 LINE",
"279 635 LINE",
"279 670 LINE",
"15 670 LINE",
"15 635 LINE",
"64 634 LINE",
"64 286 LINE SMOOTH",
"64 94 OFFCURVE",
"156 -15 OFFCURVE",
"308 -15 CURVE SMOOTH",
"402 -15 OFFCURVE",
"480 33 OFFCURVE",
"524 119 CURVE"
);
},
{
closed = 1;
nodes = (
"694 635 LINE",
"694 670 LINE",
"430 670 LINE",
"430 635 LINE",
"479 634 LINE",
"479 88 LINE",
"590 0 LINE",
"645 0 LINE",
"645 634 LINE"
);
}
);
width = 719;
}
);
leftKerningGroup = U;
rightKerningGroup = U;
unicode = 0172;
},
{
glyphname = V;
lastChange = "2016-02-18 17:18:21 +0000";
layers = (
{
background = {
paths = (
{
closed = 1;
nodes = (
"666 632 LINE",
"666 672 LINE",
"444 672 LINE",
"444 632 LINE",
"493 631 LINE",
"381 77 LINE",
"402 85 LINE",
"245 631 LINE",
"294 632 LINE",
"294 672 LINE",
"-4 672 LINE",
"-4 632 LINE",
"45 631 LINE",
"265 0 LINE",
"391 7 LINE",
"619 631 LINE"
);
}
);
};
guideLines = (
{
position = "{282, 540}";
}
);
layerId = "FABFC9D4-E17A-4CB6-8F8E-4923CD579275";
name = Regular;
paths = (
{
closed = 1;
nodes = (
"671 635 LINE",
"671 670 LINE",
"445 670 LINE",
"445 635 LINE",
"496 634 LINE",
"382 72 LINE",
"404 76 LINE",
"247 634 LINE",
"296 635 LINE",
"296 670 LINE",
"-5 670 LINE",
"-5 635 LINE",
"44 634 LINE",
"274 -9 LINE",
"398 8 LINE",
"622 634 LINE"
);
}
);
width = 666;
}
);
leftKerningGroup = V;
rightKerningGroup = V;
unicode = 0056;
},
{
glyphname = W;
lastChange = "2016-02-18 17:16:52 +0000";
layers = (
{
anchors = (
{
name = top;
position = "{571, 770}";
}
);
background = {
paths = (
{
closed = 1;
nodes = (
"-551 630 LINE",
"-551 670 LINE",
"-773 670 LINE",
"-773 630 LINE",
"-722 629 LINE",
"-833 79 LINE",
"-816 93 LINE",
"-963 629 LINE",
"-914 630 LINE",
"-914 670 LINE",
"-1197 670 LINE",
"-1197 630 LINE",
"-1148 629 LINE",
"-941 -2 LINE",
"-817 15 LINE",
"-600 629 LINE"
);
},
{
closed = 1;
nodes = (
"-126 630 LINE",
"-126 670 LINE",
"-348 670 LINE",
"-348 630 LINE",
"-297 629 LINE",
"-408 79 LINE",
"-391 93 LINE",
"-538 629 LINE",
"-489 630 LINE",
"-489 670 LINE",
"-772 670 LINE",
"-772 630 LINE",
"-723 629 LINE",
"-516 -2 LINE",
"-392 15 LINE",
"-175 629 LINE"
);
},
{
closed = 1;
nodes = (
"646 635 LINE",
"646 670 LINE",
"420 670 LINE",
"420 635 LINE",
"471 634 LINE",
"367 72 LINE",
"389 76 LINE",
"242 634 LINE",
"291 635 LINE",
"291 670 LINE",
"-10 670 LINE",
"-10 635 LINE",
"39 634 LINE",
"259 -9 LINE",
"383 8 LINE",
"597 634 LINE"
);
},
{
closed = 1;
nodes = (
"1078 635 LINE",
"1078 670 LINE",
"852 670 LINE",
"852 635 LINE",
"903 634 LINE",
"799 72 LINE",
"821 76 LINE",
"674 634 LINE",
"723 635 LINE",
"723 670 LINE",
"422 670 LINE",
"422 635 LINE",
"471 634 LINE",
"691 -9 LINE",
"815 8 LINE",
"1029 634 LINE"
);
}
);
};
layerId = "FABFC9D4-E17A-4CB6-8F8E-4923CD579275";
name = Regular;
paths = (
{
closed = 1;
nodes = (
"388 8 LINE",
"264 -9 LINE",
"44 634 LINE",
"-5 635 LINE",
"-5 670 LINE",
"296 670 LINE",
"296 635 LINE",
"247 634 LINE",
"394 76 LINE",
"372 72 LINE",
"476 634 LINE",
"427 635 LINE",
"427 670 LINE",
"718 670 LINE",
"718 635 LINE",
"669 634 LINE",
"816 76 LINE",
"794 72 LINE",
"898 634 LINE",
"847 635 LINE",
"847 670 LINE",
"1073 670 LINE",
"1073 635 LINE",
"1024 634 LINE",
"810 8 LINE",
"686 -9 LINE",
"506 534 LINE",
"597 634 LINE"
);
}
);
width = 1068;
}
);
leftKerningGroup = V;
rightKerningGroup = V;
unicode = 0057;
},
{
glyphname = X;
lastChange = "2016-02-17 23:00:40 +0000";
layers = (
{
background = {
paths = (
{
closed = 1;
nodes = (
"-1339 629 LINE",
"-1290 630 LINE",
"-1290 670 LINE",
"-1608 670 LINE",
"-1608 630 LINE",
"-1559 629 LINE",
"-1197 41 LINE",
"-1246 40 LINE",
"-1246 0 LINE",
"-928 0 LINE",
"-928 40 LINE",
"-977 41 LINE"
);
},
{
closed = 1;
nodes = (
"-1298 339 LINE",
"-1295 378 LINE",
"-1543 41 LINE",
"-1592 40 LINE",
"-1592 0 LINE",
"-1339 0 LINE",
"-1339 40 LINE",
"-1388 41 LINE"
);
},
{
closed = 1;
nodes = (
"-964 630 LINE",
"-964 670 LINE",
"-1212 670 LINE",
"-1212 630 LINE",
"-1163 629 LINE",
"-1262 360 LINE",
"-1265 322 LINE",
"-1013 629 LINE"
);
},
{
closed = 1;
nodes = (
"-522 629 LINE",
"-473 630 LINE",
"-473 670 LINE",
"-784 670 LINE",
"-784 630 LINE",
"-735 629 LINE",
"-419 41 LINE",
"-468 40 LINE",
"-468 0 LINE",
"-157 0 LINE",
"-157 40 LINE",
"-206 41 LINE"
);
},
{
closed = 1;
nodes = (
"-498 379 LINE",
"-495 418 LINE",
"-732 41 LINE",
"-791 40 LINE",
"-791 0 LINE",
"-538 0 LINE",
"-538 40 LINE",
"-602 41 LINE"
);
},
{
closed = 1;
nodes = (
"-166 630 LINE",
"-166 670 LINE",
"-414 670 LINE",
"-414 630 LINE",
"-350 629 LINE",
"-452 350 LINE",
"-455 312 LINE",
"-225 629 LINE"
);
},
{
closed = 1;
nodes = (
"268 634 LINE",
"317 635 LINE",
"317 670 LINE",
"9 670 LINE",
"9 635 LINE",
"58 634 LINE",
"394 36 LINE",
"345 35 LINE",
"345 0 LINE",
"653 0 LINE",
"653 35 LINE",
"604 36 LINE"
);
},
{
closed = 1;
nodes = (
"302 389 LINE",
"305 428 LINE",
"58 36 LINE",
"-1 35 LINE",
"-1 0 LINE",
"252 0 LINE",
"252 35 LINE",
"188 36 LINE"
);
},
{
closed = 1;
nodes = (
"644 635 LINE",
"644 670 LINE",
"396 670 LINE",
"396 635 LINE",
"460 634 LINE",
"338 347 LINE",
"335 309 LINE",
"585 634 LINE"
);
}
);
};
guideLines = (
{
angle = 270;
position = "{19, 630}";
},
{
angle = 270;
position = "{634, 630}";
}
);
layerId = "FABFC9D4-E17A-4CB6-8F8E-4923CD579275";
name = Regular;
paths = (
{
closed = 1;
nodes = (
"264 634 LINE",
"313 635 LINE",
"313 670 LINE",
"12 670 LINE",
"12 635 LINE",
"61 634 LINE",
"397 36 LINE",
"348 35 LINE",
"348 0 LINE",
"649 0 LINE",
"649 35 LINE",
"600 36 LINE"
);
},
{
closed = 1;
nodes = (
"305 389 LINE",
"308 428 LINE",
"61 36 LINE",
"2 35 LINE",
"2 0 LINE",
"255 0 LINE",
"255 35 LINE",
"191 36 LINE"
);
},
{
closed = 1;
nodes = (
"638 635 LINE",
"638 670 LINE",
"390 670 LINE",
"390 635 LINE",
"454 634 LINE",
"332 347 LINE",
"329 309 LINE",
"579 634 LINE"
);
}
);
width = 651;
}
);
unicode = 0058;
},
{
glyphname = Y;
lastChange = "2016-02-18 17:16:58 +0000";
layers = (
{
anchors = (
{
name = top;
position = "{358, 770}";
}
);
layerId = "FABFC9D4-E17A-4CB6-8F8E-4923CD579275";
name = Regular;
paths = (
{
closed = 1;
nodes = (
"643 635 LINE",
"643 670 LINE",
"417 670 LINE",
"417 635 LINE",
"468 634 LINE",
"369 312 LINE",
"391 316 LINE",
"249 634 LINE",
"298 635 LINE",
"298 670 LINE",
"-3 670 LINE",
"-3 635 LINE",
"46 634 LINE",
"261 231 LINE",
"385 248 LINE",
"594 634 LINE"
);
},
{
closed = 1;
nodes = (
"406 294 LINE",
"240 294 LINE",
"240 36 LINE",
"191 35 LINE",
"191 0 LINE",
"455 0 LINE",
"455 35 LINE",
"406 36 LINE"
);
}
);
width = 640;
}
);
leftKerningGroup = Y;
rightKerningGroup = Y;
unicode = 0059;
},
{
glyphname = Z;
lastChange = "2016-02-18 17:17:09 +0000";
layers = (
{
anchors = (
{
name = top;
position = "{286, 770}";
}
);
background = {
paths = (
{
closed = 1;
nodes = (
"-694 20 LINE",
"-681 0 LINE",
"-159 0 LINE",
"-159 199 LINE",
"-198 198 LINE",
"-200 148 LINE",
"-503 28 LINE",
"-498 14 LINE",
"-170 650 LINE",
"-188 670 LINE",
"-675 670 LINE",
"-675 471 LINE",
"-636 472 LINE",
"-634 522 LINE",
"-350 660 LINE",
"-363 660 LINE"
);
},
{
closed = 1;
nodes = (
"15 34 LINE",
"15 0 LINE",
"541 0 LINE",
"541 177 LINE",
"502 176 LINE",
"500 126 LINE",
"399 85 OFFCURVE",
"298 53 OFFCURVE",
"197 28 CURVE",
"198 14 LINE",
"523 626 LINE",
"523 670 LINE",
"28 670 LINE",
"28 493 LINE",
"67 494 LINE",
"69 544 LINE",
"165 586 OFFCURVE",
"261 621 OFFCURVE",
"357 647 CURVE",
"348 660 LINE"
);
}
);
};
layerId = "FABFC9D4-E17A-4CB6-8F8E-4923CD579275";
name = Regular;
paths = (
{
closed = 1;
nodes = (
"10 34 LINE",
"10 0 LINE",
"531 0 LINE",
"531 197 LINE",
"492 196 LINE",
"490 146 LINE",
"389 97 OFFCURVE",
"291 56 OFFCURVE",
"192 24 CURVE",
"193 14 LINE",
"518 626 LINE",
"518 670 LINE",
"28 670 LINE",
"28 478 LINE",
"67 479 LINE",
"69 529 LINE",
"165 577 OFFCURVE",
"261 619 OFFCURVE",
"357 651 CURVE",
"343 660 LINE"
);
}
);
width = 556;
}
);
leftKerningGroup = Z;
rightKerningGroup = Z;
unicode = 005A;
},
{
glyphname = OE.alt;
lastChange = "2016-02-18 17:17:20 +0000";
layers = (
{
anchors = (
{
name = top;
position = "{559, 770}";
}
);
background = {
paths = (
{
closed = 1;
nodes = (
"423 4816 OFFCURVE",
"537 4731 OFFCURVE",
"537 4484 CURVE SMOOTH",
"537 4432 OFFCURVE",
"527 4317 OFFCURVE",
"507 4245 CURVE",
"538 4255 LINE",
"324 4255 OFFCURVE",
"211 4339 OFFCURVE",
"211 4586 CURVE SMOOTH",
"211 4638 OFFCURVE",
"222 4753 OFFCURVE",
"242 4825 CURVE",
"215 4816 LINE"
);
},
{
closed = 1;
nodes = (
"279 4885 OFFCURVE",
"187 4840 OFFCURVE",
"129 4785 CURVE",
"65 4707 OFFCURVE",
"33 4601 OFFCURVE",
"33 4516 CURVE SMOOTH",
"33 4298 OFFCURVE",
"173 4185 OFFCURVE",
"368 4185 CURVE SMOOTH",
"469 4185 OFFCURVE",
"561 4230 OFFCURVE",
"620 4285 CURVE",
"685 4363 OFFCURVE",
"714 4469 OFFCURVE",
"714 4554 CURVE SMOOTH",
"714 4772 OFFCURVE",
"574 4885 OFFCURVE",
"378 4885 CURVE SMOOTH"
);
},
{
closed = 1;
nodes = (
"995 4379 LINE",
"956 4378 LINE",
"954 4328 LINE",
"866 4285 OFFCURVE",
"779 4249 OFFCURVE",
"691 4222 CURVE",
"707 4212 LINE",
"703 4858 LINE",
"691 4848 LINE",
"772 4821 OFFCURVE",
"853 4785 OFFCURVE",
"934 4742 CURVE",
"936 4692 LINE",
"975 4691 LINE",
"975 4870 LINE",
"488 4870 LINE",
"488 4835 LINE",
"537 4834 LINE",
"537 4236 LINE",
"488 4235 LINE",
"488 4200 LINE",
"995 4200 LINE"
);
},
{
closed = 1;
nodes = (
"892 4528 LINE",
"892 4565 LINE",
"660 4565 LINE",
"636 4528 LINE"
);
},
{
closed = 1;
nodes = (
"869 3728 LINE",
"869 3765 LINE",
"637 3765 LINE",
"613 3728 LINE"
);
},
{
closed = 1;
nodes = (
"390 4068 LINE",
"536 4041 OFFCURVE",
"759 3985 OFFCURVE",
"913 3942 CURVE",
"915 3892 LINE",
"954 3891 LINE",
"954 4070 LINE",
"399 4073 LINE"
);
},
{
closed = 1;
nodes = (
"686 3736 LINE SMOOTH",
"688 3924 OFFCURVE",
"581 4072 OFFCURVE",
"396 4073 CURVE SMOOTH",
"279 4074 OFFCURVE",
"187 4040 OFFCURVE",
"129 3985 CURVE",
"65 3907 OFFCURVE",
"33 3801 OFFCURVE",
"33 3716 CURVE SMOOTH",
"33 3513 OFFCURVE",
"160 3385 OFFCURVE",
"359 3385 CURVE SMOOTH",
"427 3385 OFFCURVE",
"493 3413 OFFCURVE",
"551 3475 CURVE",
"537 3489 LINE",
"314 3489 OFFCURVE",
"211 3564 OFFCURVE",
"211 3786 CURVE SMOOTH",
"211 3836 OFFCURVE",
"222 3947 OFFCURVE",
"242 4017 CURVE",
"226 4008 LINE",
"396 4008 OFFCURVE",
"521 3905 OFFCURVE",
"521 3654 CURVE SMOOTH",
"521 3400 LINE",
"974 3400 LINE",
"974 3579 LINE",
"935 3578 LINE",
"933 3528 LINE",
"845 3485 OFFCURVE",
"758 3449 OFFCURVE",
"670 3422 CURVE",
"683 3412 LINE"
);
},
{
closed = 1;
nodes = (
"869 2928 LINE",
"869 2965 LINE",
"637 2965 LINE",
"613 2928 LINE"
);
},
{
closed = 1;
nodes = (
"684 3258 LINE",
"672 3248 LINE",
"753 3221 OFFCURVE",
"834 3185 OFFCURVE",
"915 3142 CURVE",
"917 3092 LINE",
"956 3091 LINE",
"956 3270 LINE",
"467 3270 LINE",
"467 3235 LINE",
"521 3234 LINE",
"521 2600 LINE",
"974 2600 LINE",
"974 2779 LINE",
"935 2778 LINE",
"933 2728 LINE",
"845 2685 OFFCURVE",
"758 2649 OFFCURVE",
"670 2622 CURVE",
"684 2612 LINE"
);
},
{
closed = 1;
nodes = (
"566 3238 LINE",
"540 3263 OFFCURVE",
"491 3272 OFFCURVE",
"396 3273 CURVE SMOOTH",
"279 3274 OFFCURVE",
"187 3240 OFFCURVE",
"129 3185 CURVE",
"65 3107 OFFCURVE",
"33 3001 OFFCURVE",
"33 2906 CURVE SMOOTH",
"33 2693 OFFCURVE",
"160 2585 OFFCURVE",
"319 2585 CURVE SMOOTH",
"424 2585 OFFCURVE",
"497 2619 OFFCURVE",
"551 2680 CURVE",
"537 2694 LINE",
"314 2694 OFFCURVE",
"211 2768 OFFCURVE",
"211 2986 CURVE SMOOTH",
"211 3036 OFFCURVE",
"222 3147 OFFCURVE",
"242 3217 CURVE",
"226 3208 LINE",
"396 3208 OFFCURVE",
"493 3161 OFFCURVE",
"545 3091 CURVE"
);
},
{
closed = 1;
nodes = (
"869 2028 LINE",
"869 2065 LINE",
"637 2065 LINE",
"613 2028 LINE"
);
},
{
closed = 1;
nodes = (
"684 2358 LINE",
"672 2348 LINE",
"753 2321 OFFCURVE",
"834 2285 OFFCURVE",
"915 2242 CURVE",
"917 2192 LINE",
"956 2191 LINE",
"956 2370 LINE",
"467 2370 LINE",
"467 2335 LINE",
"521 2334 LINE",
"521 1700 LINE",
"974 1700 LINE",
"974 1879 LINE",
"935 1878 LINE",
"933 1828 LINE",
"845 1785 OFFCURVE",
"758 1749 OFFCURVE",
"670 1722 CURVE",
"684 1712 LINE"
);
},
{
closed = 1;
nodes = (
"566 2338 LINE",
"540 2363 OFFCURVE",
"491 2372 OFFCURVE",
"396 2373 CURVE SMOOTH",
"279 2374 OFFCURVE",
"187 2340 OFFCURVE",
"129 2285 CURVE",
"65 2207 OFFCURVE",
"33 2101 OFFCURVE",
"33 2006 CURVE SMOOTH",
"33 1793 OFFCURVE",
"160 1685 OFFCURVE",
"319 1685 CURVE SMOOTH",
"424 1685 OFFCURVE",
"497 1719 OFFCURVE",
"551 1780 CURVE",
"537 1794 LINE",
"314 1794 OFFCURVE",
"211 1868 OFFCURVE",
"211 2086 CURVE SMOOTH",
"211 2136 OFFCURVE",
"222 2247 OFFCURVE",
"242 2317 CURVE",
"226 2308 LINE",
"383 2308 OFFCURVE",
"521 2277 OFFCURVE",
"521 2049 CURVE"
);
},
{
closed = 1;
nodes = (
"869 1218 LINE",
"869 1255 LINE",
"637 1255 LINE",
"613 1218 LINE"
);
},
{
closed = 1;
nodes = (
"623 1499 OFFCURVE",
"769 1473 OFFCURVE",
"915 1442 CURVE",
"917 1392 LINE",
"956 1391 LINE",
"956 1570 LINE",
"436 1570 LINE",
"446 1518 LINE"
);
},
{
closed = 1;
nodes = (
"690 1497 OFFCURVE",
"557 1568 OFFCURVE",
"396 1573 CURVE SMOOTH",
"288 1574 OFFCURVE",
"207 1540 OFFCURVE",
"149 1485 CURVE",
"88 1407 OFFCURVE",
"58 1301 OFFCURVE",
"58 1206 CURVE SMOOTH",
"58 993 OFFCURVE",
"184 885 OFFCURVE",
"330 885 CURVE SMOOTH",
"435 885 OFFCURVE",
"504 926 OFFCURVE",
"551 980 CURVE",
"537 994 LINE",
"331 994 OFFCURVE",
"236 1068 OFFCURVE",
"236 1286 CURVE SMOOTH",
"236 1336 OFFCURVE",
"245 1447 OFFCURVE",
"262 1517 CURVE",
"226 1508 LINE",
"408 1508 OFFCURVE",
"516 1427 OFFCURVE",
"516 1149 CURVE SMOOTH",
"516 900 LINE",
"974 900 LINE",
"974 1079 LINE",
"935 1078 LINE",
"933 1028 LINE",
"845 985 OFFCURVE",
"758 949 OFFCURVE",
"670 922 CURVE",
"684 912 LINE",
"687 1184 LINE SMOOTH"
);
},
{
closed = 1;
nodes = (
"513 19 OFFCURVE",
"437 -15 OFFCURVE",
"348 -15 CURVE SMOOTH",
"160 -15 OFFCURVE",
"25 98 OFFCURVE",
"25 316 CURVE SMOOTH",
"25 401 OFFCURVE",
"57 507 OFFCURVE",
"121 585 CURVE",
"179 640 OFFCURVE",
"264 685 OFFCURVE",
"358 685 CURVE SMOOTH",
"532 685 OFFCURVE",
"659 572 OFFCURVE",
"659 354 CURVE",
"482 284 LINE",
"482 495 OFFCURVE",
"363 616 OFFCURVE",
"195 616 CURVE",
"234 625 LINE",
"214 553 OFFCURVE",
"203 438 OFFCURVE",
"203 386 CURVE SMOOTH",
"203 175 OFFCURVE",
"320 92 OFFCURVE",
"465 92 CURVE SMOOTH",
"519 92 OFFCURVE",
"580 110 OFFCURVE",
"608 128 CURVE",
"590 69 LINE"
);
},
{
closed = 1;
nodes = (
"928 100 OFFCURVE",
"986 124 OFFCURVE",
"1029 167 CURVE",
"1057 143 LINE",
"986 43 OFFCURVE",
"881 -15 OFFCURVE",
"771 -15 CURVE SMOOTH",
"613 -15 OFFCURVE",
"482 117 OFFCURVE",
"482 306 CURVE SMOOTH",
"482 542 OFFCURVE",
"607 685 OFFCURVE",
"812 685 CURVE SMOOTH",
"965 685 OFFCURVE",
"1077 552 OFFCURVE",
"1076 343 CURVE",
"641 328 LINE",
"641 365 LINE",
"889 382 LINE",
"885 509 OFFCURVE",
"799 625 OFFCURVE",
"719 627 CURVE",
"757 631 LINE",
"699 583 OFFCURVE",
"660 481 OFFCURVE",
"660 379 CURVE SMOOTH",
"660 221 OFFCURVE",
"734 100 OFFCURVE",
"866 100 CURVE SMOOTH"
);
},
{
closed = 1;
nodes = (
"1039 -733 LINE",
"996 -776 OFFCURVE",
"938 -800 OFFCURVE",
"876 -800 CURVE SMOOTH",
"743 -800 OFFCURVE",
"660 -699 OFFCURVE",
"660 -536 CURVE SMOOTH",
"660 -398 OFFCURVE",
"721 -276 OFFCURVE",
"813 -242 CURVE",
"797 -230 LINE",
"932 -443 LINE",
"1055 -340 LINE",
"1006 -263 OFFCURVE",
"916 -217 OFFCURVE",
"815 -217 CURVE SMOOTH",
"740 -217 OFFCURVE",
"658 -241 OFFCURVE",
"590 -285 CURVE",
"523 -348 OFFCURVE",
"481 -462 OFFCURVE",
"481 -582 CURVE SMOOTH",
"481 -780 OFFCURVE",
"602 -915 OFFCURVE",
"781 -915 CURVE SMOOTH",
"891 -915 OFFCURVE",
"996 -857 OFFCURVE",
"1067 -757 CURVE"
);
}
);
};
layerId = "FABFC9D4-E17A-4CB6-8F8E-4923CD579275";
name = Regular;
paths = (
{
closed = 1;
nodes = (
"513 19 OFFCURVE",
"437 -15 OFFCURVE",
"348 -15 CURVE SMOOTH",
"160 -15 OFFCURVE",
"25 98 OFFCURVE",
"25 316 CURVE SMOOTH",
"25 401 OFFCURVE",
"57 507 OFFCURVE",
"121 585 CURVE",
"179 640 OFFCURVE",
"264 685 OFFCURVE",
"358 685 CURVE SMOOTH",
"532 685 OFFCURVE",
"659 572 OFFCURVE",
"659 354 CURVE",
"482 284 LINE",
"482 495 OFFCURVE",
"363 616 OFFCURVE",
"195 616 CURVE",
"234 625 LINE",
"214 553 OFFCURVE",
"203 438 OFFCURVE",
"203 386 CURVE SMOOTH",
"203 175 OFFCURVE",
"320 92 OFFCURVE",
"465 92 CURVE SMOOTH",
"519 92 OFFCURVE",
"580 110 OFFCURVE",
"608 128 CURVE",
"590 69 LINE"
);
},
{
closed = 1;
nodes = (
"701 579 OFFCURVE",
"660 477 OFFCURVE",
"660 364 CURVE SMOOTH",
"660 201 OFFCURVE",
"743 100 OFFCURVE",
"876 100 CURVE SMOOTH",
"938 100 OFFCURVE",
"996 124 OFFCURVE",
"1039 167 CURVE",
"1067 143 LINE",
"996 43 OFFCURVE",
"891 -15 OFFCURVE",
"781 -15 CURVE SMOOTH",
"602 -15 OFFCURVE",
"481 120 OFFCURVE",
"481 318 CURVE SMOOTH",
"481 544 OFFCURVE",
"607 685 OFFCURVE",
"812 685 CURVE SMOOTH",
"965 685 OFFCURVE",
"1077 552 OFFCURVE",
"1076 343 CURVE",
"641 328 LINE",
"641 365 LINE",
"889 382 LINE",
"885 509 OFFCURVE",
"799 625 OFFCURVE",
"719 627 CURVE",
"766 631 LINE"
);
}
);
width = 1101;
}
);
leftKerningGroup = O;
rightKerningGroup = C;
},
{
glyphname = Q.alt;
lastChange = "2016-01-23 18:42:56 +0000";
layers = (
{
background = {
components = (
{
name = O;
}
);
paths = (
{
closed = 1;
nodes = (
"-850 -100 LINE",
"-838 -137 LINE",
"-660 -137 OFFCURVE",
"-505 -264 OFFCURVE",
"-384 -264 CURVE",
"-163 -112 LINE",
"-189 -79 LINE",
"-237 -101 OFFCURVE",
"-281 -111 OFFCURVE",
"-325 -111 CURVE SMOOTH",
"-417 -111 OFFCURVE",
"-550 -57 OFFCURVE",
"-648 -59 CURVE",
"-469 23 LINE",
"-491 56 LINE"
);
},
{
closed = 1;
nodes = (
"188 -84 LINE",
"162 -137 LINE",
"301 -188 OFFCURVE",
"599 -244 OFFCURVE",
"720 -244 CURVE",
"781 -84 LINE",
"641 -97 OFFCURVE",
"422 -97 OFFCURVE",
"287 -89 CURVE",
"531 23 LINE",
"509 56 LINE"
);
}
);
};
components = (
{
name = O;
}
);
layerId = "FABFC9D4-E17A-4CB6-8F8E-4923CD579275";
name = Regular;
paths = (
{
closed = 1;
nodes = (
"385 31 CURVE",
"385 -1 LINE",
"462 -111 OFFCURVE",
"610 -242 OFFCURVE",
"696 -250 CURVE",
"748 -84 LINE",
"602 -62 OFFCURVE",
"521 -39 OFFCURVE"
);
}
);
width = 750;
}
);
},
{
glyphname = a;
lastChange = "2016-02-18 17:18:40 +0000";
layers = (
{
anchors = (
{
name = bottom;
position = "{218, 0}";
},
{
name = ogonek;
position = "{401, 10}";
},
{
name = top;
position = "{228, 574}";
}
);
background = {
paths = (
{
closed = 1;
nodes = (
"-552 58 LINE",
"-561 91 LINE",
"-595 78 LINE",
"-608 97 OFFCURVE",
"-612 117 OFFCURVE",
"-607 173 CURVE SMOOTH",
"-594 320 LINE SMOOTH",
"-582 455 OFFCURVE",
"-662 513 OFFCURVE",
"-764 513 CURVE SMOOTH",
"-816 513 OFFCURVE",
"-869 499 OFFCURVE",
"-923 475 CURVE",
"-975 310 LINE",
"-946 298 LINE",
"-926 344 LINE",
"-901 355 OFFCURVE",
"-868 361 OFFCURVE",
"-837 361 CURVE SMOOTH",
"-769 361 OFFCURVE",
"-741 323 OFFCURVE",
"-746 256 CURVE SMOOTH",
"-756 125 LINE SMOOTH",
"-761 58 OFFCURVE",
"-748 13 OFFCURVE",
"-709 -16 CURVE"
);
},
{
closed = 1;
nodes = (
"-709 230 LINE",
"-973 187 LINE",
"-983 166 OFFCURVE",
"-991 128 OFFCURVE",
"-991 97 CURVE SMOOTH",
"-991 33 OFFCURVE",
"-948 -15 OFFCURVE",
"-890 -15 CURVE SMOOTH",
"-839 -15 OFFCURVE",
"-764 22 OFFCURVE",
"-708 65 CURVE",
"-721 101 LINE",
"-746 77 OFFCURVE",
"-773 65 OFFCURVE",
"-791 65 CURVE SMOOTH",
"-810 65 OFFCURVE",
"-833 83 OFFCURVE",
"-833 127 CURVE SMOOTH",
"-833 142 OFFCURVE",
"-831 157 OFFCURVE",
"-828 167 CURVE",
"-713 195 LINE"
);
},
{
closed = 1;
nodes = (
"-65 52 LINE",
"-77 81 LINE",
"-108 69 LINE",
"-120 88 OFFCURVE",
"-123 101 OFFCURVE",
"-119 155 CURVE SMOOTH",
"-109 290 LINE SMOOTH",
"-100 418 OFFCURVE",
"-177 465 OFFCURVE",
"-266 465 CURVE SMOOTH",
"-311 465 OFFCURVE",
"-360 453 OFFCURVE",
"-409 432 CURVE",
"-455 288 LINE",
"-428 278 LINE",
"-412 312 LINE",
"-390 322 OFFCURVE",
"-358 328 OFFCURVE",
"-332 328 CURVE SMOOTH",
"-269 328 OFFCURVE",
"-245 290 OFFCURVE",
"-248 232 CURVE SMOOTH",
"-255 112 LINE SMOOTH",
"-259 51 OFFCURVE",
"-248 9 OFFCURVE",
"-212 -17 CURVE"
);
},
{
closed = 1;
nodes = (
"-214 208 LINE",
"-456 169 LINE",
"-465 150 OFFCURVE",
"-472 114 OFFCURVE",
"-472 88 CURVE SMOOTH",
"-472 28 OFFCURVE",
"-433 -15 OFFCURVE",
"-379 -15 CURVE SMOOTH",
"-333 -15 OFFCURVE",
"-264 18 OFFCURVE",
"-213 57 CURVE",
"-225 90 LINE",
"-248 68 OFFCURVE",
"-273 57 OFFCURVE",
"-289 57 CURVE SMOOTH",
"-307 57 OFFCURVE",
"-327 72 OFFCURVE",
"-327 116 CURVE SMOOTH",
"-327 126 OFFCURVE",
"-326 141 OFFCURVE",
"-323 151 CURVE",
"-218 176 LINE"
);
},
{
closed = 1;
nodes = (
"435 52 LINE",
"423 81 LINE",
"392 69 LINE",
"380 88 OFFCURVE",
"377 101 OFFCURVE",
"381 155 CURVE SMOOTH",
"391 290 LINE SMOOTH",
"400 418 OFFCURVE",
"323 465 OFFCURVE",
"234 465 CURVE SMOOTH",
"189 465 OFFCURVE",
"140 453 OFFCURVE",
"91 432 CURVE",
"45 288 LINE",
"72 278 LINE",
"88 312 LINE",
"110 322 OFFCURVE",
"142 328 OFFCURVE",
"168 328 CURVE SMOOTH",
"231 328 OFFCURVE",
"255 290 OFFCURVE",
"252 232 CURVE SMOOTH",
"245 112 LINE SMOOTH",
"241 51 OFFCURVE",
"252 9 OFFCURVE",
"288 -17 CURVE"
);
},
{
closed = 1;
nodes = (
"286 208 LINE",
"44 169 LINE",
"35 150 OFFCURVE",
"28 114 OFFCURVE",
"28 88 CURVE SMOOTH",
"28 28 OFFCURVE",
"67 -15 OFFCURVE",
"121 -15 CURVE SMOOTH",
"167 -15 OFFCURVE",
"236 18 OFFCURVE",
"287 57 CURVE",
"275 90 LINE",
"252 68 OFFCURVE",
"227 57 OFFCURVE",
"211 57 CURVE SMOOTH",
"193 57 OFFCURVE",
"173 72 OFFCURVE",
"173 116 CURVE SMOOTH",
"173 126 OFFCURVE",
"174 141 OFFCURVE",
"177 151 CURVE",
"282 176 LINE"
);
}
);
};
guideLines = (
{
angle = 269.648;
position = "{232, 498}";
}
);
layerId = "FABFC9D4-E17A-4CB6-8F8E-4923CD579275";
name = Regular;
paths = (
{
closed = 1;
nodes = (
"438 52 LINE",
"426 81 LINE",
"395 69 LINE",
"383 88 OFFCURVE",
"380 101 OFFCURVE",
"384 155 CURVE SMOOTH",
"394 290 LINE SMOOTH",
"403 418 OFFCURVE",
"325 465 OFFCURVE",
"234 465 CURVE SMOOTH",
"188 465 OFFCURVE",
"137 453 OFFCURVE",
"88 432 CURVE",
"42 288 LINE",
"69 278 LINE",
"85 312 LINE",
"107 322 OFFCURVE",
"141 328 OFFCURVE",
"168 328 CURVE SMOOTH",
"233 328 OFFCURVE",
"258 290 OFFCURVE",
"255 232 CURVE SMOOTH",
"248 112 LINE SMOOTH",
"244 51 OFFCURVE",
"255 9 OFFCURVE",
"291 -17 CURVE"
);
},
{
closed = 1;
nodes = (
"286 208 LINE",
"41 169 LINE",
"32 150 OFFCURVE",
"25 114 OFFCURVE",
"25 88 CURVE SMOOTH",
"25 28 OFFCURVE",
"64 -15 OFFCURVE",
"118 -15 CURVE SMOOTH",
"164 -15 OFFCURVE",
"235 18 OFFCURVE",
"287 57 CURVE",
"275 90 LINE",
"252 68 OFFCURVE",
"227 57 OFFCURVE",
"211 57 CURVE SMOOTH",
"192 57 OFFCURVE",
"170 72 OFFCURVE",
"170 116 CURVE SMOOTH",
"170 126 OFFCURVE",
"171 141 OFFCURVE",
"174 151 CURVE",
"282 176 LINE"
);
}
);
width = 440;
}
);
leftKerningGroup = a;
rightKerningGroup = a;
unicode = 0061;
},
{
glyphname = aogonek;
lastChange = "2016-02-18 17:18:40 +0000";
layers = (
{
anchors = (
{
name = _ogonek;
position = "{411, -37}";
}
);
components = (
{
name = a;
}
);
layerId = "FABFC9D4-E17A-4CB6-8F8E-4923CD579275";
name = Regular;
paths = (
{
closed = 1;
nodes = (
"302 12 OFFCURVE",
"243 -61 OFFCURVE",
"243 -133 CURVE SMOOTH",
"243 -202 OFFCURVE",
"290 -251 OFFCURVE",
"355 -251 CURVE SMOOTH",
"394 -251 OFFCURVE",
"427 -237 OFFCURVE",
"453 -218 CURVE",
"445 -193 LINE",
"378 -201 OFFCURVE",
"346 -157 OFFCURVE",
"346 -102 CURVE SMOOTH",
"346 -44 OFFCURVE",
"382 20 OFFCURVE",
"446 52 CURVE",
"431 52 LINE"
);
}
);
width = 459;
}
);
leftKerningGroup = a;
rightKerningGroup = a;
unicode = 0105;
},
{
glyphname = ae;
lastChange = "2016-02-18 17:18:44 +0000";
layers = (
{
background = {
paths = (
{
closed = 1;
nodes = (
"298 208 LINE",
"56 169 LINE",
"47 150 OFFCURVE",
"40 114 OFFCURVE",
"40 88 CURVE SMOOTH",
"40 28 OFFCURVE",
"79 -15 OFFCURVE",
"133 -15 CURVE SMOOTH",
"185 -15 OFFCURVE",
"268 14 OFFCURVE",
"321 52 CURVE",
"307 83 LINE",
"281 66 OFFCURVE",
"252 57 OFFCURVE",
"225 57 CURVE SMOOTH",
"199 57 OFFCURVE",
"185 79 OFFCURVE",
"185 116 CURVE SMOOTH",
"185 126 OFFCURVE",
"186 141 OFFCURVE",
"189 151 CURVE",
"294 176 LINE"
);
},
{
closed = 1;
nodes = (
"403 325 OFFCURVE",
"426 395 OFFCURVE",
"460 428 CURVE",
"440 425 LINE",
"484 424 OFFCURVE",
"518 355 OFFCURVE",
"520 263 CURVE",
"393 252 LINE",
"393 220 LINE",
"677 230 LINE",
"678 374 OFFCURVE",
"605 465 OFFCURVE",
"489 465 CURVE SMOOTH",
"333 465 OFFCURVE",
"268 355 OFFCURVE",
"268 209 CURVE",
"268 186 LINE SMOOTH",
"268 66 OFFCURVE",
"332 -15 OFFCURVE",
"459 -15 CURVE SMOOTH",
"545 -15 OFFCURVE",
"628 36 OFFCURVE",
"675 117 CURVE",
"657 133 LINE",
"626 114 OFFCURVE",
"585 103 OFFCURVE",
"545 103 CURVE SMOOTH",
"451 103 OFFCURVE",
"401 156 OFFCURVE",
"401 255 CURVE SMOOTH"
);
},
{
closed = 1;
nodes = (
"412 418 OFFCURVE",
"335 465 OFFCURVE",
"246 465 CURVE SMOOTH",
"201 465 OFFCURVE",
"152 453 OFFCURVE",
"103 432 CURVE",
"57 288 LINE",
"84 278 LINE",
"100 312 LINE",
"122 322 OFFCURVE",
"154 328 OFFCURVE",
"180 328 CURVE SMOOTH",
"247 328 OFFCURVE",
"272 290 OFFCURVE",
"268 209 CURVE",
"403 290 LINE"
);
}
);
};
layerId = "FABFC9D4-E17A-4CB6-8F8E-4923CD579275";
name = Regular;
paths = (
{
closed = 1;
nodes = (
"298 208 LINE",
"56 169 LINE",
"47 150 OFFCURVE",
"40 114 OFFCURVE",
"40 88 CURVE SMOOTH",
"40 28 OFFCURVE",
"79 -15 OFFCURVE",
"133 -15 CURVE SMOOTH",
"185 -15 OFFCURVE",
"268 16 OFFCURVE",
"321 59 CURVE",
"307 90 LINE",
"281 68 OFFCURVE",
"252 57 OFFCURVE",
"225 57 CURVE SMOOTH",
"199 57 OFFCURVE",
"185 79 OFFCURVE",
"185 116 CURVE SMOOTH",
"185 126 OFFCURVE",
"186 141 OFFCURVE",
"189 151 CURVE",
"294 176 LINE"
);
},
{
closed = 1;
nodes = (
"395 325 OFFCURVE",
"424 395 OFFCURVE",
"460 428 CURVE",
"440 425 LINE",
"480 424 OFFCURVE",
"510 355 OFFCURVE",
"512 263 CURVE",
"393 253 LINE",
"393 220 LINE",
"669 230 LINE",
"670 374 OFFCURVE",
"600 465 OFFCURVE",
"489 465 CURVE SMOOTH",
"340 465 OFFCURVE",
"265 372 OFFCURVE",
"265 186 CURVE SMOOTH",
"265 56 OFFCURVE",
"332 -15 OFFCURVE",
"459 -15 CURVE SMOOTH",
"542 -15 OFFCURVE",
"620 36 OFFCURVE",
"667 117 CURVE",
"649 133 LINE",
"618 114 OFFCURVE",
"582 103 OFFCURVE",
"545 103 CURVE SMOOTH",
"447 103 OFFCURVE",
"395 151 OFFCURVE",
"395 255 CURVE SMOOTH"
);
},
{
closed = 1;
nodes = (
"372 410 LINE",
"344 449 OFFCURVE",
"297 465 OFFCURVE",
"246 465 CURVE SMOOTH",
"201 465 OFFCURVE",
"152 453 OFFCURVE",
"103 432 CURVE",
"57 288 LINE",
"84 278 LINE",
"100 312 LINE",
"122 322 OFFCURVE",
"154 328 OFFCURVE",
"180 328 CURVE SMOOTH",
"245 328 OFFCURVE",
"266 290 OFFCURVE",
"265 209 CURVE",
"357 264 LINE"
);
}
);
width = 712;
}
);
leftKerningGroup = a;
rightKerningGroup = e;
unicode = 00E6;
},
{
glyphname = b;
lastChange = "2016-02-14 18:55:52 +0000";
layers = (
{
background = {
paths = (
{
closed = 1;
nodes = (
"-410 707 LINE",
"-593 647 LINE",
"-584 619 LINE",
"-546 627 LINE",
"-546 0 LINE",
"-521 0 LINE",
"-469 89 LINE",
"-410 142 LINE"
);
},
{
closed = 1;
nodes = (
"-147 121 OFFCURVE",
"-129 193 OFFCURVE",
"-129 262 CURVE SMOOTH",
"-129 388 OFFCURVE",
"-189 465 OFFCURVE",
"-311 465 CURVE",
"-433 322 LINE",
"-419 296 LINE",
"-365 350 LINE",
"-311 350 OFFCURVE",
"-269 310 OFFCURVE",
"-269 202 CURVE SMOOTH",
"-269 146 OFFCURVE",
"-280 86 OFFCURVE",
"-297 44 CURVE",
"-271 58 LINE",
"-315 68 OFFCURVE",
"-381 111 OFFCURVE",
"-430 177 CURVE",
"-483 66 LINE",
"-442 14 OFFCURVE",
"-357 -15 OFFCURVE",
"-321 -15 CURVE SMOOTH",
"-278 -15 OFFCURVE",
"-195 44 OFFCURVE",
"-171 83 CURVE SMOOTH"
);
},
{
closed = 1;
nodes = (
"190 707 LINE",
"7 647 LINE",
"16 619 LINE",
"54 627 LINE",
"54 37 LINE",
"190 58 LINE"
);
},
{
closed = 1;
nodes = (
"459 115 OFFCURVE",
"484 192 OFFCURVE",
"484 260 CURVE SMOOTH",
"484 378 OFFCURVE",
"405 465 OFFCURVE",
"289 465 CURVE",
"167 322 LINE",
"181 296 LINE",
"235 350 LINE",
"291 350 OFFCURVE",
"344 296 OFFCURVE",
"344 200 CURVE SMOOTH",
"344 145 OFFCURVE",
"333 85 OFFCURVE",
"308 44 CURVE",
"334 58 LINE",
"275 65 OFFCURVE",
"186 100 OFFCURVE",
"136 136 CURVE",
"55 37 LINE",
"101 12 OFFCURVE",
"217 -15 OFFCURVE",
"275 -15 CURVE SMOOTH",
"321 -15 OFFCURVE",
"403 38 OFFCURVE",
"428 73 CURVE"
);
}
);
};
layerId = "FABFC9D4-E17A-4CB6-8F8E-4923CD579275";
name = Regular;
paths = (
{
closed = 1;
nodes = (
"460 105 OFFCURVE",
"486 192 OFFCURVE",
"486 260 CURVE SMOOTH",
"486 378 OFFCURVE",
"406 465 OFFCURVE",
"289 465 CURVE",
"167 322 LINE",
"181 296 LINE",
"235 350 LINE",
"290 350 OFFCURVE",
"342 296 OFFCURVE",
"342 200 CURVE SMOOTH",
"342 145 OFFCURVE",
"332 85 OFFCURVE",
"308 44 CURVE",
"334 58 LINE",
"275 65 OFFCURVE",
"186 100 OFFCURVE",
"136 136 CURVE",
"51 37 LINE",
"98 12 OFFCURVE",
"216 -15 OFFCURVE",
"275 -15 CURVE SMOOTH",
"321 -15 OFFCURVE",
"403 28 OFFCURVE",
"428 63 CURVE"
);
},
{
closed = 1;
nodes = (
"192 59 LINE",
"199 684 LINE",
"185 708 LINE",
"0 652 LINE",
"10 623 LINE",
"48 631 LINE",
"51 37 LINE"
);
}
);
width = 521;
}
);
unicode = 0062;
},
{
glyphname = c;
lastChange = "2016-02-20 18:21:11 +0000";
layers = (
{
anchors = (
{
name = bottom;
position = "{229, -80}";
},
{
name = top;
position = "{251, 574}";
}
);
background = {
paths = (
{
closed = 1;
nodes = (
"-2070 -15 OFFCURVE",
"-1983 55 OFFCURVE",
"-1938 121 CURVE",
"-1960 142 LINE",
"-2008 123 OFFCURVE",
"-2045 116 OFFCURVE",
"-2082 116 CURVE SMOOTH",
"-2155 116 OFFCURVE",
"-2216 170 OFFCURVE",
"-2216 291 CURVE SMOOTH",
"-2216 368 OFFCURVE",
"-2196 435 OFFCURVE",
"-2175 468 CURVE",
"-2143 458 OFFCURVE",
"-2101 359 OFFCURVE",
"-2086 285 CURVE",
"-1934 339 LINE",
"-1954 441 OFFCURVE",
"-2019 512 OFFCURVE",
"-2130 510 CURVE SMOOTH",
"-2280 507 OFFCURVE",
"-2380 402 OFFCURVE",
"-2380 231 CURVE SMOOTH",
"-2380 78 OFFCURVE",
"-2284 -15 OFFCURVE",
"-2166 -15 CURVE SMOOTH"
);
},
{
closed = 1;
nodes = (
"-1464 -15 OFFCURVE",
"-1371 59 OFFCURVE",
"-1330 128 CURVE",
"-1354 148 LINE",
"-1396 126 OFFCURVE",
"-1428 116 OFFCURVE",
"-1468 116 CURVE SMOOTH",
"-1551 116 OFFCURVE",
"-1616 170 OFFCURVE",
"-1616 291 CURVE SMOOTH",
"-1616 368 OFFCURVE",
"-1596 435 OFFCURVE",
"-1575 468 CURVE",
"-1544 446 OFFCURVE",
"-1496 371 OFFCURVE",
"-1466 303 CURVE",
"-1340 381 LINE",
"-1374 451 OFFCURVE",
"-1449 510 OFFCURVE",
"-1530 510 CURVE SMOOTH",
"-1680 507 OFFCURVE",
"-1780 402 OFFCURVE",
"-1780 231 CURVE SMOOTH",
"-1780 78 OFFCURVE",
"-1684 -15 OFFCURVE",
"-1557 -15 CURVE SMOOTH"
);
},
{
closed = 1;
nodes = (
"-964 105 OFFCURVE",
"-1028 154 OFFCURVE",
"-1028 265 CURVE SMOOTH",
"-1028 335 OFFCURVE",
"-1007 396 OFFCURVE",
"-977 427 CURVE",
"-949 407 OFFCURVE",
"-906 338 OFFCURVE",
"-879 276 CURVE",
"-764 347 LINE",
"-795 411 OFFCURVE",
"-863 465 OFFCURVE",
"-936 465 CURVE SMOOTH",
"-995 465 OFFCURVE",
"-1046 451 OFFCURVE",
"-1098 425 CURVE",
"-1144 374 OFFCURVE",
"-1173 299 OFFCURVE",
"-1173 210 CURVE SMOOTH",
"-1173 71 OFFCURVE",
"-1083 -15 OFFCURVE",
"-970 -15 CURVE SMOOTH",
"-864 -15 OFFCURVE",
"-783 55 OFFCURVE",
"-745 124 CURVE",
"-764 140 LINE",
"-796 118 OFFCURVE",
"-842 105 OFFCURVE",
"-887 105 CURVE SMOOTH"
);
},
{
closed = 1;
nodes = (
"-367 105 OFFCURVE",
"-424 154 OFFCURVE",
"-424 265 CURVE SMOOTH",
"-424 347 OFFCURVE",
"-397 417 OFFCURVE",
"-362 440 CURVE",
"-389 434 LINE",
"-366 429 OFFCURVE",
"-309 343 OFFCURVE",
"-282 276 CURVE",
"-169 347 LINE",
"-200 411 OFFCURVE",
"-265 465 OFFCURVE",
"-336 465 CURVE SMOOTH",
"-393 465 OFFCURVE",
"-441 451 OFFCURVE",
"-493 425 CURVE",
"-539 374 OFFCURVE",
"-568 299 OFFCURVE",
"-568 210 CURVE SMOOTH",
"-568 71 OFFCURVE",
"-480 -15 OFFCURVE",
"-370 -15 CURVE SMOOTH",
"-266 -15 OFFCURVE",
"-188 55 OFFCURVE",
"-150 124 CURVE",
"-169 140 LINE",
"-201 118 OFFCURVE",
"-247 105 OFFCURVE",
"-292 105 CURVE SMOOTH"
);
},
{
closed = 1;
nodes = (
"219 107 OFFCURVE",
"174 165 OFFCURVE",
"177 267 CURVE SMOOTH",
"179 343 OFFCURVE",
"209 418 OFFCURVE",
"246 440 CURVE",
"218 435 LINE",
"240 429 OFFCURVE",
"294 343 OFFCURVE",
"320 273 CURVE",
"435 340 LINE",
"398 421 OFFCURVE",
"335 465 OFFCURVE",
"256 465 CURVE SMOOTH",
"211 465 OFFCURVE",
"159 452 OFFCURVE",
"114 430 CURVE",
"64 379 OFFCURVE",
"32 293 OFFCURVE",
"32 209 CURVE SMOOTH",
"32 75 OFFCURVE",
"111 -15 OFFCURVE",
"229 -15 CURVE SMOOTH",
"315 -15 OFFCURVE",
"399 36 OFFCURVE",
"446 117 CURVE",
"428 133 LINE",
"394 112 OFFCURVE",
"348 101 OFFCURVE",
"304 103 CURVE SMOOTH"
);
}
);
};
backgroundImage = {
crop = "{{0, 0}, {3024, 4032}}";
imagePath = ../../../../var/folders/xp/9k2g5rln0g3214w24ld01r0h0000gn/T/com.apple.iChat/Messages/Transfers/IMG_0293.JPG;
locked = "1";
transform = "{0.465, 0, 0, 0.465, -729, -193}";
};
guideLines = (
{
position = "{15, 495}";
}
);
layerId = "FABFC9D4-E17A-4CB6-8F8E-4923CD579275";
name = Regular;
paths = (
{
closed = 1;
nodes = (
"219 107 OFFCURVE",
"174 165 OFFCURVE",
"177 267 CURVE SMOOTH",
"179 343 OFFCURVE",
"209 418 OFFCURVE",
"246 440 CURVE",
"218 435 LINE",
"240 429 OFFCURVE",
"294 343 OFFCURVE",
"320 273 CURVE",
"435 340 LINE",
"398 421 OFFCURVE",
"335 465 OFFCURVE",
"256 465 CURVE SMOOTH",
"211 465 OFFCURVE",
"159 452 OFFCURVE",
"114 430 CURVE",
"64 379 OFFCURVE",
"32 293 OFFCURVE",
"32 209 CURVE SMOOTH",
"32 75 OFFCURVE",
"111 -15 OFFCURVE",
"229 -15 CURVE SMOOTH",
"315 -15 OFFCURVE",
"399 36 OFFCURVE",
"446 117 CURVE",
"428 133 LINE",
"394 112 OFFCURVE",
"348 101 OFFCURVE",
"304 103 CURVE SMOOTH"
);
}
);
width = 450;
}
);
leftKerningGroup = c;
rightKerningGroup = c;
unicode = 0063;
},
{
glyphname = d;
lastChange = "2016-02-20 18:19:42 +0000";
layers = (
{
anchors = (
{
name = bottom;
position = "{276, -80}";
},
{
name = center;
position = "{263, 245}";
},
{
name = top;
position = "{389, 770}";
},
{
name = topright;
position = "{516, 670}";
}
);
background = {
paths = (
{
closed = 1;
nodes = (
"1579 1503 OFFCURVE",
"1528 1513 OFFCURVE",
"1472 1513 CURVE SMOOTH",
"1396 1513 OFFCURVE",
"1327 1471 OFFCURVE",
"1276 1415 CURVE",
"1252 1362 OFFCURVE",
"1239 1306 OFFCURVE",
"1239 1224 CURVE SMOOTH",
"1239 1067 OFFCURVE",
"1308 993 OFFCURVE",
"1396 993 CURVE SMOOTH",
"1465 993 OFFCURVE",
"1550 1066 OFFCURVE",
"1611 1138 CURVE",
"1599 1170 LINE",
"1579 1148 OFFCURVE",
"1533 1105 OFFCURVE",
"1501 1105 CURVE SMOOTH",
"1448 1105 OFFCURVE",
"1402 1144 OFFCURVE",
"1402 1283 CURVE SMOOTH",
"1402 1385 OFFCURVE",
"1407 1432 OFFCURVE",
"1413 1465 CURVE",
"1479 1471 OFFCURVE",
"1540 1462 OFFCURVE",
"1590 1432 CURVE",
"1632 1486 LINE"
);
},
{
closed = 1;
nodes = (
"1753 1077 LINE",
"1741 1109 LINE",
"1708 1093 LINE",
"1694 1111 OFFCURVE",
"1688 1131 OFFCURVE",
"1688 1187 CURVE SMOOTH",
"1688 1775 LINE",
"1543 1697 LINE",
"1543 1126 LINE SMOOTH",
"1543 1058 OFFCURVE",
"1561 1015 OFFCURVE",
"1603 990 CURVE"
);
},
{
closed = 1;
nodes = (
"-939 1467 OFFCURVE",
"-989 1497 OFFCURVE",
"-1048 1513 CURVE",
"-1215 1476 LINE",
"-1240 1391 OFFCURVE",
"-1251 1315 OFFCURVE",
"-1251 1235 CURVE SMOOTH",
"-1251 1065 OFFCURVE",
"-1181 993 OFFCURVE",
"-1112 993 CURVE SMOOTH",
"-1041 993 OFFCURVE",
"-954 1064 OFFCURVE",
"-889 1138 CURVE",
"-901 1167 LINE",
"-923 1142 OFFCURVE",
"-971 1102 OFFCURVE",
"-1012 1102 CURVE SMOOTH",
"-1055 1102 OFFCURVE",
"-1088 1152 OFFCURVE",
"-1088 1269 CURVE SMOOTH",
"-1088 1344 OFFCURVE",
"-1080 1405 OFFCURVE",
"-1064 1467 CURVE",
"-1008 1455 OFFCURVE",
"-952 1429 OFFCURVE",
"-907 1396 CURVE",
"-887 1421 LINE"
);
},
{
closed = 1;
nodes = (
"-812 1685 OFFCURVE",
"-816 1751 OFFCURVE",
"-825 1800 CURVE",
"-1035 1694 LINE",
"-1025 1662 LINE",
"-970 1679 LINE",
"-962 1651 OFFCURVE",
"-957 1595 OFFCURVE",
"-957 1529 CURVE SMOOTH",
"-957 1126 LINE SMOOTH",
"-957 1058 OFFCURVE",
"-939 1015 OFFCURVE",
"-897 990 CURVE",
"-747 1077 LINE",
"-759 1109 LINE",
"-792 1093 LINE",
"-806 1111 OFFCURVE",
"-812 1131 OFFCURVE",
"-812 1187 CURVE SMOOTH",
"-812 1595 LINE SMOOTH"
);
},
{
closed = 1;
nodes = (
"-2164 1516 OFFCURVE",
"-2297 1514 OFFCURVE",
"-2415 1504 CURVE",
"-2440 1409 OFFCURVE",
"-2451 1324 OFFCURVE",
"-2451 1235 CURVE SMOOTH",
"-2451 1065 OFFCURVE",
"-2381 993 OFFCURVE",
"-2312 993 CURVE SMOOTH",
"-2241 993 OFFCURVE",
"-2154 1064 OFFCURVE",
"-2089 1138 CURVE",
"-2101 1167 LINE",
"-2123 1142 OFFCURVE",
"-2171 1102 OFFCURVE",
"-2212 1102 CURVE SMOOTH",
"-2255 1102 OFFCURVE",
"-2288 1152 OFFCURVE",
"-2288 1269 CURVE SMOOTH",
"-2288 1344 OFFCURVE",
"-2280 1405 OFFCURVE",
"-2264 1467 CURVE",
"-2208 1468 OFFCURVE",
"-2155 1467 OFFCURVE",
"-2103 1464 CURVE",
"-2095 1502 LINE"
);
},
{
closed = 1;
nodes = (
"-2012 1685 OFFCURVE",
"-2016 1751 OFFCURVE",
"-2025 1800 CURVE",
"-2235 1694 LINE",
"-2225 1662 LINE",
"-2170 1679 LINE",
"-2162 1654 OFFCURVE",
"-2157 1603 OFFCURVE",
"-2157 1544 CURVE SMOOTH",
"-2157 1126 LINE SMOOTH",
"-2157 1058 OFFCURVE",
"-2139 1015 OFFCURVE",
"-2097 990 CURVE",
"-1947 1077 LINE",
"-1959 1109 LINE",
"-1992 1093 LINE",
"-2006 1111 OFFCURVE",
"-2012 1131 OFFCURVE",
"-2012 1187 CURVE SMOOTH",
"-2012 1595 LINE SMOOTH"
);
},
{
closed = 1;
nodes = (
"-1548 1186 LINE",
"-1577 1150 OFFCURVE",
"-1608 1125 OFFCURVE",
"-1631 1113 CURVE",
"-1661 1113 OFFCURVE",
"-1688 1153 OFFCURVE",
"-1688 1269 CURVE SMOOTH",
"-1688 1344 OFFCURVE",
"-1680 1405 OFFCURVE",
"-1664 1467 CURVE",
"-1624 1470 OFFCURVE",
"-1551 1461 OFFCURVE",
"-1498 1443 CURVE",
"-1488 1474 LINE",
"-1535 1498 OFFCURVE",
"-1584 1513 OFFCURVE",
"-1648 1513 CURVE SMOOTH",
"-1704 1513 OFFCURVE",
"-1777 1494 OFFCURVE",
"-1815 1476 CURVE",
"-1840 1391 OFFCURVE",
"-1851 1315 OFFCURVE",
"-1851 1235 CURVE SMOOTH",
"-1851 1065 OFFCURVE",
"-1781 993 OFFCURVE",
"-1712 993 CURVE",
"-1644 1036 OFFCURVE",
"-1579 1092 OFFCURVE",
"-1531 1153 CURVE"
);
},
{
closed = 1;
nodes = (
"-1412 1685 OFFCURVE",
"-1416 1751 OFFCURVE",
"-1425 1800 CURVE",
"-1635 1694 LINE",
"-1625 1662 LINE",
"-1570 1679 LINE",
"-1562 1651 OFFCURVE",
"-1557 1595 OFFCURVE",
"-1557 1529 CURVE SMOOTH",
"-1557 1126 LINE SMOOTH",
"-1557 1058 OFFCURVE",
"-1539 1015 OFFCURVE",
"-1497 990 CURVE",
"-1347 1077 LINE",
"-1359 1109 LINE",
"-1392 1093 LINE",
"-1406 1111 OFFCURVE",
"-1412 1131 OFFCURVE",
"-1412 1187 CURVE SMOOTH",
"-1412 1595 LINE SMOOTH"
);
},
{
closed = 1;
nodes = (
"2136 1126 LINE SMOOTH",
"2136 1058 OFFCURVE",
"2156 1015 OFFCURVE",
"2203 990 CURVE",
"2353 1077 LINE",
"2341 1109 LINE",
"2308 1093 LINE",
"2294 1111 OFFCURVE",
"2288 1131 OFFCURVE",
"2288 1187 CURVE SMOOTH",
"2288 1790 LINE",
"2074 1709 LINE",
"2084 1677 LINE",
"2136 1688 LINE"
);
},
{
closed = 1;
nodes = (
"1977 1511 LINE",
"1843 1400 LINE",
"1828 1362 OFFCURVE",
"1821 1328 OFFCURVE",
"1821 1270 CURVE SMOOTH",
"1821 1118 OFFCURVE",
"1940 1017 OFFCURVE",
"2032 990 CURVE",
"2103 1034 OFFCURVE",
"2171 1097 OFFCURVE",
"2234 1155 CURVE",
"2213 1178 LINE",
"2177 1146 OFFCURVE",
"2142 1123 OFFCURVE",
"2106 1108 CURVE",
"2020 1170 OFFCURVE",
"1980 1242 OFFCURVE",
"1980 1359 CURVE SMOOTH",
"1980 1369 OFFCURVE",
"1982 1380 OFFCURVE",
"1983 1390 CURVE",
"2197 1394 LINE",
"2172 1513 LINE"
);
},
{
closed = 1;
nodes = (
"2779 1503 OFFCURVE",
"2718 1515 OFFCURVE",
"2657 1515 CURVE SMOOTH",
"2638 1515 OFFCURVE",
"2618 1514 OFFCURVE",
"2600 1511 CURVE",
"2466 1412 LINE",
"2454 1353 OFFCURVE",
"2446 1294 OFFCURVE",
"2446 1225 CURVE SMOOTH",
"2446 1065 OFFCURVE",
"2519 993 OFFCURVE",
"2588 993 CURVE SMOOTH",
"2639 993 OFFCURVE",
"2746 1060 OFFCURVE",
"2811 1125 CURVE",
"2799 1156 LINE",
"2777 1134 OFFCURVE",
"2729 1098 OFFCURVE",
"2688 1098 CURVE SMOOTH",
"2645 1098 OFFCURVE",
"2609 1152 OFFCURVE",
"2609 1269 CURVE SMOOTH",
"2609 1342 OFFCURVE",
"2620 1393 OFFCURVE",
"2635 1455 CURVE",
"2595 1395 LINE",
"2669 1399 OFFCURVE",
"2730 1394 OFFCURVE",
"2793 1379 CURVE",
"2809 1483 LINE"
);
},
{
closed = 1;
nodes = (
"2888 1685 OFFCURVE",
"2884 1751 OFFCURVE",
"2875 1800 CURVE",
"2665 1694 LINE",
"2675 1662 LINE",
"2730 1679 LINE",
"2738 1654 OFFCURVE",
"2743 1603 OFFCURVE",
"2743 1544 CURVE SMOOTH",
"2743 1126 LINE SMOOTH",
"2743 1058 OFFCURVE",
"2761 1015 OFFCURVE",
"2803 990 CURVE",
"2955 1079 LINE",
"2941 1109 LINE",
"2908 1093 LINE",
"2894 1111 OFFCURVE",
"2888 1131 OFFCURVE",
"2888 1187 CURVE SMOOTH",
"2888 1595 LINE SMOOTH"
);
},
{
closed = 1;
nodes = (
"3145 1342 OFFCURVE",
"3138 1269 OFFCURVE",
"3138 1225 CURVE SMOOTH",
"3138 1061 OFFCURVE",
"3213 986 OFFCURVE",
"3324 986 CURVE",
"3486 1128 LINE",
"3479 1159 LINE",
"3402 1105 LINE",
"3335 1105 OFFCURVE",
"3283 1158 OFFCURVE",
"3283 1293 CURVE SMOOTH",
"3283 1333 OFFCURVE",
"3287 1380 OFFCURVE",
"3292 1418 CURVE",
"3231 1382 LINE",
"3334 1394 OFFCURVE",
"3404 1384 OFFCURVE",
"3491 1348 CURVE",
"3511 1492 LINE",
"3469 1507 OFFCURVE",
"3425 1516 OFFCURVE",
"3381 1516 CURVE SMOOTH",
"3323 1516 OFFCURVE",
"3268 1505 OFFCURVE",
"3231 1490 CURVE",
"3156 1394 LINE"
);
},
{
closed = 1;
nodes = (
"3588 1790 LINE",
"3384 1724 LINE",
"3394 1692 LINE",
"3436 1701 LINE",
"3436 1125 LINE",
"3436 1057 OFFCURVE",
"3454 1015 OFFCURVE",
"3496 990 CURVE",
"3655 1079 LINE",
"3641 1109 LINE",
"3608 1093 LINE",
"3594 1111 OFFCURVE",
"3588 1131 OFFCURVE",
"3588 1187 CURVE"
);
},
{
closed = 1;
nodes = (
"655 1314 OFFCURVE",
"649 1243 OFFCURVE",
"649 1200 CURVE SMOOTH",
"649 1053 OFFCURVE",
"722 986 OFFCURVE",
"831 986 CURVE",
"976 1113 LINE",
"970 1141 LINE",
"901 1096 LINE",
"833 1096 OFFCURVE",
"781 1139 OFFCURVE",
"781 1264 CURVE SMOOTH",
"781 1296 OFFCURVE",
"784 1339 OFFCURVE",
"789 1373 CURVE",
"739 1357 LINE",
"806 1353 OFFCURVE",
"906 1336 OFFCURVE",
"980 1310 CURVE",
"998 1440 LINE",
"956 1453 OFFCURVE",
"900 1461 OFFCURVE",
"873 1461 CURVE SMOOTH",
"797 1461 OFFCURVE",
"689 1398 OFFCURVE",
"665 1364 CURVE"
);
},
{
closed = 1;
nodes = (
"1067 1707 LINE",
"884 1647 LINE",
"893 1619 LINE",
"931 1627 LINE",
"931 1111 LINE",
"931 1050 OFFCURVE",
"947 1012 OFFCURVE",
"985 990 CURVE",
"1127 1069 LINE",
"1115 1096 LINE",
"1085 1082 LINE",
"1073 1098 OFFCURVE",
"1067 1116 OFFCURVE",
"1067 1166 CURVE"
);
},
{
closed = 1;
nodes = (
"-133 1707 LINE",
"-316 1647 LINE",
"-307 1619 LINE",
"-269 1627 LINE",
"-269 1111 LINE",
"-269 1050 OFFCURVE",
"-253 1012 OFFCURVE",
"-215 990 CURVE",
"-73 1069 LINE",
"-85 1096 LINE",
"-115 1082 LINE",
"-127 1098 OFFCURVE",
"-133 1116 OFFCURVE",
"-133 1166 CURVE"
);
},
{
closed = 1;
nodes = (
"-534 1327 OFFCURVE",
"-550 1246 OFFCURVE",
"-550 1196 CURVE SMOOTH",
"-550 1058 OFFCURVE",
"-490 985 OFFCURVE",
"-368 985 CURVE",
"-246 1128 LINE",
"-260 1154 LINE",
"-314 1100 LINE",
"-368 1100 OFFCURVE",
"-410 1143 OFFCURVE",
"-410 1244 CURVE SMOOTH",
"-410 1308 OFFCURVE",
"-399 1363 OFFCURVE",
"-382 1406 CURVE",
"-408 1392 LINE",
"-364 1382 OFFCURVE",
"-298 1339 OFFCURVE",
"-249 1273 CURVE",
"-196 1384 LINE",
"-237 1434 OFFCURVE",
"-310 1465 OFFCURVE",
"-372 1465 CURVE SMOOTH",
"-398 1465 OFFCURVE",
"-488 1401 OFFCURVE",
"-508 1367 CURVE"
);
},
{
closed = 1;
nodes = (
"62 1331 OFFCURVE",
"40 1263 OFFCURVE",
"40 1198 CURVE SMOOTH",
"40 1066 OFFCURVE",
"103 985 OFFCURVE",
"232 985 CURVE",
"354 1128 LINE",
"340 1154 LINE",
"286 1100 LINE",
"226 1100 OFFCURVE",
"180 1143 OFFCURVE",
"180 1258 CURVE SMOOTH",
"180 1310 OFFCURVE",
"195 1367 OFFCURVE",
"218 1406 CURVE",
"192 1392 LINE",
"251 1385 OFFCURVE",
"336 1350 OFFCURVE",
"385 1314 CURVE",
"466 1413 LINE",
"421 1438 OFFCURVE",
"309 1465 OFFCURVE",
"251 1465 CURVE SMOOTH",
"205 1465 OFFCURVE",
"117 1406 OFFCURVE",
"92 1367 CURVE SMOOTH"
);
},
{
closed = 1;
nodes = (
"467 1707 LINE",
"284 1647 LINE",
"293 1619 LINE",
"331 1627 LINE",
"331 1111 LINE",
"331 1050 OFFCURVE",
"347 1012 OFFCURVE",
"385 990 CURVE",
"527 1069 LINE",
"515 1096 LINE",
"485 1082 LINE",
"473 1098 OFFCURVE",
"467 1116 OFFCURVE",
"467 1166 CURVE"
);
},
{
closed = 1;
nodes = (
"467 707 LINE",
"284 647 LINE",
"293 619 LINE",
"331 627 LINE",
"331 111 LINE",
"331 50 OFFCURVE",
"347 12 OFFCURVE",
"385 -10 CURVE",
"527 69 LINE",
"515 96 LINE",
"485 82 LINE",
"473 98 OFFCURVE",
"467 116 OFFCURVE",
"467 166 CURVE"
);
},
{
closed = 1;
nodes = (
"62 335 OFFCURVE",
"37 258 OFFCURVE",
"37 190 CURVE SMOOTH",
"37 72 OFFCURVE",
"116 -15 OFFCURVE",
"232 -15 CURVE",
"354 128 LINE",
"340 154 LINE",
"286 100 LINE",
"230 100 OFFCURVE",
"177 154 OFFCURVE",
"177 250 CURVE SMOOTH",
"177 305 OFFCURVE",
"188 365 OFFCURVE",
"213 406 CURVE",
"187 392 LINE",
"246 385 OFFCURVE",
"335 350 OFFCURVE",
"385 314 CURVE",
"466 413 LINE",
"420 438 OFFCURVE",
"304 465 OFFCURVE",
"246 465 CURVE SMOOTH",
"200 465 OFFCURVE",
"118 412 OFFCURVE",
"93 377 CURVE"
);
}
);
};
backgroundImage = {
crop = "{{0, 0}, {1080, 720}}";
imagePath = "../../Pictures/Photo Booth Library/Pictures/Photo on 03-09-2015 at 17.42.jpg";
locked = "1";
transform = "{-3.088, -0, 0, 3.088, 2079, -804}";
};
layerId = "FABFC9D4-E17A-4CB6-8F8E-4923CD579275";
name = Regular;
paths = (
{
closed = 1;
nodes = (
"331 50 OFFCURVE",
"347 12 OFFCURVE",
"385 -10 CURVE",
"531 69 LINE",
"519 96 LINE",
"489 82 LINE",
"477 98 OFFCURVE",
"471 116 OFFCURVE",
"471 166 CURVE",
"477 684 LINE",
"463 708 LINE",
"278 652 LINE",
"288 623 LINE",
"326 631 LINE",
"331 111 LINE"
);
},
{
closed = 1;
nodes = (
"61 345 OFFCURVE",
"35 258 OFFCURVE",
"35 190 CURVE SMOOTH",
"35 72 OFFCURVE",
"115 -15 OFFCURVE",
"232 -15 CURVE",
"354 128 LINE",
"340 154 LINE",
"286 100 LINE",
"231 100 OFFCURVE",
"179 154 OFFCURVE",
"179 250 CURVE SMOOTH",
"179 305 OFFCURVE",
"189 365 OFFCURVE",
"213 406 CURVE",
"187 392 LINE",
"246 385 OFFCURVE",
"335 350 OFFCURVE",
"385 314 CURVE",
"466 413 LINE",
"420 438 OFFCURVE",
"304 465 OFFCURVE",
"246 465 CURVE SMOOTH",
"200 465 OFFCURVE",
"118 422 OFFCURVE",
"93 387 CURVE"
);
}
);
width = 526;
}
);
unicode = 0064;
},
{
glyphname = eth;
lastChange = "2016-02-10 14:33:36 +0000";
layers = (
{
background = {
paths = (
{
closed = 1;
nodes = (
"321 466 LINE",
"234 466 OFFCURVE",
"156 434 OFFCURVE",
"104 396 CURVE",
"60 343 OFFCURVE",
"38 270 OFFCURVE",
"38 212 CURVE SMOOTH",
"38 63 OFFCURVE",
"133 -15 OFFCURVE",
"265 -15 CURVE SMOOTH",
"333 -15 OFFCURVE",
"394 16 OFFCURVE",
"434 54 CURVE",
"483 107 OFFCURVE",
"505 180 OFFCURVE",
"505 268 CURVE SMOOTH",
"505 459 OFFCURVE",
"338 671 OFFCURVE",
"118 705 CURVE",
"110 670 LINE",
"251 592 OFFCURVE",
"355 415 OFFCURVE",
"355 222 CURVE SMOOTH",
"355 140 OFFCURVE",
"348 86 OFFCURVE",
"338 47 CURVE",
"381 67 LINE",
"258 67 OFFCURVE",
"182 116 OFFCURVE",
"182 260 CURVE SMOOTH",
"182 291 OFFCURVE",
"190 360 OFFCURVE",
"204 403 CURVE",
"160 383 LINE",
"217 388 OFFCURVE",
"313 383 OFFCURVE",
"375 375 CURVE"
);
},
{
closed = 1;
nodes = (
"161 493 LINE",
"396 658 LINE",
"377 702 LINE",
"143 527 LINE"
);
}
);
};
layerId = "FABFC9D4-E17A-4CB6-8F8E-4923CD579275";
name = Regular;
paths = (
{
closed = 1;
nodes = (
"321 446 LINE",
"234 446 OFFCURVE",
"156 414 OFFCURVE",
"104 376 CURVE",
"60 323 OFFCURVE",
"38 260 OFFCURVE",
"38 207 CURVE SMOOTH",
"38 58 OFFCURVE",
"133 -15 OFFCURVE",
"265 -15 CURVE SMOOTH",
"333 -15 OFFCURVE",
"394 16 OFFCURVE",
"434 54 CURVE",
"483 107 OFFCURVE",
"505 180 OFFCURVE",
"505 268 CURVE SMOOTH",
"505 459 OFFCURVE",
"338 671 OFFCURVE",
"118 705 CURVE",
"110 670 LINE",
"251 592 OFFCURVE",
"355 415 OFFCURVE",
"355 222 CURVE SMOOTH",
"355 140 OFFCURVE",
"348 86 OFFCURVE",
"338 47 CURVE",
"381 67 LINE",
"258 67 OFFCURVE",
"182 111 OFFCURVE",
"182 255 CURVE SMOOTH",
"182 283 OFFCURVE",
"190 340 OFFCURVE",
"204 383 CURVE",
"160 363 LINE",
"217 368 OFFCURVE",
"313 363 OFFCURVE",
"375 355 CURVE"
);
},
{
closed = 1;
nodes = (
"161 493 LINE",
"396 658 LINE",
"377 702 LINE",
"143 527 LINE"
);
}
);
width = 543;
}
);
unicode = 00F0;
},
{
glyphname = e;
lastChange = "2016-02-20 18:55:13 +0000";
layers = (
{
anchors = (
{
name = bottom;
position = "{229, -80}";
},
{
name = ogonek;
position = "{415, 50}";
},
{
name = top;
position = "{251, 574}";
}
);
background = {
paths = (
{
closed = 1;
nodes = (
"-1042 1313 OFFCURVE",
"-1146 1205 OFFCURVE",
"-1146 1043 CURVE SMOOTH",
"-1146 878 OFFCURVE",
"-1039 785 OFFCURVE",
"-891 785 CURVE SMOOTH",
"-830 785 OFFCURVE",
"-774 801 OFFCURVE",
"-746 813 CURVE",
"-714 983 LINE",
"-746 993 LINE",
"-764 930 LINE",
"-780 925 OFFCURVE",
"-808 921 OFFCURVE",
"-831 921 CURVE SMOOTH",
"-917 921 OFFCURVE",
"-983 988 OFFCURVE",
"-983 1128 CURVE SMOOTH",
"-983 1223 OFFCURVE",
"-953 1265 OFFCURVE",
"-930 1265 CURVE SMOOTH",
"-891 1265 OFFCURVE",
"-874 1136 OFFCURVE",
"-874 1091 CURVE",
"-1004 1071 LINE",
"-1005 1030 LINE",
"-703 1075 LINE",
"-703 1216 OFFCURVE",
"-775 1313 OFFCURVE",
"-905 1313 CURVE SMOOTH"
);
},
{
closed = 1;
nodes = (
"860 1313 OFFCURVE",
"748 1309 OFFCURVE",
"710 1274 CURVE",
"671 1228 OFFCURVE",
"634 1156 OFFCURVE",
"634 1047 CURVE SMOOTH",
"634 871 OFFCURVE",
"731 785 OFFCURVE",
"872 785 CURVE SMOOTH",
"1003 785 OFFCURVE",
"1070 862 OFFCURVE",
"1097 909 CURVE",
"1072 929 LINE",
"1048 898 OFFCURVE",
"1005 853 OFFCURVE",
"944 853 CURVE SMOOTH",
"855 853 OFFCURVE",
"807 940 OFFCURVE",
"807 1058 CURVE SMOOTH",
"807 1173 OFFCURVE",
"852 1252 OFFCURVE",
"870 1265 CURVE",
"900 1265 OFFCURVE",
"917 1224 OFFCURVE",
"917 1142 CURVE SMOOTH",
"917 1107 OFFCURVE",
"913 1069 OFFCURVE",
"910 1054 CURVE",
"797 1048 LINE",
"793 1011 LINE",
"1067 1024 LINE",
"1076 1051 OFFCURVE",
"1081 1093 OFFCURVE",
"1081 1130 CURVE SMOOTH",
"1081 1235 OFFCURVE",
"1040 1313 OFFCURVE",
"893 1313 CURVE SMOOTH"
);
},
{
closed = 1;
nodes = (
"1575 785 OFFCURVE",
"1664 842 OFFCURVE",
"1706 925 CURVE",
"1679 943 LINE",
"1642 886 OFFCURVE",
"1590 853 OFFCURVE",
"1541 853 CURVE SMOOTH",
"1458 853 OFFCURVE",
"1407 934 OFFCURVE",
"1407 1065 CURVE SMOOTH",
"1407 1119 OFFCURVE",
"1414 1168 OFFCURVE",
"1433 1197 CURVE",
"1437 1200 OFFCURVE",
"1445 1202 OFFCURVE",
"1453 1202 CURVE SMOOTH",
"1489 1202 OFFCURVE",
"1514 1152 OFFCURVE",
"1513 1101 CURVE SMOOTH",
"1513 1092 OFFCURVE",
"1512 1083 OFFCURVE",
"1510 1074 CURVE",
"1397 1068 LINE",
"1393 1031 LINE",
"1667 1044 LINE",
"1676 1069 OFFCURVE",
"1681 1105 OFFCURVE",
"1681 1137 CURVE SMOOTH",
"1681 1245 OFFCURVE",
"1615 1313 OFFCURVE",
"1512 1313 CURVE SMOOTH",
"1433 1313 OFFCURVE",
"1334 1266 OFFCURVE",
"1271 1208 CURVE",
"1244 1155 OFFCURVE",
"1234 1112 OFFCURVE",
"1234 1050 CURVE SMOOTH",
"1234 883 OFFCURVE",
"1323 785 OFFCURVE",
"1467 785 CURVE SMOOTH"
);
},
{
closed = 1;
nodes = (
"-1317 785 OFFCURVE",
"-1222 881 OFFCURVE",
"-1192 978 CURVE",
"-1220 993 LINE",
"-1260 934 OFFCURVE",
"-1302 916 OFFCURVE",
"-1361 916 CURVE SMOOTH",
"-1444 916 OFFCURVE",
"-1502 974 OFFCURVE",
"-1502 1084 CURVE SMOOTH",
"-1502 1119 OFFCURVE",
"-1497 1208 OFFCURVE",
"-1489 1237 CURVE",
"-1448 1237 OFFCURVE",
"-1414 1145 OFFCURVE",
"-1414 1100 CURVE",
"-1508 1083 LINE",
"-1507 1046 LINE",
"-1241 1079 LINE",
"-1236 1227 OFFCURVE",
"-1318 1312 OFFCURVE",
"-1426 1310 CURVE SMOOTH",
"-1502 1309 OFFCURVE",
"-1590 1275 OFFCURVE",
"-1637 1214 CURVE",
"-1653 1172 OFFCURVE",
"-1666 1110 OFFCURVE",
"-1666 1034 CURVE SMOOTH",
"-1666 883 OFFCURVE",
"-1580 785 OFFCURVE",
"-1442 785 CURVE SMOOTH"
);
},
{
closed = 1;
nodes = (
"2153 785 OFFCURVE",
"2263 881 OFFCURVE",
"2308 978 CURVE",
"2280 993 LINE",
"2250 949 OFFCURVE",
"2190 916 OFFCURVE",
"2149 916 CURVE SMOOTH",
"2076 916 OFFCURVE",
"2008 970 OFFCURVE",
"2008 1071 CURVE SMOOTH",
"2008 1153 OFFCURVE",
"2027 1209 OFFCURVE",
"2051 1237 CURVE",
"2084 1208 OFFCURVE",
"2106 1155 OFFCURVE",
"2119 1102 CURVE",
"1978 1079 LINE",
"1979 1042 LINE",
"2279 1079 LINE",
"2279 1207 OFFCURVE",
"2202 1312 OFFCURVE",
"2094 1310 CURVE SMOOTH",
"2041 1309 OFFCURVE",
"1948 1277 OFFCURVE",
"1903 1237 CURVE",
"1874 1188 OFFCURVE",
"1844 1116 OFFCURVE",
"1844 1021 CURVE SMOOTH",
"1844 878 OFFCURVE",
"1940 785 OFFCURVE",
"2058 785 CURVE SMOOTH"
);
},
{
closed = 1;
nodes = (
"-1945 785 OFFCURVE",
"-1859 859 OFFCURVE",
"-1816 928 CURVE",
"-1840 948 LINE",
"-1881 926 OFFCURVE",
"-1913 916 OFFCURVE",
"-1952 916 CURVE SMOOTH",
"-2040 916 OFFCURVE",
"-2102 970 OFFCURVE",
"-2102 1094 CURVE SMOOTH",
"-2102 1167 OFFCURVE",
"-2077 1235 OFFCURVE",
"-2051 1268 CURVE",
"-2019 1258 OFFCURVE",
"-1976 1179 OFFCURVE",
"-1976 1101 CURVE",
"-2132 1094 LINE",
"-2131 1059 LINE",
"-1812 1061 LINE",
"-1816 1198 OFFCURVE",
"-1884 1310 OFFCURVE",
"-2015 1310 CURVE SMOOTH",
"-2154 1310 OFFCURVE",
"-2266 1212 OFFCURVE",
"-2266 1034 CURVE SMOOTH",
"-2266 877 OFFCURVE",
"-2165 785 OFFCURVE",
"-2045 785 CURVE SMOOTH"
);
},
{
closed = 1;
nodes = (
"-228 785 OFFCURVE",
"-142 861 OFFCURVE",
"-101 937 CURVE",
"-122 954 LINE",
"-155 930 OFFCURVE",
"-204 916 OFFCURVE",
"-251 916 CURVE SMOOTH",
"-340 916 OFFCURVE",
"-402 966 OFFCURVE",
"-402 1099 CURVE SMOOTH",
"-402 1165 OFFCURVE",
"-387 1245 OFFCURVE",
"-371 1268 CURVE",
"-387 1265 LINE",
"-334 1265 OFFCURVE",
"-293 1189 OFFCURVE",
"-293 1091 CURVE",
"-432 1074 LINE",
"-431 1039 LINE",
"-115 1061 LINE",
"-119 1195 OFFCURVE",
"-187 1310 OFFCURVE",
"-326 1310 CURVE SMOOTH",
"-458 1310 OFFCURVE",
"-566 1205 OFFCURVE",
"-566 1031 CURVE SMOOTH",
"-566 869 OFFCURVE",
"-465 785 OFFCURVE",
"-342 785 CURVE SMOOTH"
);
},
{
closed = 1;
nodes = (
"32 871 OFFCURVE",
"123 785 OFFCURVE",
"237 785 CURVE SMOOTH",
"344 785 OFFCURVE",
"426 855 OFFCURVE",
"464 924 CURVE",
"445 940 LINE",
"413 918 OFFCURVE",
"366 905 OFFCURVE",
"320 905 CURVE SMOOTH",
"242 905 OFFCURVE",
"177 954 OFFCURVE",
"177 1065 CURVE SMOOTH",
"177 1135 OFFCURVE",
"196 1196 OFFCURVE",
"222 1227 CURVE",
"202 1224 LINE",
"250 1224 OFFCURVE",
"288 1154 OFFCURVE",
"293 1065 CURVE",
"161 1049 LINE",
"162 1017 LINE",
"451 1037 LINE",
"447 1160 OFFCURVE",
"385 1265 OFFCURVE",
"258 1265 CURVE SMOOTH",
"213 1265 OFFCURVE",
"147 1250 OFFCURVE",
"112 1230 CURVE",
"60 1174 OFFCURVE",
"32 1099 OFFCURVE",
"32 1010 CURVE SMOOTH"
);
},
{
closed = 1;
nodes = (
"202 424 LINE",
"247 424 OFFCURVE",
"283 354 OFFCURVE",
"288 265 CURVE",
"161 249 LINE",
"162 217 LINE",
"446 237 LINE",
"442 360 OFFCURVE",
"382 465 OFFCURVE",
"258 465 CURVE SMOOTH",
"211 465 OFFCURVE",
"143 448 OFFCURVE",
"107 425 CURVE",
"61 374 OFFCURVE",
"32 299 OFFCURVE",
"32 210 CURVE SMOOTH",
"32 71 OFFCURVE",
"120 -15 OFFCURVE",
"230 -15 CURVE SMOOTH",
"334 -15 OFFCURVE",
"412 55 OFFCURVE",
"450 124 CURVE",
"431 140 LINE",
"399 118 OFFCURVE",
"353 105 OFFCURVE",
"308 105 CURVE SMOOTH",
"233 105 OFFCURVE",
"176 154 OFFCURVE",
"176 265 CURVE SMOOTH",
"176 335 OFFCURVE",
"195 397 OFFCURVE",
"222 427 CURVE"
);
}
);
};
layerId = "FABFC9D4-E17A-4CB6-8F8E-4923CD579275";
name = Regular;
paths = (
{
closed = 1;
nodes = (
"209 425 LINE",
"253 424 OFFCURVE",
"287 355 OFFCURVE",
"289 263 CURVE",
"162 252 LINE",
"162 220 LINE",
"446 230 LINE",
"447 374 OFFCURVE",
"374 465 OFFCURVE",
"258 465 CURVE SMOOTH",
"210 465 OFFCURVE",
"149 450 OFFCURVE",
"114 430 CURVE",
"64 378 OFFCURVE",
"32 292 OFFCURVE",
"32 209 CURVE SMOOTH",
"32 76 OFFCURVE",
"112 -15 OFFCURVE",
"230 -15 CURVE SMOOTH",
"316 -15 OFFCURVE",
"399 36 OFFCURVE",
"446 117 CURVE",
"428 133 LINE",
"397 114 OFFCURVE",
"356 103 OFFCURVE",
"316 103 CURVE SMOOTH",
"225 103 OFFCURVE",
"177 156 OFFCURVE",
"177 255 CURVE SMOOTH",
"177 325 OFFCURVE",
"198 395 OFFCURVE",
"229 428 CURVE"
);
}
);
width = 476;
}
);
leftKerningGroup = e;
rightKerningGroup = e;
unicode = 0065;
},
{
glyphname = eogonek;
lastChange = "2016-02-18 17:19:02 +0000";
layers = (
{
background = {
paths = (
{
closed = 1;
nodes = (
"302 12 OFFCURVE",
"243 -61 OFFCURVE",
"243 -133 CURVE SMOOTH",
"243 -202 OFFCURVE",
"290 -251 OFFCURVE",
"355 -251 CURVE SMOOTH",
"394 -251 OFFCURVE",
"427 -237 OFFCURVE",
"453 -218 CURVE",
"445 -193 LINE",
"378 -201 OFFCURVE",
"346 -157 OFFCURVE",
"346 -102 CURVE SMOOTH",
"346 -44 OFFCURVE",
"382 20 OFFCURVE",
"446 52 CURVE",
"431 52 LINE"
);
}
);
};
components = (
{
name = e;
}
);
layerId = "FABFC9D4-E17A-4CB6-8F8E-4923CD579275";
name = Regular;
paths = (
{
closed = 1;
nodes = (
"364 61 OFFCURVE",
"243 -47 OFFCURVE",
"243 -139 CURVE SMOOTH",
"243 -203 OFFCURVE",
"290 -251 OFFCURVE",
"355 -251 CURVE SMOOTH",
"394 -251 OFFCURVE",
"427 -237 OFFCURVE",
"453 -218 CURVE",
"445 -193 LINE",
"378 -201 OFFCURVE",
"346 -157 OFFCURVE",
"346 -102 CURVE SMOOTH",
"346 -30 OFFCURVE",
"410 48 OFFCURVE",
"451 112 CURVE",
"441 116 LINE"
);
}
);
width = 490;
}
);
leftKerningGroup = e;
rightKerningGroup = e;
unicode = 0119;
},
{
glyphname = f;
lastChange = "2016-02-17 23:14:06 +0000";
layers = (
{
background = {
paths = (
{
closed = 1;
nodes = (
"-1283 460 LINE",
"-1196 460 LINE",
"-1196 498 LINE",
"-1291 498 LINE",
"-1323 524 OFFCURVE",
"-1346 579 OFFCURVE",
"-1346 611 CURVE SMOOTH",
"-1346 643 OFFCURVE",
"-1326 659 OFFCURVE",
"-1296 659 CURVE SMOOTH",
"-1281 659 OFFCURVE",
"-1262 653 OFFCURVE",
"-1254 648 CURVE",
"-1271 600 LINE",
"-1239 591 LINE",
"-1152 750 LINE",
"-1186 776 OFFCURVE",
"-1245 801 OFFCURVE",
"-1316 801 CURVE SMOOTH",
"-1411 801 OFFCURVE",
"-1502 752 OFFCURVE",
"-1502 641 CURVE SMOOTH",
"-1502 575 OFFCURVE",
"-1447 514 OFFCURVE",
"-1385 498 CURVE",
"-1506 498 LINE",
"-1506 460 LINE",
"-1445 460 LINE",
"-1445 39 LINE",
"-1510 32 LINE",
"-1510 0 LINE",
"-1218 0 LINE",
"-1218 32 LINE",
"-1283 39 LINE"
);
},
{
closed = 1;
nodes = (
"-783 460 LINE",
"-696 460 LINE",
"-696 498 LINE",
"-791 498 LINE",
"-823 524 OFFCURVE",
"-846 579 OFFCURVE",
"-846 611 CURVE SMOOTH",
"-846 636 OFFCURVE",
"-829 648 OFFCURVE",
"-799 648 CURVE SMOOTH",
"-775 648 OFFCURVE",
"-742 639 OFFCURVE",
"-734 634 CURVE",
"-748 597 LINE",
"-716 588 LINE",
"-628 750 LINE",
"-662 774 OFFCURVE",
"-735 801 OFFCURVE",
"-816 801 CURVE SMOOTH",
"-911 801 OFFCURVE",
"-1002 752 OFFCURVE",
"-1002 641 CURVE SMOOTH",
"-1002 575 OFFCURVE",
"-971 524 OFFCURVE",
"-945 498 CURVE",
"-1006 498 LINE",
"-1006 460 LINE",
"-945 460 LINE",
"-945 39 LINE",
"-1010 32 LINE",
"-1010 0 LINE",
"-718 0 LINE",
"-718 32 LINE",
"-783 39 LINE"
);
},
{
closed = 1;
nodes = (
"-434 32 LINE",
"-471 29 LINE",
"-471 0 LINE",
"-238 0 LINE",
"-238 29 LINE",
"-295 32 LINE",
"-295 416 LINE",
"-206 416 LINE",
"-206 450 LINE",
"-293 450 LINE",
"-319 486 OFFCURVE",
"-359 596 OFFCURVE",
"-359 669 CURVE",
"-393 664 LINE",
"-350 645 OFFCURVE",
"-266 582 OFFCURVE",
"-227 537 CURVE",
"-144 656 LINE",
"-177 678 OFFCURVE",
"-246 702 OFFCURVE",
"-320 702 CURVE SMOOTH",
"-366 702 OFFCURVE",
"-417 692 OFFCURVE",
"-447 672 CURVE",
"-455 647 OFFCURVE",
"-462 605 OFFCURVE",
"-462 560 CURVE SMOOTH",
"-462 518 OFFCURVE",
"-451 478 OFFCURVE",
"-434 450 CURVE",
"-490 450 LINE",
"-490 416 LINE",
"-434 416 LINE"
);
},
{
closed = 1;
nodes = (
"65 32 LINE",
"28 29 LINE",
"28 0 LINE",
"263 0 LINE",
"263 29 LINE",
"206 32 LINE",
"206 416 LINE",
"295 416 LINE",
"295 450 LINE",
"208 450 LINE",
"182 486 OFFCURVE",
"141 596 OFFCURVE",
"141 669 CURVE",
"107 664 LINE",
"150 645 OFFCURVE",
"234 582 OFFCURVE",
"273 537 CURVE",
"356 656 LINE",
"327 678 OFFCURVE",
"266 702 OFFCURVE",
"203 702 CURVE SMOOTH",
"114 702 OFFCURVE",
"58 662 OFFCURVE",
"40 608 CURVE",
"39 599 OFFCURVE",
"39 590 OFFCURVE",
"39 580 CURVE SMOOTH",
"39 538 OFFCURVE",
"49 485 OFFCURVE",
"65 450 CURVE",
"9 450 LINE",
"9 416 LINE",
"65 416 LINE"
);
}
);
};
layerId = "FABFC9D4-E17A-4CB6-8F8E-4923CD579275";
name = Regular;
paths = (
{
closed = 1;
nodes = (
"65 32 LINE",
"28 29 LINE",
"28 0 LINE",
"283 0 LINE",
"283 29 LINE",
"206 32 LINE",
"208 416 LINE",
"297 416 LINE",
"297 450 LINE",
"210 450 LINE",
"184 486 OFFCURVE",
"141 606 OFFCURVE",
"141 669 CURVE",
"107 664 LINE",
"150 645 OFFCURVE",
"231 579 OFFCURVE",
"270 534 CURVE",
"353 653 LINE",
"308 682 OFFCURVE",
"245 702 OFFCURVE",
"185 702 CURVE SMOOTH",
"134 702 OFFCURVE",
"58 662 OFFCURVE",
"40 608 CURVE",
"39 599 OFFCURVE",
"39 590 OFFCURVE",
"39 580 CURVE SMOOTH",
"39 538 OFFCURVE",
"49 484 OFFCURVE",
"63 450 CURVE",
"7 450 LINE",
"7 416 LINE",
"63 416 LINE"
);
}
);
width = 291;
}
);
unicode = 0066;
},
{
glyphname = g;
lastChange = "2016-02-20 21:19:28 +0000";
layers = (
{
anchors = (
{
name = bottom;
position = "{227, -80}";
},
{
name = top;
position = "{234, 574}";
}
);
background = {
paths = (
{
closed = 1;
nodes = (
"-3782 244 OFFCURVE",
"-3796 198 OFFCURVE",
"-3825 160 CURVE",
"-3856 133 OFFCURVE",
"-3930 94 OFFCURVE",
"-3973 94 CURVE SMOOTH",
"-4068 94 OFFCURVE",
"-4133 156 OFFCURVE",
"-4133 259 CURVE SMOOTH",
"-4133 316 OFFCURVE",
"-4119 361 OFFCURVE",
"-4090 400 CURVE",
"-4059 426 OFFCURVE",
"-3985 465 OFFCURVE",
"-3942 465 CURVE SMOOTH",
"-3847 465 OFFCURVE",
"-3782 402 OFFCURVE",
"-3782 300 CURVE SMOOTH"
);
},
{
closed = 1;
nodes = (
"-4023 219 OFFCURVE",
"-3981 165 OFFCURVE",
"-3924 165 CURVE SMOOTH",
"-3885 165 LINE",
"-3905 147 LINE",
"-3895 184 OFFCURVE",
"-3892 227 OFFCURVE",
"-3892 264 CURVE SMOOTH",
"-3892 341 OFFCURVE",
"-3934 394 OFFCURVE",
"-3991 394 CURVE SMOOTH",
"-4030 394 LINE",
"-4010 412 LINE",
"-4020 375 OFFCURVE",
"-4023 333 OFFCURVE",
"-4023 295 CURVE SMOOTH"
);
},
{
closed = 1;
nodes = (
"-4020 142 LINE",
"-4052 56 LINE",
"-4045 56 OFFCURVE",
"-4032 56 OFFCURVE",
"-4026 56 CURVE SMOOTH",
"-3865 56 OFFCURVE",
"-3776 2 OFFCURVE",
"-3776 -89 CURVE",
"-3794 -138 OFFCURVE",
"-3862 -222 OFFCURVE",
"-3916 -255 CURVE",
"-3941 -257 OFFCURVE",
"-3964 -260 OFFCURVE",
"-3989 -260 CURVE SMOOTH",
"-4097 -260 OFFCURVE",
"-4179 -223 OFFCURVE",
"-4193 -185 CURVE",
"-4085 -19 LINE",
"-4058 -29 LINE",
"-4103 -111 LINE",
"-4075 -141 OFFCURVE",
"-4026 -171 OFFCURVE",
"-3986 -171 CURVE SMOOTH",
"-3884 -171 OFFCURVE",
"-3852 -160 OFFCURVE",
"-3852 -136 CURVE SMOOTH",
"-3852 -112 OFFCURVE",
"-4004 -61 OFFCURVE",
"-4080 -61 CURVE SMOOTH",
"-4108 -61 OFFCURVE",
"-4137 -62 OFFCURVE",
"-4166 -61 CURVE",
"-4045 151 LINE"
);
},
{
closed = 1;
nodes = (
"-3168 251 OFFCURVE",
"-3187 207 OFFCURVE",
"-3225 170 CURVE",
"-3256 143 OFFCURVE",
"-3330 104 OFFCURVE",
"-3373 104 CURVE SMOOTH",
"-3476 104 OFFCURVE",
"-3547 164 OFFCURVE",
"-3547 264 CURVE SMOOTH",
"-3547 321 OFFCURVE",
"-3528 362 OFFCURVE",
"-3490 400 CURVE",
"-3459 426 OFFCURVE",
"-3385 465 OFFCURVE",
"-3342 465 CURVE SMOOTH",
"-3239 465 OFFCURVE",
"-3168 407 OFFCURVE",
"-3168 305 CURVE SMOOTH"
);
},
{
closed = 1;
nodes = (
"-3421 223 OFFCURVE",
"-3380 169 OFFCURVE",
"-3324 169 CURVE SMOOTH",
"-3285 169 LINE",
"-3319 157 LINE",
"-3299 192 OFFCURVE",
"-3292 234 OFFCURVE",
"-3292 269 CURVE SMOOTH",
"-3292 350 OFFCURVE",
"-3334 400 OFFCURVE",
"-3391 400 CURVE SMOOTH",
"-3430 400 LINE",
"-3394 412 LINE",
"-3414 382 OFFCURVE",
"-3421 338 OFFCURVE",
"-3421 300 CURVE SMOOTH"
);
},
{
closed = 1;
nodes = (
"-3440 131 LINE",
"-3475 89 LINE",
"-3464 74 OFFCURVE",
"-3438 66 OFFCURVE",
"-3406 62 CURVE SMOOTH",
"-3375 57 OFFCURVE",
"-3338 55 OFFCURVE",
"-3303 53 CURVE SMOOTH",
"-3230 48 OFFCURVE",
"-3173 44 OFFCURVE",
"-3136 -13 CURVE",
"-3173 -111 OFFCURVE",
"-3262 -250 OFFCURVE",
"-3409 -250 CURVE SMOOTH",
"-3490 -250 OFFCURVE",
"-3558 -194 OFFCURVE",
"-3529 -83 CURVE",
"-3485 11 LINE",
"-3458 1 LINE",
"-3480 -56 LINE",
"-3473 -105 OFFCURVE",
"-3425 -145 OFFCURVE",
"-3346 -145 CURVE SMOOTH",
"-3294 -145 OFFCURVE",
"-3242 -120 OFFCURVE",
"-3232 -103 CURVE",
"-3232 -95 OFFCURVE",
"-3266 -73 OFFCURVE",
"-3323 -70 CURVE SMOOTH",
"-3359 -68 OFFCURVE",
"-3405 -65 OFFCURVE",
"-3444 -62 CURVE SMOOTH",
"-3513 -56 OFFCURVE",
"-3548 -50 OFFCURVE",
"-3580 16 CURVE",
"-3460 151 LINE"
);
},
{
closed = 1;
nodes = (
"-3201 547 LINE",
"-3165 552 OFFCURVE",
"-3116 544 OFFCURVE",
"-3080 524 CURVE",
"-3141 438 LINE",
"-3170 452 OFFCURVE",
"-3201 458 OFFCURVE",
"-3227 456 CURVE",
"-3278 407 LINE",
"-3300 419 LINE"
);
},
{
closed = 1;
nodes = (
"-2468 251 OFFCURVE",
"-2487 207 OFFCURVE",
"-2525 170 CURVE",
"-2556 143 OFFCURVE",
"-2630 104 OFFCURVE",
"-2673 104 CURVE SMOOTH",
"-2776 104 OFFCURVE",
"-2847 164 OFFCURVE",
"-2847 264 CURVE SMOOTH",
"-2847 321 OFFCURVE",
"-2828 362 OFFCURVE",
"-2790 400 CURVE",
"-2759 426 OFFCURVE",
"-2685 465 OFFCURVE",
"-2642 465 CURVE SMOOTH",
"-2539 465 OFFCURVE",
"-2468 407 OFFCURVE",
"-2468 305 CURVE SMOOTH"
);
},
{
closed = 1;
nodes = (
"-2721 223 OFFCURVE",
"-2680 169 OFFCURVE",
"-2624 169 CURVE SMOOTH",
"-2585 169 LINE",
"-2619 157 LINE",
"-2599 192 OFFCURVE",
"-2592 234 OFFCURVE",
"-2592 269 CURVE SMOOTH",
"-2592 350 OFFCURVE",
"-2634 400 OFFCURVE",
"-2691 400 CURVE SMOOTH",
"-2730 400 LINE",
"-2694 412 LINE",
"-2714 382 OFFCURVE",
"-2721 338 OFFCURVE",
"-2721 300 CURVE SMOOTH"
);
},
{
closed = 1;
nodes = (
"-2740 131 LINE",
"-2775 89 LINE",
"-2764 74 OFFCURVE",
"-2739 65 OFFCURVE",
"-2706 62 CURVE SMOOTH",
"-2583 52 LINE SMOOTH",
"-2509 46 OFFCURVE",
"-2464 24 OFFCURVE",
"-2436 -13 CURVE",
"-2473 -111 OFFCURVE",
"-2562 -250 OFFCURVE",
"-2709 -250 CURVE SMOOTH",
"-2776 -250 OFFCURVE",
"-2834 -212 OFFCURVE",
"-2836 -136 CURVE SMOOTH",
"-2836 -120 OFFCURVE",
"-2834 -102 OFFCURVE",
"-2829 -83 CURVE",
"-2785 11 LINE",
"-2758 1 LINE",
"-2780 -56 LINE",
"-2773 -105 OFFCURVE",
"-2725 -145 OFFCURVE",
"-2646 -145 CURVE SMOOTH",
"-2605 -145 OFFCURVE",
"-2561 -134 OFFCURVE",
"-2542 -120 CURVE",
"-2535 -108 LINE",
"-2535 -100 OFFCURVE",
"-2569 -74 OFFCURVE",
"-2623 -70 CURVE SMOOTH",
"-2744 -62 LINE SMOOTH",
"-2823 -56 OFFCURVE",
"-2851 -38 OFFCURVE",
"-2880 16 CURVE",
"-2760 151 LINE"
);
},
{
closed = 1;
nodes = (
"-2513 566 LINE",
"-2478 574 OFFCURVE",
"-2429 570 OFFCURVE",
"-2391 553 CURVE",
"-2444 462 LINE",
"-2474 474 OFFCURVE",
"-2506 477 OFFCURVE",
"-2531 473 CURVE",
"-2578 420 LINE",
"-2601 430 LINE"
);
},
{
closed = 1;
nodes = (
"-2045 131 LINE",
"-2080 89 LINE",
"-2070 75 OFFCURVE",
"-2043 65 OFFCURVE",
"-2006 62 CURVE SMOOTH",
"-1883 52 LINE SMOOTH",
"-1807 46 OFFCURVE",
"-1759 20 OFFCURVE",
"-1731 -17 CURVE",
"-1767 -125 OFFCURVE",
"-1863 -255 OFFCURVE",
"-2004 -255 CURVE SMOOTH",
"-2087 -255 OFFCURVE",
"-2141 -206 OFFCURVE",
"-2141 -135 CURVE SMOOTH",
"-2141 -121 OFFCURVE",
"-2139 -102 OFFCURVE",
"-2134 -83 CURVE",
"-2090 11 LINE",
"-2063 1 LINE",
"-2085 -56 LINE",
"-2078 -105 OFFCURVE",
"-2028 -145 OFFCURVE",
"-1947 -145 CURVE SMOOTH",
"-1886 -145 OFFCURVE",
"-1837 -123 OFFCURVE",
"-1830 -112 CURVE",
"-1836 -99 OFFCURVE",
"-1866 -71 OFFCURVE",
"-1943 -67 CURVE SMOOTH",
"-2044 -62 LINE SMOOTH",
"-2119 -58 OFFCURVE",
"-2156 -38 OFFCURVE",
"-2185 16 CURVE",
"-2065 151 LINE"
);
},
{
closed = 1;
nodes = (
"-1813 566 LINE",
"-1778 574 OFFCURVE",
"-1729 570 OFFCURVE",
"-1691 553 CURVE",
"-1744 462 LINE",
"-1774 474 OFFCURVE",
"-1806 477 OFFCURVE",
"-1836 473 CURVE",
"-1876 420 LINE",
"-1901 430 LINE"
);
},
{
closed = 1;
nodes = (
"-2012 419 LINE",
"-2024 389 OFFCURVE",
"-2036 345 OFFCURVE",
"-2036 302 CURVE SMOOTH",
"-2036 206 OFFCURVE",
"-1972 164 OFFCURVE",
"-1867 164 CURVE",
"-1913 149 LINE",
"-1897 183 OFFCURVE",
"-1889 228 OFFCURVE",
"-1889 264 CURVE SMOOTH",
"-1889 362 OFFCURVE",
"-1953 404 OFFCURVE",
"-2055 404 CURVE"
);
},
{
closed = 1;
nodes = (
"-1844 465 OFFCURVE",
"-1768 402 OFFCURVE",
"-1768 297 CURVE SMOOTH",
"-1768 248 OFFCURVE",
"-1794 187 OFFCURVE",
"-1825 154 CURVE",
"-1857 125 OFFCURVE",
"-1917 103 OFFCURVE",
"-1975 103 CURVE SMOOTH",
"-2080 103 OFFCURVE",
"-2157 165 OFFCURVE",
"-2157 270 CURVE SMOOTH",
"-2157 320 OFFCURVE",
"-2130 381 OFFCURVE",
"-2100 414 CURVE",
"-2069 440 OFFCURVE",
"-2011 465 OFFCURVE",
"-1949 465 CURVE SMOOTH"
);
},
{
closed = 1;
nodes = (
"-1445 131 LINE",
"-1480 89 LINE",
"-1472 77 OFFCURVE",
"-1446 65 OFFCURVE",
"-1406 62 CURVE SMOOTH",
"-1283 53 LINE SMOOTH",
"-1208 48 OFFCURVE",
"-1159 20 OFFCURVE",
"-1131 -17 CURVE",
"-1167 -125 OFFCURVE",
"-1264 -255 OFFCURVE",
"-1402 -255 CURVE SMOOTH",
"-1487 -255 OFFCURVE",
"-1541 -205 OFFCURVE",
"-1541 -140 CURVE SMOOTH",
"-1541 -98 OFFCURVE",
"-1519 -27 OFFCURVE",
"-1490 11 CURVE",
"-1463 1 LINE",
"-1485 -56 LINE",
"-1478 -105 OFFCURVE",
"-1428 -145 OFFCURVE",
"-1347 -145 CURVE SMOOTH",
"-1286 -145 OFFCURVE",
"-1237 -123 OFFCURVE",
"-1230 -112 CURVE",
"-1236 -99 OFFCURVE",
"-1266 -71 OFFCURVE",
"-1343 -67 CURVE SMOOTH",
"-1444 -62 LINE SMOOTH",
"-1519 -58 OFFCURVE",
"-1556 -38 OFFCURVE",
"-1585 16 CURVE",
"-1465 151 LINE"
);
},
{
closed = 1;
nodes = (
"-1213 566 LINE",
"-1201 569 OFFCURVE",
"-1187 570 OFFCURVE",
"-1175 570 CURVE SMOOTH",
"-1146 570 OFFCURVE",
"-1116 564 OFFCURVE",
"-1091 553 CURVE",
"-1149 454 LINE",
"-1171 463 OFFCURVE",
"-1194 467 OFFCURVE",
"-1215 467 CURVE SMOOTH",
"-1225 467 OFFCURVE",
"-1233 466 OFFCURVE",
"-1241 465 CURVE",
"-1276 420 LINE",
"-1301 430 LINE"
);
},
{
closed = 1;
nodes = (
"-1407 419 LINE",
"-1419 389 OFFCURVE",
"-1431 345 OFFCURVE",
"-1431 302 CURVE SMOOTH",
"-1431 206 OFFCURVE",
"-1369 164 OFFCURVE",
"-1267 164 CURVE",
"-1318 149 LINE",
"-1302 183 OFFCURVE",
"-1294 228 OFFCURVE",
"-1294 264 CURVE SMOOTH",
"-1294 362 OFFCURVE",
"-1356 404 OFFCURVE",
"-1455 404 CURVE"
);
},
{
closed = 1;
nodes = (
"-1244 465 OFFCURVE",
"-1168 399 OFFCURVE",
"-1168 301 CURVE SMOOTH",
"-1168 244 OFFCURVE",
"-1194 188 OFFCURVE",
"-1225 154 CURVE",
"-1257 125 OFFCURVE",
"-1316 103 OFFCURVE",
"-1376 103 CURVE SMOOTH",
"-1480 103 OFFCURVE",
"-1557 168 OFFCURVE",
"-1557 265 CURVE SMOOTH",
"-1557 322 OFFCURVE",
"-1531 379 OFFCURVE",
"-1500 414 CURVE",
"-1469 440 OFFCURVE",
"-1412 465 OFFCURVE",
"-1348 465 CURVE SMOOTH"
);
},
{
closed = 1;
nodes = (
"-445 131 LINE",
"-480 89 LINE",
"-472 77 OFFCURVE",
"-446 65 OFFCURVE",
"-406 62 CURVE SMOOTH",
"-283 53 LINE SMOOTH",
"-206 48 OFFCURVE",
"-154 20 OFFCURVE",
"-126 -17 CURVE",
"-162 -125 OFFCURVE",
"-261 -255 OFFCURVE",
"-402 -255 CURVE SMOOTH",
"-490 -255 OFFCURVE",
"-546 -205 OFFCURVE",
"-546 -140 CURVE SMOOTH",
"-546 -98 OFFCURVE",
"-524 -27 OFFCURVE",
"-495 11 CURVE",
"-468 1 LINE",
"-490 -56 LINE",
"-483 -105 OFFCURVE",
"-431 -145 OFFCURVE",
"-347 -145 CURVE SMOOTH",
"-283 -145 OFFCURVE",
"-232 -123 OFFCURVE",
"-225 -112 CURVE",
"-231 -99 OFFCURVE",
"-263 -71 OFFCURVE",
"-343 -67 CURVE SMOOTH",
"-444 -62 LINE SMOOTH",
"-519 -58 OFFCURVE",
"-556 -38 OFFCURVE",
"-585 16 CURVE",
"-465 151 LINE"
);
},
{
closed = 1;
nodes = (
"-214 571 LINE",
"-202 574 OFFCURVE",
"-188 575 OFFCURVE",
"-176 575 CURVE SMOOTH",
"-147 575 OFFCURVE",
"-117 569 OFFCURVE",
"-92 558 CURVE",
"-150 456 LINE",
"-172 465 OFFCURVE",
"-195 469 OFFCURVE",
"-216 469 CURVE SMOOTH",
"-226 469 OFFCURVE",
"-234 468 OFFCURVE",
"-242 467 CURVE",
"-276 420 LINE",
"-301 430 LINE"
);
},
{
closed = 1;
nodes = (
"-412 419 LINE",
"-424 389 OFFCURVE",
"-436 345 OFFCURVE",
"-436 302 CURVE SMOOTH",
"-436 206 OFFCURVE",
"-372 164 OFFCURVE",
"-267 164 CURVE",
"-313 149 LINE",
"-297 183 OFFCURVE",
"-289 228 OFFCURVE",
"-289 264 CURVE SMOOTH",
"-289 362 OFFCURVE",
"-353 404 OFFCURVE",
"-455 404 CURVE"
);
},
{
closed = 1;
nodes = (
"-241 465 OFFCURVE",
"-163 399 OFFCURVE",
"-163 301 CURVE SMOOTH",
"-163 244 OFFCURVE",
"-194 188 OFFCURVE",
"-220 154 CURVE",
"-252 125 OFFCURVE",
"-314 103 OFFCURVE",
"-376 103 CURVE SMOOTH",
"-483 103 OFFCURVE",
"-562 168 OFFCURVE",
"-562 265 CURVE SMOOTH",
"-562 322 OFFCURVE",
"-536 379 OFFCURVE",
"-505 414 CURVE",
"-474 440 OFFCURVE",
"-414 465 OFFCURVE",
"-348 465 CURVE SMOOTH"
);
},
{
closed = 1;
nodes = (
"155 131 LINE",
"120 89 LINE",
"128 77 OFFCURVE",
"154 65 OFFCURVE",
"194 62 CURVE SMOOTH",
"317 53 LINE SMOOTH",
"394 48 OFFCURVE",
"446 20 OFFCURVE",
"474 -17 CURVE",
"438 -125 OFFCURVE",
"339 -255 OFFCURVE",
"198 -255 CURVE SMOOTH",
"110 -255 OFFCURVE",
"54 -205 OFFCURVE",
"54 -140 CURVE SMOOTH",
"54 -98 OFFCURVE",
"76 -27 OFFCURVE",
"105 11 CURVE",
"132 1 LINE",
"110 -56 LINE",
"117 -105 OFFCURVE",
"169 -145 OFFCURVE",
"253 -145 CURVE SMOOTH",
"317 -145 OFFCURVE",
"368 -123 OFFCURVE",
"375 -112 CURVE",
"369 -99 OFFCURVE",
"337 -71 OFFCURVE",
"257 -67 CURVE SMOOTH",
"156 -62 LINE SMOOTH",
"81 -58 OFFCURVE",
"44 -38 OFFCURVE",
"15 16 CURVE",
"135 151 LINE"
);
},
{
closed = 1;
nodes = (
"396 591 LINE",
"408 594 OFFCURVE",
"422 595 OFFCURVE",
"434 595 CURVE SMOOTH",
"462 595 OFFCURVE",
"490 589 OFFCURVE",
"515 578 CURVE",
"447 456 LINE",
"425 465 OFFCURVE",
"404 469 OFFCURVE",
"384 469 CURVE SMOOTH",
"374 469 OFFCURVE",
"366 468 OFFCURVE",
"358 467 CURVE",
"324 420 LINE",
"299 430 LINE"
);
},
{
closed = 1;
nodes = (
"191 419 LINE",
"179 389 OFFCURVE",
"167 345 OFFCURVE",
"167 302 CURVE SMOOTH",
"167 206 OFFCURVE",
"230 161 OFFCURVE",
"333 161 CURVE",
"284 149 LINE",
"300 183 OFFCURVE",
"308 228 OFFCURVE",
"308 264 CURVE SMOOTH",
"308 362 OFFCURVE",
"245 407 OFFCURVE",
"145 407 CURVE"
);
},
{
closed = 1;
nodes = (
"359 465 OFFCURVE",
"437 399 OFFCURVE",
"437 301 CURVE SMOOTH",
"437 244 OFFCURVE",
"406 188 OFFCURVE",
"380 154 CURVE",
"348 125 OFFCURVE",
"286 103 OFFCURVE",
"224 103 CURVE SMOOTH",
"117 103 OFFCURVE",
"38 168 OFFCURVE",
"38 265 CURVE SMOOTH",
"38 322 OFFCURVE",
"64 379 OFFCURVE",
"95 414 CURVE",
"126 440 OFFCURVE",
"186 465 OFFCURVE",
"252 465 CURVE SMOOTH"
);
}
);
};
guideLines = (
{
angle = 270;
position = "{66, 100}";
},
{
angle = 270;
position = "{418, 126}";
}
);
layerId = "FABFC9D4-E17A-4CB6-8F8E-4923CD579275";
name = Regular;
paths = (
{
closed = 1;
nodes = (
"155 131 LINE",
"120 89 LINE",
"128 77 OFFCURVE",
"154 65 OFFCURVE",
"194 62 CURVE SMOOTH",
"317 53 LINE SMOOTH",
"394 48 OFFCURVE",
"446 20 OFFCURVE",
"474 -17 CURVE",
"438 -125 OFFCURVE",
"339 -255 OFFCURVE",
"198 -255 CURVE SMOOTH",
"110 -255 OFFCURVE",
"54 -205 OFFCURVE",
"54 -140 CURVE SMOOTH",
"54 -98 OFFCURVE",
"76 -27 OFFCURVE",
"105 11 CURVE",
"132 1 LINE",
"110 -56 LINE",
"117 -108 OFFCURVE",
"169 -150 OFFCURVE",
"253 -150 CURVE SMOOTH",
"317 -150 OFFCURVE",
"368 -125 OFFCURVE",
"375 -112 CURVE",
"369 -99 OFFCURVE",
"337 -71 OFFCURVE",
"257 -67 CURVE SMOOTH",
"156 -62 LINE SMOOTH",
"81 -58 OFFCURVE",
"44 -38 OFFCURVE",
"15 16 CURVE",
"135 151 LINE"
);
},
{
closed = 1;
nodes = (
"396 591 LINE",
"408 594 OFFCURVE",
"422 595 OFFCURVE",
"434 595 CURVE SMOOTH",
"462 595 OFFCURVE",
"490 589 OFFCURVE",
"515 578 CURVE",
"447 456 LINE",
"425 465 OFFCURVE",
"404 469 OFFCURVE",
"384 469 CURVE SMOOTH",
"374 469 OFFCURVE",
"366 468 OFFCURVE",
"358 467 CURVE",
"324 420 LINE",
"299 430 LINE"
);
},
{
closed = 1;
nodes = (
"191 419 LINE",
"179 389 OFFCURVE",
"167 345 OFFCURVE",
"167 302 CURVE SMOOTH",
"167 206 OFFCURVE",
"230 161 OFFCURVE",
"333 161 CURVE",
"284 149 LINE",
"300 183 OFFCURVE",
"308 228 OFFCURVE",
"308 264 CURVE SMOOTH",
"308 362 OFFCURVE",
"245 407 OFFCURVE",
"145 407 CURVE"
);
},
{
closed = 1;
nodes = (
"359 465 OFFCURVE",
"437 399 OFFCURVE",
"437 301 CURVE SMOOTH",
"437 244 OFFCURVE",
"406 188 OFFCURVE",
"380 154 CURVE",
"348 125 OFFCURVE",
"286 103 OFFCURVE",
"224 103 CURVE SMOOTH",
"117 103 OFFCURVE",
"38 168 OFFCURVE",
"38 265 CURVE SMOOTH",
"38 322 OFFCURVE",
"64 379 OFFCURVE",
"95 414 CURVE",
"126 440 OFFCURVE",
"186 465 OFFCURVE",
"252 465 CURVE SMOOTH"
);
}
);
width = 463;
}
);
leftKerningGroup = g;
rightKerningGroup = g;
unicode = 0067;
},
{
glyphname = h;
lastChange = "2016-02-20 19:30:26 +0000";
layers = (
{
background = {
paths = (
{
closed = 1;
nodes = (
"-401 595 LINE SMOOTH",
"-401 685 OFFCURVE",
"-405 751 OFFCURVE",
"-414 800 CURVE",
"-624 694 LINE",
"-614 662 LINE",
"-570 677 LINE",
"-562 649 OFFCURVE",
"-557 593 OFFCURVE",
"-557 527 CURVE SMOOTH",
"-557 38 LINE",
"-611 32 LINE",
"-611 0 LINE",
"-347 0 LINE",
"-347 32 LINE",
"-401 38 LINE"
);
},
{
closed = 1;
nodes = (
"-267 38 LINE",
"-321 32 LINE",
"-321 0 LINE",
"-57 0 LINE",
"-57 32 LINE",
"-111 38 LINE",
"-111 300 LINE SMOOTH",
"-111 436 OFFCURVE",
"-156 491 OFFCURVE",
"-250 525 CURVE",
"-420 333 LINE",
"-408 301 LINE",
"-330 371 LINE",
"-296 362 OFFCURVE",
"-267 318 OFFCURVE",
"-267 249 CURVE SMOOTH"
);
},
{
closed = 1;
nodes = (
"193 286 LINE",
"193 307 LINE",
"193 790 LINE",
"-21 709 LINE",
"-11 677 LINE",
"41 687 LINE",
"41 38 LINE",
"-13 32 LINE",
"-13 0 LINE",
"247 0 LINE",
"247 32 LINE",
"193 38 LINE"
);
},
{
closed = 1;
nodes = (
"327 38 LINE",
"273 32 LINE",
"273 0 LINE",
"533 0 LINE",
"533 32 LINE",
"479 38 LINE",
"479 300 LINE SMOOTH",
"479 436 OFFCURVE",
"420 525 OFFCURVE",
"292 525 CURVE",
"168 267 LINE",
"181 250 LINE",
"256 354 LINE",
"298 354 OFFCURVE",
"327 318 OFFCURVE",
"327 236 CURVE SMOOTH"
);
}
);
};
components = (
{
name = _part.shoulder;
transform = "{1, 0, 0, 1, -68, 0}";
},
{
name = _part.tallstem;
transform = "{1, 0, 0, 1, -33, 0}";
}
);
layerId = "FABFC9D4-E17A-4CB6-8F8E-4923CD579275";
name = Regular;
width = 503;
}
);
leftKerningGroup = l;
rightKerningGroup = n;
unicode = 0068;
},
{
glyphname = i;
lastChange = "2016-02-18 17:19:13 +0000";
layers = (
{
anchors = (
{
name = bottom;
position = "{125, 0}";
},
{
name = top;
position = "{128, 574}";
}
);
background = {
components = (
{
name = _part.tallstem;
transform = "{1, 0, 0, 1, -318, 0}";
piece = {
XHeight = 100;
};
},
{
name = _part.tallstem;
transform = "{1, 0, 0, 1, -18, 0}";
piece = {
XHeight = 100;
};
}
);
paths = (
{
closed = 1;
nodes = (
"-979 125 LINE SMOOTH",
"-987 58 OFFCURVE",
"-971 13 OFFCURVE",
"-932 -16 CURVE",
"-775 58 LINE",
"-784 91 LINE",
"-818 78 LINE",
"-831 97 OFFCURVE",
"-837 117 OFFCURVE",
"-830 173 CURVE SMOOTH",
"-815 300 LINE SMOOTH",
"-805 387 OFFCURVE",
"-821 453 OFFCURVE",
"-852 505 CURVE",
"-1037 399 LINE",
"-1027 367 LINE",
"-983 382 LINE",
"-967 356 OFFCURVE",
"-959 302 OFFCURVE",
"-967 232 CURVE SMOOTH"
);
},
{
closed = 1;
nodes = (
"-979 713 OFFCURVE",
"-979 706 OFFCURVE",
"-979 695 CURVE SMOOTH",
"-979 626 OFFCURVE",
"-945 575 OFFCURVE",
"-882 575 CURVE SMOOTH",
"-851 574 OFFCURVE",
"-819 587 OFFCURVE",
"-794 605 CURVE",
"-794 613 OFFCURVE",
"-794 622 OFFCURVE",
"-794 630 CURVE SMOOTH",
"-794 701 OFFCURVE",
"-829 750 OFFCURVE",
"-893 750 CURVE SMOOTH",
"-923 750 OFFCURVE",
"-955 738 OFFCURVE",
"-979 720 CURVE"
);
},
{
closed = 1;
nodes = (
"-608 459 LINE",
"-605 421 LINE",
"-554 428 LINE",
"-554 38 LINE",
"-608 32 LINE",
"-608 0 LINE",
"-348 0 LINE",
"-348 32 LINE",
"-402 38 LINE",
"-402 515 LINE"
);
},
{
closed = 1;
nodes = (
"-539 601 LINE",
"-494 624 OFFCURVE",
"-450 643 OFFCURVE",
"-406 654 CURVE",
"-458 785 LINE",
"-503 772 OFFCURVE",
"-548 754 OFFCURVE",
"-591 729 CURVE"
);
},
{
closed = 1;
nodes = (
"-86 627 LINE",
"-86 550 LINE",
"-264 494 LINE",
"-264 555 LINE"
);
},
{
closed = 1;
nodes = (
"192 670 LINE",
"192 556 LINE",
"64 537 LINE",
"64 641 LINE"
);
}
);
};
components = (
{
name = _part.tallstem;
transform = "{1, 0, 0, 1, -18, 0}";
piece = {
XHeight = 100;
};
}
);
layerId = "FABFC9D4-E17A-4CB6-8F8E-4923CD579275";
name = Regular;
paths = (
{
closed = 1;
nodes = (
"192 690 LINE",
"192 576 LINE",
"64 557 LINE",
"64 661 LINE"
);
}
);
width = 249;
}
);
leftKerningGroup = i;
rightKerningGroup = i;
unicode = 0069;
},
{
glyphname = dotlessi;
lastChange = "2016-02-18 17:19:13 +0000";
layers = (
{
anchors = (
{
name = bottom;
position = "{152, -80}";
},
{
name = ogonek;
position = "{264, 10}";
},
{
name = top;
position = "{147, 574}";
}
);
guideLines = (
{
angle = 270;
position = "{152, 112}";
}
);
layerId = "FABFC9D4-E17A-4CB6-8F8E-4923CD579275";
name = Regular;
paths = (
{
closed = 1;
nodes = (
"209 465 LINE",
"28 409 LINE",
"38 380 LINE",
"76 388 LINE",
"79 32 LINE",
"42 29 LINE",
"42 0 LINE",
"257 0 LINE",
"257 29 LINE",
"220 32 LINE",
"223 441 LINE"
);
}
);
width = 293;
}
);
leftKerningGroup = i;
rightKerningGroup = i;
unicode = 0131;
},
{
glyphname = iogonek;
lastChange = "2016-02-18 17:19:13 +0000";
layers = (
{
components = (
{
name = dotlessi;
}
);
layerId = "FABFC9D4-E17A-4CB6-8F8E-4923CD579275";
name = Regular;
paths = (
{
closed = 1;
nodes = (
"109 -40 OFFCURVE",
"47 -95 OFFCURVE",
"47 -153 CURVE SMOOTH",
"47 -212 OFFCURVE",
"94 -251 OFFCURVE",
"159 -251 CURVE SMOOTH",
"198 -251 OFFCURVE",
"231 -237 OFFCURVE",
"257 -218 CURVE",
"249 -193 LINE",
"182 -199 OFFCURVE",
"154 -177 OFFCURVE",
"154 -129 CURVE SMOOTH",
"154 -71 OFFCURVE",
"193 -32 OFFCURVE",
"257 0 CURVE",
"202 0 LINE"
);
}
);
width = 293;
}
);
leftKerningGroup = i;
rightKerningGroup = i;
unicode = 012F;
},
{
glyphname = j;
lastChange = "2016-02-14 18:53:27 +0000";
layers = (
{
background = {
paths = (
{
closed = 1;
nodes = (
"-837 109 OFFCURVE",
"-839 295 OFFCURVE",
"-843 390 CURVE",
"-881 381 LINE",
"-891 411 LINE",
"-704 471 LINE",
"-704 114 LINE SMOOTH",
"-704 -99 OFFCURVE",
"-769 -217 OFFCURVE",
"-833 -250 CURVE",
"-896 -250 OFFCURVE",
"-972 -221 OFFCURVE",
"-1024 -181 CURVE",
"-949 -57 LINE",
"-910 -103 OFFCURVE",
"-861 -158 OFFCURVE",
"-804 -200 CURVE",
"-839 -201 LINE",
"-836 -129 OFFCURVE",
"-835 -58 OFFCURVE",
"-836 14 CURVE SMOOTH"
);
},
{
closed = 1;
nodes = (
"-437 89 OFFCURVE",
"-439 285 OFFCURVE",
"-443 380 CURVE",
"-481 371 LINE",
"-491 401 LINE",
"-304 461 LINE",
"-304 94 LINE SMOOTH",
"-304 2 OFFCURVE",
"-309 -110 OFFCURVE",
"-319 -166 CURVE",
"-339 -201 OFFCURVE",
"-400 -250 OFFCURVE",
"-466 -250 CURVE SMOOTH",
"-525 -250 OFFCURVE",
"-575 -236 OFFCURVE",
"-624 -206 CURVE",
"-549 -77 LINE",
"-510 -123 OFFCURVE",
"-461 -178 OFFCURVE",
"-404 -220 CURVE",
"-439 -221 LINE",
"-436 -149 OFFCURVE",
"-435 -78 OFFCURVE",
"-436 -6 CURVE SMOOTH"
);
},
{
closed = 1;
nodes = (
"-363 676 OFFCURVE",
"-404 672 OFFCURVE",
"-445 665 CURVE",
"-434 540 LINE",
"-394 550 OFFCURVE",
"-353 552 OFFCURVE",
"-309 553 CURVE",
"-319 673 LINE"
);
},
{
closed = 1;
nodes = (
"55 -93 OFFCURVE",
"56 135 OFFCURVE",
"53 388 CURVE",
"15 380 LINE",
"5 409 LINE",
"190 465 LINE",
"204 441 LINE",
"204 388 LINE SMOOTH",
"201 8 OFFCURVE",
"192 -120 OFFCURVE",
"174 -157 CURVE SMOOTH",
"156 -194 OFFCURVE",
"88 -237 OFFCURVE",
"26 -250 CURVE",
"-27 -250 OFFCURVE",
"-83 -236 OFFCURVE",
"-132 -206 CURVE",
"-57 -77 LINE",
"-18 -123 OFFCURVE",
"31 -178 OFFCURVE",
"88 -220 CURVE",
"50 -221 LINE"
);
},
{
closed = 1;
nodes = (
"191 670 LINE",
"191 556 LINE",
"63 537 LINE",
"63 641 LINE"
);
}
);
};
layerId = "FABFC9D4-E17A-4CB6-8F8E-4923CD579275";
name = Regular;
paths = (
{
closed = 1;
nodes = (
"55 -93 OFFCURVE",
"56 135 OFFCURVE",
"53 388 CURVE",
"15 380 LINE",
"5 409 LINE",
"190 465 LINE",
"204 441 LINE",
"204 388 LINE SMOOTH",
"201 8 OFFCURVE",
"192 -120 OFFCURVE",
"174 -157 CURVE SMOOTH",
"156 -194 OFFCURVE",
"88 -237 OFFCURVE",
"26 -250 CURVE",
"-27 -250 OFFCURVE",
"-83 -236 OFFCURVE",
"-132 -206 CURVE",
"-60 -92 LINE",
"-17 -137 OFFCURVE",
"34 -180 OFFCURVE",
"88 -220 CURVE",
"50 -221 LINE"
);
},
{
closed = 1;
nodes = (
"191 670 LINE",
"191 556 LINE",
"63 537 LINE",
"63 641 LINE"
);
}
);
width = 234;
}
);
unicode = 006A;
},
{
glyphname = k;
lastChange = "2016-02-18 17:19:24 +0000";
layers = (
{
anchors = (
{
name = bottom;
position = "{258, -80}";
},
{
name = top;
position = "{258, 770}";
}
);
background = {
components = (
{
name = _part.tallstem;
transform = "{1, 0, 0, 1, -20, 0}";
}
);
paths = (
{
closed = 1;
nodes = (
"-1907 790 LINE",
"-2121 709 LINE",
"-2111 677 LINE",
"-2059 687 LINE",
"-2059 38 LINE",
"-2113 32 LINE",
"-2113 0 LINE",
"-1853 0 LINE",
"-1853 32 LINE",
"-1907 38 LINE"
);
},
{
closed = 1;
nodes = (
"-1762 38 LINE",
"-1816 32 LINE",
"-1816 0 LINE",
"-1537 0 LINE",
"-1537 32 LINE",
"-1591 38 LINE",
"-1721 280 LINE",
"-1843 219 LINE"
);
},
{
closed = 1;
nodes = (
"-1611 426 OFFCURVE",
"-1658 494 OFFCURVE",
"-1760 522 CURVE",
"-1926 318 LINE",
"-1912 287 LINE",
"-1824 366 LINE",
"-1790 359 OFFCURVE",
"-1765 317 OFFCURVE",
"-1765 291 CURVE",
"-1925 212 LINE",
"-1923 173 LINE",
"-1611 310 LINE"
);
},
{
closed = 1;
nodes = (
"-1207 790 LINE",
"-1411 724 LINE",
"-1401 692 LINE",
"-1359 701 LINE",
"-1359 35 LINE",
"-1396 32 LINE",
"-1396 0 LINE",
"-1170 0 LINE",
"-1170 32 LINE",
"-1207 35 LINE"
);
},
{
closed = 1;
nodes = (
"-992 256 OFFCURVE",
"-926 321 OFFCURVE",
"-926 352 CURVE SMOOTH",
"-926 415 OFFCURVE",
"-969 488 OFFCURVE",
"-1060 513 CURVE",
"-1226 309 LINE",
"-1212 278 LINE",
"-1126 359 LINE",
"-1090 349 OFFCURVE",
"-1065 301 OFFCURVE",
"-1065 272 CURVE",
"-1225 193 LINE",
"-1223 154 LINE",
"-1031 239 LINE SMOOTH"
);
},
{
closed = 1;
nodes = (
"-1080 53 OFFCURVE",
"-1047 9 OFFCURVE",
"-1018 -15 CURVE",
"-861 75 LINE",
"-873 107 LINE",
"-906 91 LINE",
"-925 107 OFFCURVE",
"-953 140 OFFCURVE",
"-999 232 CURVE SMOOTH",
"-1021 280 LINE",
"-1143 219 LINE",
"-1120 158 LINE SMOOTH"
);
},
{
closed = 1;
nodes = (
"-401 721 LINE",
"-587 661 LINE",
"-578 631 LINE",
"-540 640 LINE",
"-540 31 LINE",
"-574 28 LINE",
"-574 -1 LINE",
"-367 -1 LINE",
"-367 28 LINE",
"-401 31 LINE"
);
},
{
closed = 1;
nodes = (
"-130 375 OFFCURVE",
"-173 441 OFFCURVE",
"-267 468 CURVE",
"-418 281 LINE",
"-405 253 LINE",
"-327 327 LINE",
"-294 318 OFFCURVE",
"-271 274 OFFCURVE",
"-271 247 CURVE",
"-417 175 LINE",
"-416 140 LINE",
"-130 265 LINE"
);
},
{
closed = 1;
nodes = (
"-285 47 OFFCURVE",
"-255 7 OFFCURVE",
"-228 -15 CURVE",
"-85 67 LINE",
"-96 97 LINE",
"-126 82 LINE",
"-143 97 OFFCURVE",
"-169 127 OFFCURVE",
"-211 211 CURVE SMOOTH",
"-231 255 LINE",
"-342 199 LINE",
"-321 143 LINE SMOOTH"
);
},
{
closed = 1;
nodes = (
"470 375 OFFCURVE",
"427 441 OFFCURVE",
"333 468 CURVE",
"182 281 LINE",
"195 253 LINE",
"273 327 LINE",
"306 318 OFFCURVE",
"329 274 OFFCURVE",
"329 247 CURVE",
"183 175 LINE",
"184 140 LINE",
"470 265 LINE"
);
},
{
closed = 1;
nodes = (
"320 50 OFFCURVE",
"350 10 OFFCURVE",
"377 -12 CURVE",
"520 70 LINE",
"509 100 LINE",
"479 85 LINE",
"462 100 OFFCURVE",
"436 130 OFFCURVE",
"394 214 CURVE SMOOTH",
"374 258 LINE",
"263 202 LINE",
"284 146 LINE SMOOTH"
);
}
);
};
components = (
{
name = _part.tallstem;
transform = "{1, 0, 0, 1, -20, 0}";
}
);
layerId = "FABFC9D4-E17A-4CB6-8F8E-4923CD579275";
name = Regular;
paths = (
{
closed = 1;
nodes = (
"476 375 OFFCURVE",
"433 441 OFFCURVE",
"339 468 CURVE",
"182 281 LINE",
"195 253 LINE",
"279 327 LINE",
"312 318 OFFCURVE",
"335 274 OFFCURVE",
"335 247 CURVE",
"183 175 LINE",
"184 140 LINE",
"476 265 LINE"
);
},
{
closed = 1;
nodes = (
"326 50 OFFCURVE",
"356 10 OFFCURVE",
"383 -12 CURVE",
"526 70 LINE",
"515 100 LINE",
"485 85 LINE",
"468 100 OFFCURVE",
"442 130 OFFCURVE",
"400 214 CURVE SMOOTH",
"380 258 LINE",
"269 202 LINE",
"290 146 LINE SMOOTH"
);
}
);
width = 522;
}
);
leftKerningGroup = k;
rightKerningGroup = k;
unicode = 006B;
},
{
glyphname = l;
lastChange = "2016-02-18 17:19:30 +0000";
layers = (
{
anchors = (
{
name = bottom;
position = "{131, -80}";
},
{
name = center;
position = "{133, 365}";
},
{
name = top;
position = "{126, 770}";
},
{
name = topright;
position = "{241, 450}";
}
);
background = {
paths = (
{
closed = 1;
nodes = (
"206 790 LINE",
"-8 709 LINE",
"2 677 LINE",
"54 687 LINE",
"54 38 LINE",
"0 32 LINE",
"0 0 LINE",
"260 0 LINE",
"260 32 LINE",
"206 38 LINE"
);
}
);
};
components = (
{
name = _part.tallstem;
transform = "{1, 0, 0, 1, -20, 0}";
}
);
layerId = "FABFC9D4-E17A-4CB6-8F8E-4923CD579275";
name = Regular;
width = 251;
}
);
leftKerningGroup = l;
rightKerningGroup = l;
unicode = 006C;
},
{
glyphname = m;
lastChange = "2016-02-14 18:58:57 +0000";
layers = (
{
background = {
components = (
{
name = _part.shortstem;
transform = "{1, 0, 0, 1, -1040, 0}";
},
{
name = _part.shoulder;
transform = "{1, 0, 0, 1, -1040, 0}";
piece = {
shoulderWidth = 20.2407;
};
},
{
name = _part.shoulder;
transform = "{1, 0, 0, 1, -767, 0}";
piece = {
shoulderWidth = 20.2407;
};
}
);
paths = (
{
closed = 1;
nodes = (
"1103 286 LINE",
"1103 307 LINE",
"1103 515 LINE",
"889 434 LINE",
"899 402 LINE",
"951 412 LINE",
"951 38 LINE",
"897 32 LINE",
"897 0 LINE",
"1157 0 LINE",
"1157 32 LINE",
"1103 38 LINE"
);
},
{
closed = 1;
nodes = (
"1225 38 LINE",
"1171 32 LINE",
"1171 0 LINE",
"1431 0 LINE",
"1431 32 LINE",
"1377 38 LINE",
"1377 300 LINE SMOOTH",
"1377 436 OFFCURVE",
"1322 525 OFFCURVE",
"1202 525 CURVE",
"1078 267 LINE",
"1091 250 LINE",
"1166 354 LINE",
"1201 354 OFFCURVE",
"1225 318 OFFCURVE",
"1225 236 CURVE SMOOTH"
);
},
{
closed = 1;
nodes = (
"1496 38 LINE",
"1442 32 LINE",
"1442 0 LINE",
"1702 0 LINE",
"1702 32 LINE",
"1648 38 LINE",
"1648 300 LINE SMOOTH",
"1648 436 OFFCURVE",
"1593 525 OFFCURVE",
"1473 525 CURVE",
"1349 267 LINE",
"1362 250 LINE",
"1437 354 LINE",
"1472 354 OFFCURVE",
"1496 318 OFFCURVE",
"1496 236 CURVE SMOOTH"
);
},
{
closed = 1;
nodes = (
"203 274 LINE",
"203 295 LINE",
"203 503 LINE",
"-11 432 LINE",
"-1 400 LINE",
"51 410 LINE",
"51 38 LINE",
"-3 32 LINE",
"-3 0 LINE",
"252 0 LINE",
"252 32 LINE",
"203 38 LINE"
);
},
{
closed = 1;
nodes = (
"325 38 LINE",
"276 32 LINE",
"276 0 LINE",
"526 0 LINE",
"526 32 LINE",
"477 38 LINE",
"477 288 LINE SMOOTH",
"477 439 OFFCURVE",
"431 513 OFFCURVE",
"302 513 CURVE",
"261 429 OFFCURVE",
"219 344 OFFCURVE",
"178 260 CURVE",
"191 238 LINE",
"260 342 LINE",
"309 342 OFFCURVE",
"325 311 OFFCURVE",
"325 224 CURVE SMOOTH"
);
},
{
closed = 1;
nodes = (
"595 38 LINE",
"546 32 LINE",
"546 0 LINE",
"801 0 LINE",
"801 32 LINE",
"747 38 LINE",
"747 288 LINE SMOOTH",
"747 439 OFFCURVE",
"701 513 OFFCURVE",
"572 513 CURVE",
"448 260 LINE",
"461 238 LINE",
"530 342 LINE",
"579 342 OFFCURVE",
"595 311 OFFCURVE",
"595 224 CURVE SMOOTH"
);
}
);
};
components = (
{
name = _part.shoulder;
transform = "{1, 0, 0, 1, -58, 0}";
piece = {
shoulderWidth = 75.1284;
};
},
{
name = _part.shoulder;
transform = "{1, 0, 0, 1, 205, 0}";
piece = {
shoulderWidth = 74.8316;
};
},
{
name = _part.shortstem;
transform = "{1, 0, 0, 1, -40, 0}";
}
);
guideLines = (
{
position = "{539, 469}";
}
);
layerId = "FABFC9D4-E17A-4CB6-8F8E-4923CD579275";
name = Regular;
width = 770;
}
);
unicode = 006D;
},
{
glyphname = n;
lastChange = "2016-02-18 17:19:36 +0000";
layers = (
{
anchors = (
{
name = bottom;
position = "{264, -80}";
},
{
name = top;
position = "{260, 574}";
}
);
background = {
components = (
{
name = _part.shoulder;
transform = "{1, 0, 0, 1, 1161, 0}";
},
{
name = _part.shortstem;
transform = "{1, 0, 0, 1, 1161, 0}";
},
{
name = _part.shoulder;
transform = "{1, 0, 0, 1, -1238, 0}";
}
);
paths = (
{
closed = 1;
nodes = (
"819 127 OFFCURVE",
"819 216 OFFCURVE",
"819 305 CURVE SMOOTH",
"819 395 OFFCURVE",
"798 461 OFFCURVE",
"768 510 CURVE",
"583 404 LINE",
"594 370 LINE",
"638 385 LINE",
"653 359 OFFCURVE",
"665 303 OFFCURVE",
"665 237 CURVE SMOOTH",
"665 171 OFFCURVE",
"663 104 OFFCURVE",
"660 38 CURVE",
"606 32 LINE",
"606 0 LINE",
"870 0 LINE",
"870 32 LINE",
"816 38 LINE"
);
},
{
closed = 1;
nodes = (
"956 182 OFFCURVE",
"953 110 OFFCURVE",
"950 38 CURVE",
"896 32 LINE",
"896 0 LINE",
"1160 0 LINE",
"1160 32 LINE",
"1106 38 LINE",
"1108 137 OFFCURVE",
"1110 236 OFFCURVE",
"1110 335 CURVE SMOOTH",
"1110 441 OFFCURVE",
"1061 499 OFFCURVE",
"998 522 CURVE",
"801 370 LINE",
"807 336 LINE",
"888 381 LINE",
"922 372 OFFCURVE",
"956 323 OFFCURVE",
"956 254 CURVE SMOOTH"
);
},
{
closed = 1;
nodes = (
"-396 300 LINE SMOOTH",
"-396 390 OFFCURVE",
"-413 456 OFFCURVE",
"-442 505 CURVE",
"-627 399 LINE",
"-617 367 LINE",
"-573 382 LINE",
"-556 354 OFFCURVE",
"-548 298 OFFCURVE",
"-548 232 CURVE SMOOTH",
"-548 38 LINE",
"-602 32 LINE",
"-602 0 LINE",
"-342 0 LINE",
"-342 32 LINE",
"-396 38 LINE"
);
},
{
closed = 1;
nodes = (
"-258 38 LINE",
"-312 32 LINE",
"-312 0 LINE",
"-52 0 LINE",
"-52 32 LINE",
"-106 38 LINE",
"-106 300 LINE SMOOTH",
"-106 436 OFFCURVE",
"-150 491 OFFCURVE",
"-243 525 CURVE",
"-413 333 LINE",
"-401 301 LINE",
"-323 371 LINE",
"-288 362 OFFCURVE",
"-258 318 OFFCURVE",
"-258 249 CURVE SMOOTH"
);
},
{
closed = 1;
nodes = (
"204 274 LINE",
"204 295 LINE",
"204 503 LINE",
"-10 432 LINE",
"0 400 LINE",
"52 410 LINE",
"52 38 LINE",
"-2 32 LINE",
"-2 0 LINE",
"258 0 LINE",
"258 32 LINE",
"204 38 LINE"
);
},
{
closed = 1;
nodes = (
"338 38 LINE",
"284 32 LINE",
"284 0 LINE",
"544 0 LINE",
"544 32 LINE",
"490 38 LINE",
"490 288 LINE SMOOTH",
"490 439 OFFCURVE",
"441 513 OFFCURVE",
"303 513 CURVE",
"179 260 LINE",
"192 238 LINE",
"261 342 LINE",
"319 342 OFFCURVE",
"338 311 OFFCURVE",
"338 224 CURVE SMOOTH"
);
},
{
closed = 1;
nodes = (
"-996 274 LINE",
"-996 295 LINE",
"-996 503 LINE",
"-1210 432 LINE",
"-1200 400 LINE",
"-1148 410 LINE",
"-1148 38 LINE",
"-1202 32 LINE",
"-1202 0 LINE",
"-942 0 LINE",
"-942 32 LINE",
"-996 38 LINE"
);
}
);
};
components = (
{
name = _part.shortstem;
transform = "{1, 0, 0, 1, -40, 0}";
},
{
name = _part.shoulder;
transform = "{1, 0, 0, 1, -58, 0}";
}
);
guideLines = (
{
angle = 270;
position = "{266, 196}";
}
);
layerId = "FABFC9D4-E17A-4CB6-8F8E-4923CD579275";
name = Regular;
width = 513;
}
);
leftKerningGroup = n;
rightKerningGroup = n;
unicode = 006E;
},
{
glyphname = o;
lastChange = "2016-02-20 18:55:00 +0000";
layers = (
{
anchors = (
{
name = top;
position = "{258, 574}";
}
);
background = {
paths = (
{
closed = 1;
nodes = (
"-2097 39 OFFCURVE",
"-2113 35 OFFCURVE",
"-2123 35 CURVE SMOOTH",
"-2163 35 OFFCURVE",
"-2216 104 OFFCURVE",
"-2216 261 CURVE SMOOTH",
"-2216 342 OFFCURVE",
"-2208 411 OFFCURVE",
"-2199 454 CURVE",
"-2186 461 OFFCURVE",
"-2170 465 OFFCURVE",
"-2160 465 CURVE SMOOTH",
"-2120 465 OFFCURVE",
"-2067 396 OFFCURVE",
"-2067 239 CURVE SMOOTH",
"-2067 158 OFFCURVE",
"-2075 89 OFFCURVE",
"-2084 46 CURVE"
);
},
{
closed = 1;
nodes = (
"-2177 515 OFFCURVE",
"-2275 470 OFFCURVE",
"-2319 432 CURVE",
"-2359 378 OFFCURVE",
"-2380 306 OFFCURVE",
"-2380 221 CURVE SMOOTH",
"-2380 68 OFFCURVE",
"-2292 -15 OFFCURVE",
"-2164 -15 CURVE SMOOTH",
"-2106 -15 OFFCURVE",
"-2008 30 OFFCURVE",
"-1964 68 CURVE",
"-1924 122 OFFCURVE",
"-1903 194 OFFCURVE",
"-1903 279 CURVE SMOOTH",
"-1903 432 OFFCURVE",
"-1991 515 OFFCURVE",
"-2119 515 CURVE"
);
},
{
closed = 1;
nodes = (
"-1790 302 OFFCURVE",
"-1769 368 OFFCURVE",
"-1729 422 CURVE",
"-1685 460 OFFCURVE",
"-1580 515 OFFCURVE",
"-1519 515 CURVE SMOOTH",
"-1385 515 OFFCURVE",
"-1293 426 OFFCURVE",
"-1293 279 CURVE SMOOTH",
"-1293 194 OFFCURVE",
"-1314 129 OFFCURVE",
"-1354 78 CURVE",
"-1398 40 OFFCURVE",
"-1503 -15 OFFCURVE",
"-1564 -15 CURVE SMOOTH",
"-1698 -15 OFFCURVE",
"-1790 68 OFFCURVE",
"-1790 221 CURVE SMOOTH"
);
},
{
closed = 1;
nodes = (
"-1457 337 OFFCURVE",
"-1501 414 OFFCURVE",
"-1589 414 CURVE SMOOTH",
"-1644 414 LINE",
"-1610 439 LINE",
"-1620 388 OFFCURVE",
"-1626 337 OFFCURVE",
"-1626 271 CURVE SMOOTH",
"-1626 144 OFFCURVE",
"-1571 84 OFFCURVE",
"-1490 83 CURVE SMOOTH",
"-1488 83 LINE",
"-1467 131 OFFCURVE",
"-1457 171 OFFCURVE",
"-1457 239 CURVE SMOOTH"
);
},
{
closed = 1;
nodes = (
"-714 179 OFFCURVE",
"-733 119 OFFCURVE",
"-770 70 CURVE",
"-810 35 OFFCURVE",
"-906 -15 OFFCURVE",
"-962 -15 CURVE SMOOTH",
"-1085 -15 OFFCURVE",
"-1169 65 OFFCURVE",
"-1169 199 CURVE SMOOTH",
"-1169 272 OFFCURVE",
"-1150 331 OFFCURVE",
"-1113 381 CURVE",
"-1073 415 OFFCURVE",
"-977 465 OFFCURVE",
"-921 465 CURVE SMOOTH",
"-798 465 OFFCURVE",
"-714 384 OFFCURVE",
"-714 252 CURVE SMOOTH"
);
},
{
closed = 1;
nodes = (
"-1026 147 OFFCURVE",
"-972 77 OFFCURVE",
"-898 77 CURVE SMOOTH",
"-848 77 LINE",
"-874 54 LINE",
"-861 102 OFFCURVE",
"-857 157 OFFCURVE",
"-857 205 CURVE SMOOTH",
"-857 304 OFFCURVE",
"-911 373 OFFCURVE",
"-985 373 CURVE SMOOTH",
"-1035 373 LINE",
"-1009 396 LINE",
"-1022 349 OFFCURVE",
"-1026 294 OFFCURVE",
"-1026 245 CURVE SMOOTH"
);
},
{
closed = 1;
nodes = (
"-328 383 OFFCURVE",
"-252 334 OFFCURVE",
"-252 190 CURVE SMOOTH",
"-252 159 OFFCURVE",
"-259 90 OFFCURVE",
"-273 47 CURVE",
"-229 67 LINE",
"-354 67 OFFCURVE",
"-431 116 OFFCURVE",
"-431 260 CURVE SMOOTH",
"-431 291 OFFCURVE",
"-423 360 OFFCURVE",
"-409 403 CURVE",
"-450 383 LINE"
);
},
{
closed = 1;
nodes = (
"-406 465 OFFCURVE",
"-469 434 OFFCURVE",
"-509 396 CURVE",
"-553 343 OFFCURVE",
"-575 270 OFFCURVE",
"-575 212 CURVE SMOOTH",
"-575 63 OFFCURVE",
"-479 -15 OFFCURVE",
"-345 -15 CURVE SMOOTH",
"-276 -15 OFFCURVE",
"-213 16 OFFCURVE",
"-173 54 CURVE",
"-128 107 OFFCURVE",
"-108 180 OFFCURVE",
"-108 238 CURVE SMOOTH",
"-108 387 OFFCURVE",
"-204 465 OFFCURVE",
"-338 465 CURVE SMOOTH"
);
},
{
closed = 1;
nodes = (
"270 383 OFFCURVE",
"345 334 OFFCURVE",
"345 190 CURVE SMOOTH",
"345 159 OFFCURVE",
"338 90 OFFCURVE",
"324 47 CURVE",
"371 67 LINE",
"248 67 OFFCURVE",
"172 116 OFFCURVE",
"172 260 CURVE SMOOTH",
"172 291 OFFCURVE",
"180 360 OFFCURVE",
"194 403 CURVE",
"150 383 LINE"
);
},
{
closed = 1;
nodes = (
"195 465 OFFCURVE",
"134 434 OFFCURVE",
"94 396 CURVE",
"50 343 OFFCURVE",
"28 270 OFFCURVE",
"28 212 CURVE SMOOTH",
"28 63 OFFCURVE",
"123 -15 OFFCURVE",
"255 -15 CURVE SMOOTH",
"323 -15 OFFCURVE",
"384 16 OFFCURVE",
"424 54 CURVE",
"469 107 OFFCURVE",
"489 180 OFFCURVE",
"489 238 CURVE SMOOTH",
"489 387 OFFCURVE",
"394 465 OFFCURVE",
"262 465 CURVE SMOOTH"
);
}
);
};
backgroundImage = {
crop = "{{0, 0}, {3024, 4032}}";
imagePath = ../../../../var/folders/xp/9k2g5rln0g3214w24ld01r0h0000gn/T/com.apple.iChat/Messages/Transfers/IMG_0293.JPG;
locked = "1";
transform = "{0.465, 0, 0, 0.465, -222, -174}";
};
guideLines = (
{
angle = 270;
position = "{258, 421}";
}
);
layerId = "FABFC9D4-E17A-4CB6-8F8E-4923CD579275";
name = Regular;
paths = (
{
closed = 1;
nodes = (
"270 390 OFFCURVE",
"345 339 OFFCURVE",
"345 190 CURVE SMOOTH",
"345 157 OFFCURVE",
"338 83 OFFCURVE",
"324 40 CURVE",
"371 60 LINE",
"248 60 OFFCURVE",
"172 111 OFFCURVE",
"172 260 CURVE SMOOTH",
"172 293 OFFCURVE",
"180 367 OFFCURVE",
"194 410 CURVE",
"150 390 LINE"
);
},
{
closed = 1;
nodes = (
"195 465 OFFCURVE",
"134 434 OFFCURVE",
"94 396 CURVE",
"50 343 OFFCURVE",
"28 270 OFFCURVE",
"28 212 CURVE SMOOTH",
"28 63 OFFCURVE",
"123 -15 OFFCURVE",
"255 -15 CURVE SMOOTH",
"323 -15 OFFCURVE",
"384 16 OFFCURVE",
"424 54 CURVE",
"469 107 OFFCURVE",
"489 180 OFFCURVE",
"489 238 CURVE SMOOTH",
"489 387 OFFCURVE",
"394 465 OFFCURVE",
"262 465 CURVE SMOOTH"
);
}
);
width = 515;
}
);
leftKerningGroup = o;
rightKerningGroup = o;
unicode = 006F;
},
{
glyphname = oslash;
lastChange = "2016-02-18 17:19:42 +0000";
layers = (
{
components = (
{
name = o;
}
);
layerId = "FABFC9D4-E17A-4CB6-8F8E-4923CD579275";
name = Regular;
paths = (
{
closed = 1;
nodes = (
"198 52 LINE",
"356 368 LINE",
"326 388 LINE",
"170 77 LINE"
);
}
);
width = 537;
}
);
leftKerningGroup = o;
rightKerningGroup = o;
unicode = 00F8;
},
{
glyphname = oe;
lastChange = "2016-02-18 17:19:47 +0000";
layers = (
{
background = {
paths = (
{
closed = 1;
nodes = (
"531 425 LINE",
"575 424 OFFCURVE",
"609 355 OFFCURVE",
"611 263 CURVE",
"484 252 LINE",
"484 220 LINE",
"768 230 LINE",
"769 374 OFFCURVE",
"696 465 OFFCURVE",
"580 465 CURVE SMOOTH",
"532 465 OFFCURVE",
"471 450 OFFCURVE",
"436 430 CURVE",
"386 378 OFFCURVE",
"354 292 OFFCURVE",
"354 209 CURVE SMOOTH",
"354 76 OFFCURVE",
"434 -15 OFFCURVE",
"552 -15 CURVE SMOOTH",
"638 -15 OFFCURVE",
"721 36 OFFCURVE",
"768 117 CURVE",
"750 133 LINE",
"719 114 OFFCURVE",
"678 103 OFFCURVE",
"638 103 CURVE SMOOTH",
"547 103 OFFCURVE",
"499 156 OFFCURVE",
"499 255 CURVE SMOOTH",
"499 325 OFFCURVE",
"520 395 OFFCURVE",
"551 428 CURVE"
);
},
{
closed = 1;
nodes = (
"280 383 OFFCURVE",
"355 334 OFFCURVE",
"355 190 CURVE SMOOTH",
"355 159 OFFCURVE",
"348 90 OFFCURVE",
"334 47 CURVE",
"381 67 LINE",
"258 67 OFFCURVE",
"182 116 OFFCURVE",
"182 260 CURVE SMOOTH",
"182 291 OFFCURVE",
"190 360 OFFCURVE",
"204 403 CURVE",
"160 383 LINE"
);
},
{
closed = 1;
nodes = (
"205 465 OFFCURVE",
"144 434 OFFCURVE",
"104 396 CURVE",
"60 343 OFFCURVE",
"38 270 OFFCURVE",
"38 212 CURVE SMOOTH",
"38 63 OFFCURVE",
"133 -15 OFFCURVE",
"265 -15 CURVE SMOOTH",
"333 -15 OFFCURVE",
"394 16 OFFCURVE",
"434 54 CURVE",
"479 107 OFFCURVE",
"499 180 OFFCURVE",
"499 238 CURVE SMOOTH",
"499 387 OFFCURVE",
"404 465 OFFCURVE",
"272 465 CURVE SMOOTH"
);
}
);
};
layerId = "FABFC9D4-E17A-4CB6-8F8E-4923CD579275";
name = Regular;
paths = (
{
closed = 1;
nodes = (
"531 425 LINE",
"575 424 OFFCURVE",
"609 355 OFFCURVE",
"611 263 CURVE",
"484 252 LINE",
"484 220 LINE",
"768 230 LINE",
"769 374 OFFCURVE",
"696 465 OFFCURVE",
"580 465 CURVE SMOOTH",
"440 465 OFFCURVE",
"354 367 OFFCURVE",
"354 205 CURVE SMOOTH",
"354 76 OFFCURVE",
"434 -15 OFFCURVE",
"552 -15 CURVE SMOOTH",
"638 -15 OFFCURVE",
"721 36 OFFCURVE",
"768 117 CURVE",
"750 133 LINE",
"719 114 OFFCURVE",
"678 103 OFFCURVE",
"638 103 CURVE SMOOTH",
"547 103 OFFCURVE",
"499 156 OFFCURVE",
"499 255 CURVE SMOOTH",
"499 325 OFFCURVE",
"520 395 OFFCURVE",
"551 428 CURVE"
);
},
{
closed = 1;
nodes = (
"495 238 LINE",
"495 387 OFFCURVE",
"402 465 OFFCURVE",
"272 465 CURVE SMOOTH",
"209 465 OFFCURVE",
"154 434 OFFCURVE",
"114 396 CURVE",
"70 343 OFFCURVE",
"48 270 OFFCURVE",
"48 212 CURVE SMOOTH",
"48 63 OFFCURVE",
"139 -15 OFFCURVE",
"265 -15 CURVE SMOOTH",
"333 -15 OFFCURVE",
"394 16 OFFCURVE",
"434 54 CURVE",
"413 65 LINE",
"276 65 OFFCURVE",
"192 114 OFFCURVE",
"192 260 CURVE SMOOTH",
"192 291 OFFCURVE",
"200 360 OFFCURVE",
"214 403 CURVE",
"170 383 LINE",
"284 383 OFFCURVE",
"355 334 OFFCURVE",
"354 212 CURVE"
);
}
);
width = 803;
}
);
leftKerningGroup = o;
rightKerningGroup = e;
unicode = 0153;
},
{
glyphname = p;
lastChange = "2016-02-14 18:54:53 +0000";
layers = (
{
background = {
paths = (
{
closed = 1;
nodes = (
"-549 -257 LINE",
"-366 -197 LINE",
"-375 -169 LINE",
"-413 -177 LINE",
"-413 339 LINE",
"-413 400 OFFCURVE",
"-429 438 OFFCURVE",
"-467 460 CURVE",
"-609 381 LINE",
"-597 354 LINE",
"-567 368 LINE",
"-555 352 OFFCURVE",
"-549 334 OFFCURVE",
"-549 284 CURVE"
);
},
{
closed = 1;
nodes = (
"-148 123 OFFCURVE",
"-132 204 OFFCURVE",
"-132 254 CURVE SMOOTH",
"-132 392 OFFCURVE",
"-192 465 OFFCURVE",
"-314 465 CURVE",
"-436 322 LINE",
"-422 296 LINE",
"-368 350 LINE",
"-314 350 OFFCURVE",
"-272 307 OFFCURVE",
"-272 206 CURVE SMOOTH",
"-272 142 OFFCURVE",
"-283 87 OFFCURVE",
"-300 44 CURVE",
"-274 58 LINE",
"-318 68 OFFCURVE",
"-384 111 OFFCURVE",
"-433 177 CURVE",
"-486 66 LINE",
"-445 16 OFFCURVE",
"-372 -15 OFFCURVE",
"-310 -15 CURVE SMOOTH",
"-284 -15 OFFCURVE",
"-194 49 OFFCURVE",
"-174 83 CURVE"
);
},
{
closed = 1;
nodes = (
"51 -218 LINE",
"14 -221 LINE",
"14 -250 LINE",
"267 -250 LINE",
"267 -221 LINE",
"190 -218 LINE",
"190 342 LINE",
"157 462 LINE",
"3 413 LINE",
"13 383 LINE",
"51 392 LINE"
);
},
{
closed = 1;
nodes = (
"459 115 OFFCURVE",
"484 192 OFFCURVE",
"484 260 CURVE SMOOTH",
"484 378 OFFCURVE",
"405 465 OFFCURVE",
"289 465 CURVE",
"167 322 LINE",
"181 296 LINE",
"235 350 LINE",
"291 350 OFFCURVE",
"344 296 OFFCURVE",
"344 200 CURVE SMOOTH",
"344 145 OFFCURVE",
"333 85 OFFCURVE",
"308 44 CURVE",
"334 58 LINE",
"275 65 OFFCURVE",
"186 100 OFFCURVE",
"136 136 CURVE",
"55 37 LINE",
"101 12 OFFCURVE",
"217 -15 OFFCURVE",
"275 -15 CURVE SMOOTH",
"321 -15 OFFCURVE",
"403 38 OFFCURVE",
"428 73 CURVE"
);
}
);
};
layerId = "FABFC9D4-E17A-4CB6-8F8E-4923CD579275";
name = Regular;
paths = (
{
closed = 1;
nodes = (
"45 -218 LINE",
"8 -221 LINE",
"8 -250 LINE",
"273 -250 LINE",
"273 -221 LINE",
"196 -218 LINE",
"191 342 LINE",
"157 462 LINE",
"2 413 LINE",
"12 383 LINE",
"50 392 LINE"
);
},
{
closed = 1;
nodes = (
"460 105 OFFCURVE",
"485 192 OFFCURVE",
"485 260 CURVE SMOOTH",
"485 378 OFFCURVE",
"406 465 OFFCURVE",
"289 465 CURVE",
"167 322 LINE",
"181 296 LINE",
"235 350 LINE",
"290 350 OFFCURVE",
"342 296 OFFCURVE",
"342 200 CURVE SMOOTH",
"342 145 OFFCURVE",
"332 85 OFFCURVE",
"308 44 CURVE",
"334 58 LINE",
"275 65 OFFCURVE",
"186 100 OFFCURVE",
"136 136 CURVE",
"55 37 LINE",
"101 12 OFFCURVE",
"217 -15 OFFCURVE",
"275 -15 CURVE SMOOTH",
"321 -15 OFFCURVE",
"403 28 OFFCURVE",
"428 63 CURVE"
);
}
);
width = 510;
}
);
unicode = 0070;
},
{
glyphname = thorn;
lastChange = "2016-01-22 15:11:49 +0000";
layers = (
{
background = {
paths = (
{
closed = 1;
nodes = (
"67 -218 LINE",
"30 -221 LINE",
"30 -250 LINE",
"295 -250 LINE",
"295 -221 LINE",
"218 -218 LINE",
"213 342 LINE",
"179 462 LINE",
"24 413 LINE",
"34 383 LINE",
"72 392 LINE"
);
},
{
closed = 1;
nodes = (
"482 105 OFFCURVE",
"507 192 OFFCURVE",
"507 260 CURVE SMOOTH",
"507 378 OFFCURVE",
"428 465 OFFCURVE",
"311 465 CURVE",
"189 322 LINE",
"203 296 LINE",
"257 350 LINE",
"312 350 OFFCURVE",
"364 296 OFFCURVE",
"364 200 CURVE SMOOTH",
"364 145 OFFCURVE",
"354 85 OFFCURVE",
"330 44 CURVE",
"356 58 LINE",
"297 65 OFFCURVE",
"208 100 OFFCURVE",
"158 136 CURVE",
"77 37 LINE",
"123 12 OFFCURVE",
"239 -15 OFFCURVE",
"297 -15 CURVE SMOOTH",
"343 -15 OFFCURVE",
"425 28 OFFCURVE",
"450 63 CURVE"
);
}
);
};
layerId = "FABFC9D4-E17A-4CB6-8F8E-4923CD579275";
name = Regular;
paths = (
{
closed = 1;
nodes = (
"203 708 LINE",
"22 652 LINE",
"32 623 LINE",
"70 631 LINE",
"71 -218 LINE",
"34 -221 LINE",
"34 -250 LINE",
"253 -250 LINE",
"253 -221 LINE",
"216 -218 LINE",
"217 684 LINE"
);
},
{
closed = 1;
nodes = (
"482 105 OFFCURVE",
"507 192 OFFCURVE",
"507 260 CURVE SMOOTH",
"507 378 OFFCURVE",
"428 465 OFFCURVE",
"311 465 CURVE",
"189 322 LINE",
"203 296 LINE",
"257 350 LINE",
"312 350 OFFCURVE",
"364 296 OFFCURVE",
"364 200 CURVE SMOOTH",
"364 145 OFFCURVE",
"354 85 OFFCURVE",
"330 44 CURVE",
"356 58 LINE",
"297 65 OFFCURVE",
"208 100 OFFCURVE",
"158 136 CURVE",
"77 37 LINE",
"123 12 OFFCURVE",
"239 -15 OFFCURVE",
"297 -15 CURVE SMOOTH",
"343 -15 OFFCURVE",
"425 28 OFFCURVE",
"450 63 CURVE"
);
}
);
width = 600;
}
);
unicode = 00FE;
},
{
glyphname = q;
lastChange = "2016-02-14 18:55:09 +0000";
layers = (
{
background = {
paths = (
{
closed = 1;
nodes = (
"-278 -257 LINE",
"-95 -197 LINE",
"-104 -169 LINE",
"-142 -177 LINE",
"-142 450 LINE",
"-167 450 LINE",
"-219 361 LINE",
"-278 308 LINE"
);
},
{
closed = 1;
nodes = (
"-544 327 OFFCURVE",
"-560 246 OFFCURVE",
"-560 196 CURVE SMOOTH",
"-560 58 OFFCURVE",
"-500 -15 OFFCURVE",
"-377 -15 CURVE",
"-255 128 LINE",
"-269 154 LINE",
"-323 100 LINE",
"-378 100 OFFCURVE",
"-420 143 OFFCURVE",
"-420 244 CURVE SMOOTH",
"-420 308 OFFCURVE",
"-408 363 OFFCURVE",
"-391 406 CURVE",
"-417 392 LINE",
"-373 382 OFFCURVE",
"-307 339 OFFCURVE",
"-258 273 CURVE",
"-205 384 LINE",
"-246 434 OFFCURVE",
"-319 465 OFFCURVE",
"-381 465 CURVE SMOOTH",
"-407 465 OFFCURVE",
"-497 401 OFFCURVE",
"-517 367 CURVE"
);
},
{
closed = 1;
nodes = (
"320 -255 LINE",
"503 -195 LINE",
"494 -167 LINE",
"456 -175 LINE",
"456 415 LINE",
"320 394 LINE"
);
},
{
closed = 1;
nodes = (
"51 337 OFFCURVE",
"26 260 OFFCURVE",
"26 192 CURVE SMOOTH",
"26 74 OFFCURVE",
"105 -13 OFFCURVE",
"221 -13 CURVE",
"343 130 LINE",
"329 156 LINE",
"275 102 LINE",
"219 102 OFFCURVE",
"166 156 OFFCURVE",
"166 252 CURVE SMOOTH",
"166 307 OFFCURVE",
"177 367 OFFCURVE",
"202 408 CURVE",
"176 394 LINE",
"235 387 OFFCURVE",
"324 352 OFFCURVE",
"374 316 CURVE",
"455 415 LINE",
"409 440 OFFCURVE",
"293 467 OFFCURVE",
"235 467 CURVE SMOOTH",
"189 467 OFFCURVE",
"107 414 OFFCURVE",
"82 379 CURVE"
);
}
);
};
layerId = "FABFC9D4-E17A-4CB6-8F8E-4923CD579275";
name = Regular;
paths = (
{
closed = 1;
nodes = (
"51 345 OFFCURVE",
"25 258 OFFCURVE",
"25 190 CURVE SMOOTH",
"25 72 OFFCURVE",
"105 -15 OFFCURVE",
"222 -15 CURVE",
"344 128 LINE",
"330 154 LINE",
"276 100 LINE",
"221 100 OFFCURVE",
"169 154 OFFCURVE",
"169 250 CURVE SMOOTH",
"169 305 OFFCURVE",
"179 365 OFFCURVE",
"203 406 CURVE",
"177 392 LINE",
"236 385 OFFCURVE",
"325 350 OFFCURVE",
"375 314 CURVE",
"460 413 LINE",
"413 438 OFFCURVE",
"295 465 OFFCURVE",
"236 465 CURVE SMOOTH",
"190 465 OFFCURVE",
"108 422 OFFCURVE",
"83 387 CURVE"
);
},
{
closed = 1;
nodes = (
"460 413 LINE",
"319 391 LINE",
"314 -218 LINE",
"237 -221 LINE",
"237 -250 LINE",
"502 -250 LINE",
"502 -221 LINE",
"465 -218 LINE"
);
}
);
width = 497;
}
);
unicode = 0071;
},
{
glyphname = r;
lastChange = "2016-02-20 18:55:07 +0000";
layers = (
{
anchors = (
{
name = bottom;
position = "{199, -80}";
},
{
name = top;
position = "{258, 574}";
}
);
background = {
components = (
{
name = _part.shortstem;
transform = "{1, 0, 0, 1, -1038, 0}";
},
{
name = _part.shortstem;
transform = "{1, 0, 0, 1, -538, 0}";
},
{
name = _part.shortstem;
transform = "{1, 0, 0, 1, -38, 0}";
piece = {
WideSerif = 73.6197;
};
}
);
paths = (
{
closed = 1;
nodes = (
"-1653 416 LINE",
"-1686 475 OFFCURVE",
"-1742 512 OFFCURVE",
"-1823 512 CURVE",
"-1916 217 LINE",
"-1899 198 LINE",
"-1836 348 LINE",
"-1814 348 OFFCURVE",
"-1783 327 OFFCURVE",
"-1769 304 CURVE"
);
},
{
closed = 1;
nodes = (
"-1395 274 LINE",
"-1395 295 LINE",
"-1395 503 LINE",
"-1609 432 LINE",
"-1599 400 LINE",
"-1547 410 LINE",
"-1547 38 LINE",
"-1601 32 LINE",
"-1601 0 LINE",
"-1276 0 LINE",
"-1276 32 LINE",
"-1395 38 LINE"
);
},
{
closed = 1;
nodes = (
"-1141 399 LINE",
"-1182 474 OFFCURVE",
"-1240 506 OFFCURVE",
"-1321 506 CURVE",
"-1417 237 LINE",
"-1407 208 LINE",
"-1336 339 LINE",
"-1309 339 OFFCURVE",
"-1283 318 OFFCURVE",
"-1261 278 CURVE"
);
},
{
closed = 1;
nodes = (
"-551 332 LINE",
"-550 445 OFFCURVE",
"-599 513 OFFCURVE",
"-706 513 CURVE",
"-807 337 LINE",
"-800 307 LINE",
"-781 321 OFFCURVE",
"-752 341 OFFCURVE",
"-726 341 CURVE SMOOTH",
"-706 341 OFFCURVE",
"-688 319 OFFCURVE",
"-684 285 CURVE"
);
},
{
closed = 1;
nodes = (
"-309 302 LINE",
"-280 319 OFFCURVE",
"-195 327 OFFCURVE",
"-134 311 CURVE",
"-116 464 LINE",
"-203 464 OFFCURVE",
"-280 414 OFFCURVE",
"-319 322 CURVE"
);
},
{
closed = 1;
nodes = (
"426 300 LINE",
"423 403 OFFCURVE",
"378 465 OFFCURVE",
"288 465 CURVE",
"188 312 LINE",
"196 275 LINE",
"248 331 LINE",
"268 331 OFFCURVE",
"297 301 OFFCURVE",
"300 257 CURVE"
);
}
);
};
components = (
{
name = _part.shortstem;
transform = "{1, 0, 0, 1, -38, 0}";
piece = {
WideSerif = 73.6197;
};
}
);
layerId = "FABFC9D4-E17A-4CB6-8F8E-4923CD579275";
name = Regular;
paths = (
{
closed = 1;
nodes = (
"403 450 LINE",
"381 459 OFFCURVE",
"352 465 OFFCURVE",
"324 465 CURVE SMOOTH",
"307 465 OFFCURVE",
"285 462 OFFCURVE",
"271 457 CURVE",
"240 427 OFFCURVE",
"208 377 OFFCURVE",
"188 329 CURVE",
"196 305 LINE",
"223 338 LINE",
"260 336 OFFCURVE",
"331 328 OFFCURVE",
"371 320 CURVE"
);
}
);
width = 398;
}
);
leftKerningGroup = r;
rightKerningGroup = r;
unicode = 0072;
},
{
glyphname = s;
lastChange = "2016-02-18 17:20:01 +0000";
layers = (
{
anchors = (
{
name = bottom;
position = "{180, -80}";
},
{
name = top;
position = "{214, 574}";
}
);
background = {
paths = (
{
closed = 1;
nodes = (
"1821 161 OFFCURVE",
"1719 124 OFFCURVE",
"1666 124 CURVE",
"1642 169 LINE",
"1613 154 LINE",
"1689 -23 LINE",
"1768 -17 OFFCURVE",
"1944 36 OFFCURVE",
"1944 142 CURVE",
"1914 206 OFFCURVE",
"1742 262 OFFCURVE",
"1739 313 CURVE SMOOTH",
"1738 331 OFFCURVE",
"1840 368 OFFCURVE",
"1893 368 CURVE",
"1917 323 LINE",
"1946 338 LINE",
"1870 515 LINE",
"1791 509 OFFCURVE",
"1615 456 OFFCURVE",
"1615 350 CURVE",
"1645 286 OFFCURVE",
"1817 230 OFFCURVE",
"1820 179 CURVE SMOOTH"
);
},
{
closed = 1;
nodes = (
"1149 124 OFFCURVE",
"1098 108 OFFCURVE",
"1069 108 CURVE",
"1045 153 LINE",
"1016 138 LINE",
"1083 -22 LINE",
"1162 -16 OFFCURVE",
"1329 35 OFFCURVE",
"1329 145 CURVE SMOOTH",
"1329 218 OFFCURVE",
"1203 294 OFFCURVE",
"1203 344 CURVE SMOOTH",
"1203 366 OFFCURVE",
"1254 387 OFFCURVE",
"1283 387 CURVE",
"1307 342 LINE",
"1336 357 LINE",
"1269 517 LINE",
"1190 511 OFFCURVE",
"1015 455 OFFCURVE",
"1015 345 CURVE SMOOTH",
"1015 268 OFFCURVE",
"1149 194 OFFCURVE",
"1149 146 CURVE SMOOTH"
);
},
{
closed = 1;
nodes = (
"651 118 OFFCURVE",
"605 104 OFFCURVE",
"578 104 CURVE",
"556 145 LINE",
"530 131 LINE",
"591 -15 LINE",
"663 -10 OFFCURVE",
"816 37 OFFCURVE",
"816 138 CURVE SMOOTH",
"816 202 OFFCURVE",
"701 263 OFFCURVE",
"701 307 CURVE SMOOTH",
"701 327 OFFCURVE",
"747 346 OFFCURVE",
"774 346 CURVE",
"796 305 LINE",
"822 319 LINE",
"761 465 LINE",
"689 459 OFFCURVE",
"529 408 OFFCURVE",
"529 308 CURVE SMOOTH",
"529 240 OFFCURVE",
"651 181 OFFCURVE",
"651 139 CURVE SMOOTH"
);
},
{
closed = 1;
nodes = (
"223 45 OFFCURVE",
"170 0 OFFCURVE",
"136 0 CURVE",
"200 1 LINE",
"159 44 OFFCURVE",
"126 91 OFFCURVE",
"101 143 CURVE",
"15 74 LINE",
"44 18 OFFCURVE",
"101 -15 OFFCURVE",
"182 -15 CURVE SMOOTH",
"294 -15 OFFCURVE",
"366 55 OFFCURVE",
"366 133 CURVE SMOOTH",
"366 255 OFFCURVE",
"169 286 OFFCURVE",
"169 375 CURVE SMOOTH",
"169 421 OFFCURVE",
"192 445 OFFCURVE",
"214 453 CURVE",
"167 448 LINE",
"217 407 OFFCURVE",
"253 366 OFFCURVE",
"292 317 CURVE",
"370 400 LINE",
"340 436 OFFCURVE",
"286 465 OFFCURVE",
"226 465 CURVE SMOOTH",
"109 465 OFFCURVE",
"33 390 OFFCURVE",
"33 318 CURVE SMOOTH",
"33 197 OFFCURVE",
"223 175 OFFCURVE",
"223 85 CURVE SMOOTH"
);
}
);
};
guideLines = (
{
angle = 270;
position = "{194, 369}";
}
);
layerId = "FABFC9D4-E17A-4CB6-8F8E-4923CD579275";
name = Regular;
paths = (
{
closed = 1;
nodes = (
"223 45 OFFCURVE",
"170 0 OFFCURVE",
"136 0 CURVE",
"200 1 LINE",
"159 44 OFFCURVE",
"127 95 OFFCURVE",
"101 143 CURVE",
"15 74 LINE",
"44 23 OFFCURVE",
"111 -15 OFFCURVE",
"182 -15 CURVE SMOOTH",
"294 -15 OFFCURVE",
"366 55 OFFCURVE",
"366 133 CURVE SMOOTH",
"366 255 OFFCURVE",
"169 286 OFFCURVE",
"169 375 CURVE SMOOTH",
"169 421 OFFCURVE",
"192 445 OFFCURVE",
"214 453 CURVE",
"167 448 LINE",
"217 407 OFFCURVE",
"253 372 OFFCURVE",
"292 323 CURVE",
"370 400 LINE",
"340 436 OFFCURVE",
"286 465 OFFCURVE",
"226 465 CURVE SMOOTH",
"109 465 OFFCURVE",
"33 390 OFFCURVE",
"33 318 CURVE SMOOTH",
"33 197 OFFCURVE",
"223 175 OFFCURVE",
"223 85 CURVE SMOOTH"
);
}
);
width = 390;
}
);
leftKerningGroup = s;
rightKerningGroup = s;
unicode = 0073;
},
{
glyphname = germandbls;
lastChange = "2016-02-20 17:46:47 +0000";
layers = (
{
background = {
paths = (
{
closed = 1;
nodes = (
"-4905 387 LINE",
"-4793 387 OFFCURVE",
"-4739 310 OFFCURVE",
"-4739 238 CURVE SMOOTH",
"-4739 91 OFFCURVE",
"-4843 0 OFFCURVE",
"-5070 0 CURVE SMOOTH",
"-5077 37 LINE",
"-4965 37 OFFCURVE",
"-4917 87 OFFCURVE",
"-4917 209 CURVE SMOOTH",
"-4917 303 OFFCURVE",
"-4971 351 OFFCURVE",
"-5061 351 CURVE",
"-5060 386 LINE",
"-4983 386 OFFCURVE",
"-4947 430 OFFCURVE",
"-4947 511 CURVE SMOOTH",
"-4947 597 OFFCURVE",
"-4996 641 OFFCURVE",
"-5041 641 CURVE SMOOTH",
"-5086 641 OFFCURVE",
"-5107 593 OFFCURVE",
"-5107 287 CURVE SMOOTH",
"-5107 0 LINE",
"-5301 0 LINE",
"-5301 35 LINE",
"-5252 36 LINE",
"-5254 287 LINE SMOOTH",
"-5256 574 OFFCURVE",
"-5276 685 OFFCURVE",
"-5001 685 CURVE SMOOTH",
"-4876 685 OFFCURVE",
"-4803 627 OFFCURVE",
"-4803 549 CURVE SMOOTH",
"-4803 464 OFFCURVE",
"-4864 406 OFFCURVE",
"-4982 371 CURVE",
"-4982 381 LINE"
);
},
{
closed = 1;
nodes = (
"-4349 375 OFFCURVE",
"-4139 380 OFFCURVE",
"-4139 188 CURVE SMOOTH",
"-4139 91 OFFCURVE",
"-4243 0 OFFCURVE",
"-4470 0 CURVE SMOOTH",
"-4477 37 LINE",
"-4365 37 OFFCURVE",
"-4317 87 OFFCURVE",
"-4317 159 CURVE SMOOTH",
"-4317 253 OFFCURVE",
"-4428 275 OFFCURVE",
"-4465 304 CURVE",
"-4418 385 OFFCURVE",
"-4347 459 OFFCURVE",
"-4347 531 CURVE SMOOTH",
"-4347 604 OFFCURVE",
"-4396 641 OFFCURVE",
"-4441 641 CURVE SMOOTH",
"-4486 641 OFFCURVE",
"-4507 593 OFFCURVE",
"-4507 287 CURVE SMOOTH",
"-4507 0 LINE",
"-4701 0 LINE",
"-4701 35 LINE",
"-4652 36 LINE",
"-4654 287 LINE SMOOTH",
"-4656 574 OFFCURVE",
"-4676 685 OFFCURVE",
"-4401 685 CURVE SMOOTH",
"-4276 685 OFFCURVE",
"-4203 627 OFFCURVE",
"-4203 549 CURVE SMOOTH",
"-4203 421 OFFCURVE",
"-4348 397 OFFCURVE",
"-4379 364 CURVE",
"-4383 386 LINE"
);
},
{
closed = 0;
nodes = (
"-3746 328 LINE",
"-3647 455 LINE",
"-3647 503 OFFCURVE",
"-3691 527 OFFCURVE",
"-3751 527 CURVE SMOOTH",
"-3793 527 OFFCURVE",
"-3854 516 OFFCURVE",
"-3874 505 CURVE",
"-3827 561 LINE",
"-3827 0 LINE",
"-4001 0 LINE",
"-4001 35 LINE",
"-3952 36 LINE",
"-3955 491 LINE",
"-3892 617 LINE",
"-3859 653 OFFCURVE",
"-3780 685 OFFCURVE",
"-3710 685 CURVE SMOOTH",
"-3586 685 OFFCURVE",
"-3523 606 OFFCURVE",
"-3523 528 CURVE",
"-3639 397 LINE"
);
},
{
closed = 1;
nodes = (
"-2847 425 LINE",
"-2847 493 OFFCURVE",
"-2891 527 OFFCURVE",
"-2951 527 CURVE SMOOTH",
"-2993 527 OFFCURVE",
"-3054 516 OFFCURVE",
"-3074 505 CURVE",
"-3027 561 LINE",
"-3027 0 LINE",
"-3201 0 LINE",
"-3201 35 LINE",
"-3152 36 LINE",
"-3155 491 LINE",
"-3092 617 LINE",
"-3059 653 OFFCURVE",
"-2980 685 OFFCURVE",
"-2910 685 CURVE SMOOTH",
"-2786 685 OFFCURVE",
"-2723 596 OFFCURVE",
"-2723 498 CURVE",
"-2884 329 LINE",
"-2834 416 LINE",
"-2837 409 OFFCURVE",
"-2838 402 OFFCURVE",
"-2838 392 CURVE SMOOTH",
"-2838 317 OFFCURVE",
"-2668 307 OFFCURVE",
"-2668 188 CURVE SMOOTH",
"-2668 121 OFFCURVE",
"-2802 -14 OFFCURVE",
"-2866 -14 CURVE SMOOTH",
"-2904 -14 OFFCURVE",
"-2954 -4 OFFCURVE",
"-2980 11 CURVE",
"-2954 111 LINE",
"-2885 70 OFFCURVE",
"-2791 50 OFFCURVE",
"-2750 76 CURVE",
"-2790 50 LINE",
"-2782 61 OFFCURVE",
"-2776 76 OFFCURVE",
"-2776 92 CURVE SMOOTH",
"-2776 204 OFFCURVE",
"-2961 217 OFFCURVE",
"-2961 309 CURVE"
);
},
{
closed = 1;
nodes = (
"-2140 440 LINE",
"-2140 502 OFFCURVE",
"-2194 541 OFFCURVE",
"-2257 541 CURVE SMOOTH",
"-2297 541 OFFCURVE",
"-2355 530 OFFCURVE",
"-2374 519 CURVE",
"-2312 561 LINE",
"-2312 0 LINE",
"-2501 0 LINE",
"-2501 35 LINE",
"-2452 36 LINE",
"-2452 481 LINE",
"-2396 615 LINE",
"-2363 655 OFFCURVE",
"-2286 685 OFFCURVE",
"-2220 685 CURVE SMOOTH",
"-2089 685 OFFCURVE",
"-2036 594 OFFCURVE",
"-2036 497 CURVE",
"-2090 437 LINE SMOOTH",
"-2121 403 OFFCURVE",
"-2128 391 OFFCURVE",
"-2128 379 CURVE SMOOTH",
"-2128 314 OFFCURVE",
"-1978 290 OFFCURVE",
"-1978 193 CURVE SMOOTH",
"-1978 99 OFFCURVE",
"-2076 -14 OFFCURVE",
"-2166 -14 CURVE SMOOTH",
"-2226 -14 OFFCURVE",
"-2257 -1 OFFCURVE",
"-2284 19 CURVE",
"-2217 111 LINE",
"-2171 83 OFFCURVE",
"-2130 65 OFFCURVE",
"-2095 64 CURVE SMOOTH",
"-2078 64 OFFCURVE",
"-2063 68 OFFCURVE",
"-2050 76 CURVE",
"-2085 40 LINE",
"-2080 51 OFFCURVE",
"-2076 66 OFFCURVE",
"-2076 82 CURVE SMOOTH",
"-2076 180 OFFCURVE",
"-2232 194 OFFCURVE",
"-2232 290 CURVE SMOOTH",
"-2232 312 OFFCURVE",
"-2213 349 OFFCURVE",
"-2181 388 CURVE SMOOTH"
);
},
{
closed = 1;
nodes = (
"-1540 440 LINE",
"-1540 502 OFFCURVE",
"-1594 541 OFFCURVE",
"-1657 541 CURVE SMOOTH",
"-1697 541 OFFCURVE",
"-1755 527 OFFCURVE",
"-1774 516 CURVE",
"-1712 561 LINE",
"-1712 0 LINE",
"-1852 0 LINE",
"-1852 481 LINE",
"-1795 605 LINE",
"-1762 646 OFFCURVE",
"-1686 685 OFFCURVE",
"-1620 685 CURVE SMOOTH",
"-1489 685 OFFCURVE",
"-1436 594 OFFCURVE",
"-1436 497 CURVE",
"-1489 437 LINE SMOOTH",
"-1516 407 OFFCURVE",
"-1524 393 OFFCURVE",
"-1524 381 CURVE SMOOTH",
"-1524 306 OFFCURVE",
"-1378 300 OFFCURVE",
"-1378 186 CURVE SMOOTH",
"-1378 99 OFFCURVE",
"-1476 -14 OFFCURVE",
"-1570 -14 CURVE SMOOTH",
"-1621 -14 OFFCURVE",
"-1657 -1 OFFCURVE",
"-1684 19 CURVE",
"-1617 111 LINE",
"-1563 83 OFFCURVE",
"-1515 65 OFFCURVE",
"-1475 64 CURVE SMOOTH",
"-1466 64 OFFCURVE",
"-1457 68 OFFCURVE",
"-1450 76 CURVE",
"-1485 40 LINE",
"-1480 51 OFFCURVE",
"-1476 66 OFFCURVE",
"-1476 82 CURVE SMOOTH",
"-1476 186 OFFCURVE",
"-1632 191 OFFCURVE",
"-1632 290 CURVE SMOOTH",
"-1632 312 OFFCURVE",
"-1611 348 OFFCURVE",
"-1580 388 CURVE SMOOTH"
);
},
{
closed = 1;
nodes = (
"-910 467 LINE",
"-944 408 LINE",
"-940 420 OFFCURVE",
"-939 431 OFFCURVE",
"-939 442 CURVE SMOOTH",
"-941 498 OFFCURVE",
"-995 541 OFFCURVE",
"-1057 541 CURVE SMOOTH",
"-1097 541 OFFCURVE",
"-1155 527 OFFCURVE",
"-1174 516 CURVE",
"-1112 561 LINE",
"-1112 0 LINE",
"-1252 0 LINE",
"-1252 481 LINE",
"-1195 605 LINE",
"-1162 646 OFFCURVE",
"-1086 685 OFFCURVE",
"-1020 685 CURVE SMOOTH",
"-882 685 OFFCURVE",
"-817 594 OFFCURVE",
"-817 503 CURVE",
"-928 385 LINE",
"-928 311 OFFCURVE",
"-773 300 OFFCURVE",
"-773 186 CURVE SMOOTH",
"-773 99 OFFCURVE",
"-871 -14 OFFCURVE",
"-965 -14 CURVE SMOOTH",
"-1016 -14 OFFCURVE",
"-1052 -1 OFFCURVE",
"-1079 19 CURVE",
"-1012 111 LINE",
"-958 83 OFFCURVE",
"-910 65 OFFCURVE",
"-870 64 CURVE SMOOTH",
"-861 64 OFFCURVE",
"-852 68 OFFCURVE",
"-845 76 CURVE",
"-880 40 LINE",
"-875 51 OFFCURVE",
"-871 66 OFFCURVE",
"-871 82 CURVE SMOOTH",
"-871 186 OFFCURVE",
"-1045 187 OFFCURVE",
"-1045 316 CURVE"
);
},
{
closed = 1;
nodes = (
"-701 35 LINE",
"-652 36 LINE",
"-652 481 LINE",
"-595 626 LINE",
"-562 667 OFFCURVE",
"-486 706 OFFCURVE",
"-420 706 CURVE SMOOTH",
"-282 706 OFFCURVE",
"-217 605 OFFCURVE",
"-217 503 CURVE",
"-328 390 LINE",
"-328 308 OFFCURVE",
"-173 300 OFFCURVE",
"-173 186 CURVE SMOOTH",
"-173 99 OFFCURVE",
"-271 -14 OFFCURVE",
"-365 -14 CURVE SMOOTH",
"-412 -14 OFFCURVE",
"-445 -1 OFFCURVE",
"-470 19 CURVE",
"-412 111 LINE",
"-362 79 OFFCURVE",
"-312 54 OFFCURVE",
"-280 37 CURVE",
"-293 32 LINE",
"-282 44 OFFCURVE",
"-271 66 OFFCURVE",
"-271 86 CURVE SMOOTH",
"-271 186 OFFCURVE",
"-445 192 OFFCURVE",
"-445 321 CURVE",
"-310 467 LINE",
"-344 408 LINE",
"-340 420 OFFCURVE",
"-339 431 OFFCURVE",
"-339 442 CURVE SMOOTH",
"-341 510 OFFCURVE",
"-395 562 OFFCURVE",
"-457 562 CURVE SMOOTH",
"-497 562 OFFCURVE",
"-555 548 OFFCURVE",
"-574 537 CURVE",
"-512 582 LINE",
"-512 0 LINE",
"-701 0 LINE"
);
},
{
closed = 1;
nodes = (
"-1 35 LINE",
"48 36 LINE",
"48 481 LINE",
"105 626 LINE",
"138 667 OFFCURVE",
"214 706 OFFCURVE",
"280 706 CURVE SMOOTH",
"419 706 OFFCURVE",
"475 610 OFFCURVE",
"475 507 CURVE",
"411 437 LINE SMOOTH",
"382 405 OFFCURVE",
"376 393 OFFCURVE",
"376 381 CURVE SMOOTH",
"376 306 OFFCURVE",
"522 300 OFFCURVE",
"522 186 CURVE SMOOTH",
"522 99 OFFCURVE",
"424 -14 OFFCURVE",
"330 -14 CURVE SMOOTH",
"279 -14 OFFCURVE",
"243 -1 OFFCURVE",
"216 19 CURVE",
"283 111 LINE",
"337 77 OFFCURVE",
"385 55 OFFCURVE",
"425 54 CURVE SMOOTH",
"434 54 OFFCURVE",
"443 57 OFFCURVE",
"450 60 CURVE",
"415 40 LINE",
"420 51 OFFCURVE",
"424 66 OFFCURVE",
"424 82 CURVE SMOOTH",
"424 186 OFFCURVE",
"268 188 OFFCURVE",
"268 290 CURVE SMOOTH",
"268 312 OFFCURVE",
"285 343 OFFCURVE",
"322 390 CURVE SMOOTH",
"390 476 LINE",
"356 402 LINE",
"359 415 OFFCURVE",
"360 428 OFFCURVE",
"360 440 CURVE SMOOTH",
"360 515 OFFCURVE",
"306 562 OFFCURVE",
"243 562 CURVE SMOOTH",
"203 562 OFFCURVE",
"145 548 OFFCURVE",
"126 537 CURVE",
"188 582 LINE",
"188 0 LINE",
"-1 0 LINE"
);
}
);
};
layerId = "FABFC9D4-E17A-4CB6-8F8E-4923CD579275";
name = Regular;
paths = (
{
closed = 1;
nodes = (
"-1 35 LINE",
"48 36 LINE",
"48 481 LINE",
"105 626 LINE",
"138 667 OFFCURVE",
"214 706 OFFCURVE",
"280 706 CURVE SMOOTH",
"419 706 OFFCURVE",
"475 605 OFFCURVE",
"475 500 CURVE",
"411 427 LINE SMOOTH",
"383 396 OFFCURVE",
"376 383 OFFCURVE",
"376 371 CURVE SMOOTH",
"376 296 OFFCURVE",
"522 294 OFFCURVE",
"522 186 CURVE SMOOTH",
"522 99 OFFCURVE",
"424 -14 OFFCURVE",
"330 -14 CURVE SMOOTH",
"279 -14 OFFCURVE",
"243 -1 OFFCURVE",
"216 19 CURVE",
"283 111 LINE",
"337 77 OFFCURVE",
"385 55 OFFCURVE",
"425 54 CURVE SMOOTH",
"434 54 OFFCURVE",
"443 57 OFFCURVE",
"450 60 CURVE",
"415 40 LINE",
"420 51 OFFCURVE",
"424 66 OFFCURVE",
"424 82 CURVE SMOOTH",
"424 181 OFFCURVE",
"268 178 OFFCURVE",
"268 280 CURVE SMOOTH",
"268 302 OFFCURVE",
"285 333 OFFCURVE",
"322 380 CURVE SMOOTH",
"390 466 LINE",
"356 402 LINE",
"359 415 OFFCURVE",
"360 428 OFFCURVE",
"360 440 CURVE SMOOTH",
"360 515 OFFCURVE",
"306 562 OFFCURVE",
"243 562 CURVE SMOOTH",
"203 562 OFFCURVE",
"145 548 OFFCURVE",
"126 537 CURVE",
"188 582 LINE",
"188 0 LINE",
"-1 0 LINE"
);
}
);
width = 537;
}
);
unicode = 00DF;
},
{
glyphname = t;
lastChange = "2016-02-20 20:53:04 +0000";
layers = (
{
background = {
paths = (
{
closed = 1;
nodes = (
"-425 460 LINE",
"-342 460 LINE",
"-342 159 LINE SMOOTH",
"-342 49 OFFCURVE",
"-280 -12 OFFCURVE",
"-168 -12 CURVE",
"-52 154 LINE",
"-78 176 LINE",
"-111 138 LINE",
"-165 138 OFFCURVE",
"-190 170 OFFCURVE",
"-190 240 CURVE SMOOTH",
"-190 660 LINE",
"-227 660 LINE",
"-280 587 OFFCURVE",
"-348 527 OFFCURVE",
"-425 495 CURVE"
);
},
{
closed = 1;
nodes = (
"-237 460 LINE",
"-69 460 LINE",
"-69 506 LINE",
"-237 501 LINE"
);
},
{
closed = 1;
nodes = (
"-9 420 LINE",
"66 420 LINE",
"66 165 LINE SMOOTH",
"66 38 OFFCURVE",
"123 -8 OFFCURVE",
"226 -8 CURVE",
"325 137 LINE",
"302 157 LINE",
"276 126 LINE",
"236 126 OFFCURVE",
"207 158 OFFCURVE",
"207 223 CURVE SMOOTH",
"207 603 LINE",
"172 603 LINE",
"123 536 OFFCURVE",
"61 482 OFFCURVE",
"-9 452 CURVE"
);
},
{
closed = 1;
nodes = (
"162 420 LINE",
"316 420 LINE",
"316 462 LINE",
"162 457 LINE"
);
}
);
};
layerId = "FABFC9D4-E17A-4CB6-8F8E-4923CD579275";
name = Regular;
paths = (
{
closed = 1;
nodes = (
"-9 418 LINE",
"66 418 LINE",
"66 165 LINE SMOOTH",
"66 37 OFFCURVE",
"128 -9 OFFCURVE",
"240 -9 CURVE",
"330 111 LINE",
"307 131 LINE",
"282 106 LINE",
"246 106 OFFCURVE",
"207 145 OFFCURVE",
"207 223 CURVE SMOOTH",
"207 603 LINE",
"172 603 LINE",
"123 535 OFFCURVE",
"61 480 OFFCURVE",
"-9 450 CURVE"
);
},
{
closed = 1;
nodes = (
"162 418 LINE",
"316 418 LINE",
"316 460 LINE",
"162 455 LINE"
);
}
);
width = 326;
}
);
unicode = 0074;
},
{
glyphname = u;
lastChange = "2016-02-18 17:20:09 +0000";
layers = (
{
anchors = (
{
name = bottom;
position = "{258, 0}";
},
{
name = ogonek;
position = "{471, 10}";
},
{
name = top;
position = "{253, 574}";
},
{
name = topright;
position = "{505, 450}";
}
);
background = {
paths = (
{
closed = 1;
nodes = (
"-1077 200 LINE SMOOTH",
"-1077 114 OFFCURVE",
"-1062 47 OFFCURVE",
"-1031 -5 CURVE",
"-846 101 LINE",
"-856 133 LINE",
"-900 118 LINE",
"-916 144 OFFCURVE",
"-925 198 OFFCURVE",
"-925 268 CURVE SMOOTH",
"-925 500 LINE",
"-1131 500 LINE",
"-1131 468 LINE",
"-1077 462 LINE"
);
},
{
closed = 1;
nodes = (
"-1210 500 LINE",
"-1416 500 LINE",
"-1416 468 LINE",
"-1362 462 LINE",
"-1362 220 LINE SMOOTH",
"-1362 83 OFFCURVE",
"-1315 9 OFFCURVE",
"-1213 -22 CURVE",
"-1057 182 LINE",
"-1071 213 LINE",
"-1149 134 LINE",
"-1188 144 OFFCURVE",
"-1210 197 OFFCURVE",
"-1210 281 CURVE SMOOTH"
);
},
{
closed = 1;
nodes = (
"-224 500 LINE",
"-430 500 LINE",
"-430 468 LINE",
"-376 462 LINE",
"-376 126 LINE SMOOTH",
"-376 58 OFFCURVE",
"-356 15 OFFCURVE",
"-309 -10 CURVE",
"-159 77 LINE",
"-171 109 LINE",
"-204 93 LINE",
"-218 111 OFFCURVE",
"-224 131 OFFCURVE",
"-224 187 CURVE SMOOTH"
);
},
{
closed = 1;
nodes = (
"-362 117 LINE",
"-369 148 LINE",
"-388 142 OFFCURVE",
"-413 139 OFFCURVE",
"-430 139 CURVE SMOOTH",
"-486 139 OFFCURVE",
"-511 175 OFFCURVE",
"-511 245 CURVE SMOOTH",
"-511 500 LINE",
"-717 500 LINE",
"-717 468 LINE",
"-663 462 LINE",
"-663 190 LINE SMOOTH",
"-663 59 OFFCURVE",
"-611 -13 OFFCURVE",
"-473 -13 CURVE"
);
},
{
closed = 1;
nodes = (
"49 171 LINE SMOOTH",
"49 44 OFFCURVE",
"107 -15 OFFCURVE",
"233 -15 CURVE",
"354 161 LINE",
"342 178 LINE",
"276 116 LINE",
"224 117 OFFCURVE",
"188 150 OFFCURVE",
"188 211 CURVE SMOOTH",
"188 450 LINE",
"12 450 LINE",
"12 421 LINE",
"49 418 LINE"
);
},
{
closed = 1;
nodes = (
"319 50 OFFCURVE",
"338 11 OFFCURVE",
"381 -12 CURVE",
"518 67 LINE",
"507 97 LINE",
"477 82 LINE",
"464 98 OFFCURVE",
"458 117 OFFCURVE",
"458 168 CURVE SMOOTH",
"458 450 LINE",
"283 450 LINE",
"283 421 LINE",
"319 418 LINE",
"319 112 LINE SMOOTH"
);
}
);
};
guideLines = (
{
angle = 270;
position = "{253, 548}";
}
);
layerId = "FABFC9D4-E17A-4CB6-8F8E-4923CD579275";
name = Regular;
paths = (
{
closed = 1;
nodes = (
"49 171 LINE SMOOTH",
"49 44 OFFCURVE",
"107 -15 OFFCURVE",
"233 -15 CURVE",
"354 161 LINE",
"342 178 LINE",
"276 116 LINE",
"225 117 OFFCURVE",
"190 150 OFFCURVE",
"190 211 CURVE SMOOTH",
"190 450 LINE",
"12 450 LINE",
"12 421 LINE",
"49 418 LINE"
);
},
{
closed = 1;
nodes = (
"319 50 OFFCURVE",
"338 11 OFFCURVE",
"381 -12 CURVE",
"520 67 LINE",
"509 97 LINE",
"479 82 LINE",
"466 98 OFFCURVE",
"460 117 OFFCURVE",
"460 168 CURVE SMOOTH",
"460 450 LINE",
"283 450 LINE",
"283 421 LINE",
"319 418 LINE",
"319 112 LINE SMOOTH"
);
}
);
width = 515;
}
);
leftKerningGroup = u;
rightKerningGroup = u;
unicode = 0075;
},
{
glyphname = uogonek;
lastChange = "2016-02-18 17:20:09 +0000";
layers = (
{
background = {
components = (
{
name = aogonek;
transform = "{1, 0, 0, 1, 80, 0}";
}
);
};
components = (
{
name = u;
}
);
layerId = "FABFC9D4-E17A-4CB6-8F8E-4923CD579275";
name = Regular;
paths = (
{
closed = 1;
nodes = (
"378 18 OFFCURVE",
"321 -58 OFFCURVE",
"321 -133 CURVE SMOOTH",
"321 -202 OFFCURVE",
"368 -251 OFFCURVE",
"433 -251 CURVE SMOOTH",
"472 -251 OFFCURVE",
"505 -237 OFFCURVE",
"531 -218 CURVE",
"523 -193 LINE",
"456 -201 OFFCURVE",
"424 -157 OFFCURVE",
"424 -102 CURVE SMOOTH",
"424 -41 OFFCURVE",
"459 20 OFFCURVE",
"507 54 CURVE",
"503 60 LINE"
);
}
);
width = 535;
}
);
leftKerningGroup = u;
rightKerningGroup = u;
unicode = 0173;
},
{
glyphname = v;
lastChange = "2016-02-18 17:20:17 +0000";
layers = (
{
background = {
paths = (
{
closed = 1;
nodes = (
"-108 418 LINE",
"-108 450 LINE",
"-286 450 LINE",
"-286 418 LINE",
"-247 417 LINE",
"-321 62 LINE",
"-304 68 LINE",
"-410 417 LINE",
"-371 418 LINE",
"-371 450 LINE",
"-617 450 LINE",
"-617 418 LINE",
"-578 417 LINE",
"-414 0 LINE",
"-313 6 LINE",
"-146 417 LINE"
);
},
{
closed = 1;
nodes = (
"493 418 LINE",
"493 450 LINE",
"315 450 LINE",
"315 418 LINE",
"354 417 LINE",
"269 52 LINE",
"296 68 LINE",
"190 417 LINE",
"229 418 LINE",
"229 450 LINE",
"-20 450 LINE",
"-20 418 LINE",
"19 417 LINE",
"186 0 LINE",
"287 6 LINE",
"455 417 LINE"
);
}
);
};
guideLines = (
{
angle = 270;
position = "{271, 430}";
}
);
layerId = "FABFC9D4-E17A-4CB6-8F8E-4923CD579275";
name = Regular;
paths = (
{
closed = 1;
nodes = (
"493 418 LINE",
"493 450 LINE",
"315 450 LINE",
"315 418 LINE",
"354 417 LINE",
"269 52 LINE",
"296 68 LINE",
"185 417 LINE",
"224 418 LINE",
"224 450 LINE",
"-20 450 LINE",
"-20 418 LINE",
"19 417 LINE",
"186 0 LINE",
"287 6 LINE",
"455 417 LINE"
);
}
);
width = 471;
}
);
leftKerningGroup = v;
rightKerningGroup = v;
unicode = 0076;
},
{
glyphname = w;
lastChange = "2016-02-18 17:20:17 +0000";
layers = (
{
anchors = (
{
name = bottom;
position = "{377, 0}";
},
{
name = top;
position = "{414, 574}";
}
);
background = {
paths = (
{
closed = 1;
nodes = (
"-332 418 LINE",
"-332 450 LINE",
"-510 450 LINE",
"-510 418 LINE",
"-471 417 LINE",
"-531 62 LINE",
"-514 68 LINE",
"-610 417 LINE",
"-571 418 LINE",
"-571 450 LINE",
"-810 450 LINE",
"-810 418 LINE",
"-771 417 LINE",
"-624 0 LINE",
"-523 6 LINE",
"-370 417 LINE"
);
},
{
closed = 1;
nodes = (
"-32 418 LINE",
"-32 450 LINE",
"-210 450 LINE",
"-210 418 LINE",
"-171 417 LINE",
"-231 62 LINE",
"-214 68 LINE",
"-310 417 LINE",
"-271 418 LINE",
"-271 450 LINE",
"-510 450 LINE",
"-510 418 LINE",
"-471 417 LINE",
"-324 0 LINE",
"-223 6 LINE",
"-70 417 LINE"
);
},
{
closed = 1;
nodes = (
"468 418 LINE",
"468 450 LINE",
"290 450 LINE",
"290 418 LINE",
"329 417 LINE",
"259 52 LINE",
"286 68 LINE",
"190 417 LINE",
"229 418 LINE",
"229 450 LINE",
"-20 450 LINE",
"-20 418 LINE",
"19 417 LINE",
"176 0 LINE",
"277 6 LINE",
"430 417 LINE"
);
},
{
closed = 1;
nodes = (
"778 418 LINE",
"778 450 LINE",
"600 450 LINE",
"600 418 LINE",
"639 417 LINE",
"567 52 LINE",
"594 68 LINE",
"500 417 LINE",
"539 418 LINE",
"539 450 LINE",
"290 450 LINE",
"290 418 LINE",
"329 417 LINE",
"484 0 LINE",
"585 6 LINE",
"740 417 LINE"
);
}
);
};
guideLines = (
{
angle = 270;
position = "{415, 502}";
}
);
layerId = "FABFC9D4-E17A-4CB6-8F8E-4923CD579275";
name = Regular;
paths = (
{
closed = 1;
nodes = (
"530 418 LINE",
"530 450 LINE",
"291 450 LINE",
"291 418 LINE",
"330 417 LINE",
"257 52 LINE",
"284 68 LINE",
"190 417 LINE",
"229 418 LINE",
"229 450 LINE",
"-20 450 LINE",
"-20 418 LINE",
"19 417 LINE",
"174 0 LINE",
"275 6 LINE",
"426 417 LINE",
"335 391 LINE",
"478 0 LINE",
"577 6 LINE",
"732 417 LINE",
"770 418 LINE",
"770 450 LINE",
"592 450 LINE",
"592 418 LINE",
"631 417 LINE",
"559 52 LINE",
"588 68 LINE",
"491 417 LINE"
);
}
);
width = 754;
}
);
leftKerningGroup = v;
rightKerningGroup = v;
unicode = 0077;
},
{
glyphname = x;
lastChange = "2016-02-14 19:12:06 +0000";
layers = (
{
background = {
paths = (
{
closed = 1;
nodes = (
"-1318 417 LINE",
"-1279 418 LINE",
"-1279 450 LINE",
"-1518 450 LINE",
"-1518 418 LINE",
"-1479 417 LINE",
"-1237 33 LINE",
"-1276 32 LINE",
"-1276 0 LINE",
"-1037 0 LINE",
"-1037 32 LINE",
"-1076 33 LINE"
);
},
{
closed = 1;
nodes = (
"-1266 216 LINE",
"-1101 417 LINE",
"-1063 418 LINE",
"-1063 450 LINE",
"-1238 450 LINE",
"-1238 418 LINE",
"-1199 417 LINE",
"-1264 242 LINE"
);
},
{
closed = 1;
nodes = (
"-1300 254 LINE",
"-1468 33 LINE",
"-1506 32 LINE",
"-1506 0 LINE",
"-1328 0 LINE",
"-1328 32 LINE",
"-1367 33 LINE",
"-1302 228 LINE"
);
},
{
closed = 1;
nodes = (
"-711 417 LINE",
"-672 418 LINE",
"-672 450 LINE",
"-918 450 LINE",
"-918 418 LINE",
"-879 417 LINE",
"-644 33 LINE",
"-683 32 LINE",
"-683 0 LINE",
"-437 0 LINE",
"-437 32 LINE",
"-476 33 LINE"
);
},
{
closed = 1;
nodes = (
"-666 216 LINE",
"-501 417 LINE",
"-463 418 LINE",
"-463 450 LINE",
"-638 450 LINE",
"-638 418 LINE",
"-599 417 LINE",
"-664 242 LINE"
);
},
{
closed = 1;
nodes = (
"-700 254 LINE",
"-868 33 LINE",
"-906 32 LINE",
"-906 0 LINE",
"-728 0 LINE",
"-728 32 LINE",
"-767 33 LINE",
"-702 228 LINE"
);
},
{
closed = 1;
nodes = (
"189 417 LINE",
"228 418 LINE",
"228 450 LINE",
"-15 450 LINE",
"-15 418 LINE",
"24 417 LINE",
"256 33 LINE",
"217 32 LINE",
"217 0 LINE",
"461 0 LINE",
"461 32 LINE",
"422 33 LINE"
);
},
{
closed = 1;
nodes = (
"234 216 LINE",
"399 417 LINE",
"437 418 LINE",
"437 450 LINE",
"262 450 LINE",
"262 418 LINE",
"301 417 LINE",
"236 242 LINE"
);
},
{
closed = 1;
nodes = (
"200 254 LINE",
"30 33 LINE",
"-8 32 LINE",
"-8 0 LINE",
"170 0 LINE",
"170 32 LINE",
"131 33 LINE",
"198 228 LINE"
);
}
);
};
layerId = "FABFC9D4-E17A-4CB6-8F8E-4923CD579275";
name = Regular;
paths = (
{
closed = 1;
nodes = (
"184 417 LINE",
"223 418 LINE",
"223 450 LINE",
"-20 450 LINE",
"-20 418 LINE",
"19 417 LINE",
"261 33 LINE",
"222 32 LINE",
"222 0 LINE",
"466 0 LINE",
"466 32 LINE",
"427 33 LINE"
);
},
{
closed = 1;
nodes = (
"234 216 LINE",
"404 417 LINE",
"442 418 LINE",
"442 450 LINE",
"267 450 LINE",
"267 418 LINE",
"306 417 LINE",
"236 242 LINE"
);
},
{
closed = 1;
nodes = (
"200 254 LINE",
"25 33 LINE",
"-13 32 LINE",
"-13 0 LINE",
"165 0 LINE",
"165 32 LINE",
"126 33 LINE",
"198 228 LINE"
);
}
);
width = 444;
}
);
unicode = 0078;
},
{
glyphname = y;
lastChange = "2016-02-21 14:14:19 +0000";
layers = (
{
anchors = (
{
name = bottom;
position = "{238, 0}";
},
{
name = top;
position = "{268, 574}";
}
);
background = {
paths = (
{
closed = 1;
nodes = (
"-3071 450 LINE",
"-3071 421 LINE",
"-3034 418 LINE",
"-3034 171 LINE SMOOTH",
"-3034 44 OFFCURVE",
"-2979 -15 OFFCURVE",
"-2860 -15 CURVE",
"-2739 161 LINE",
"-2751 178 LINE",
"-2817 116 LINE",
"-2863 117 OFFCURVE",
"-2895 150 OFFCURVE",
"-2895 211 CURVE SMOOTH",
"-2895 419 LINE",
"-2858 422 LINE",
"-2858 450 LINE"
);
},
{
closed = 1;
nodes = (
"-2810 450 LINE",
"-2810 421 LINE",
"-2774 418 LINE",
"-2774 152 LINE SMOOTH",
"-2774 -12 OFFCURVE",
"-2792 -59 OFFCURVE",
"-2850 -85 CURVE SMOOTH",
"-2881 -96 OFFCURVE",
"-2921 -101 OFFCURVE",
"-2951 -101 CURVE",
"-2974 -70 LINE",
"-3001 -88 LINE",
"-2895 -250 LINE",
"-2742 -250 OFFCURVE",
"-2635 -142 OFFCURVE",
"-2635 58 CURVE SMOOTH",
"-2635 419 LINE",
"-2598 422 LINE",
"-2598 450 LINE"
);
},
{
closed = 1;
nodes = (
"-2011 418 LINE",
"-2011 450 LINE",
"-2189 450 LINE",
"-2189 418 LINE",
"-2150 417 LINE",
"-2219 62 LINE",
"-2202 68 LINE",
"-2303 417 LINE",
"-2264 418 LINE",
"-2264 450 LINE",
"-2503 450 LINE",
"-2503 418 LINE",
"-2464 417 LINE",
"-2312 0 LINE",
"-2211 6 LINE",
"-2049 417 LINE"
);
},
{
closed = 1;
nodes = (
"-2403 -220 LINE",
"-2445 -221 LINE",
"-2447 -250 LINE",
"-2282 -250 LINE",
"-2195 49 LINE",
"-2227 41 LINE"
);
},
{
closed = 1;
nodes = (
"-1405 418 LINE",
"-1404 450 LINE",
"-1582 450 LINE",
"-1583 418 LINE",
"-1544 417 LINE",
"-1631 62 LINE",
"-1614 68 LINE",
"-1711 417 LINE",
"-1672 418 LINE",
"-1671 450 LINE",
"-1912 450 LINE",
"-1913 418 LINE",
"-1874 417 LINE",
"-1727 0 LINE",
"-1625 6 LINE",
"-1443 417 LINE"
);
},
{
closed = 1;
nodes = (
"-1835 -220 LINE",
"-1877 -221 LINE",
"-1880 -250 LINE",
"-1705 -250 LINE",
"-1608 49 LINE",
"-1640 41 LINE"
);
},
{
closed = 1;
nodes = (
"-743 417 LINE",
"-705 418 LINE",
"-704 450 LINE",
"-882 450 LINE",
"-883 418 LINE",
"-844 417 LINE",
"-937 62 LINE",
"-917 88 LINE",
"-1010 417 LINE",
"-971 418 LINE",
"-970 450 LINE",
"-1219 450 LINE",
"-1220 418 LINE",
"-1181 417 LINE",
"-1027 0 LINE",
"-936 5 LINE",
"-936 35 LINE",
"-1015 -46 OFFCURVE",
"-1098 -110 OFFCURVE",
"-1195 -179 CURVE",
"-1078 -256 LINE",
"-1017 -180 OFFCURVE",
"-938 -42 OFFCURVE",
"-868 122 CURVE SMOOTH"
);
},
{
closed = 1;
nodes = (
"-141 417 LINE",
"-103 418 LINE",
"-102 450 LINE",
"-280 450 LINE",
"-281 418 LINE",
"-242 417 LINE",
"-337 62 LINE",
"-317 88 LINE",
"-410 417 LINE",
"-371 418 LINE",
"-370 450 LINE",
"-619 450 LINE",
"-620 418 LINE",
"-581 417 LINE",
"-427 0 LINE",
"-336 5 LINE",
"-336 35 LINE",
"-411 -39 OFFCURVE",
"-490 -100 OFFCURVE",
"-581 -161 CURVE",
"-478 -256 LINE",
"-417 -180 OFFCURVE",
"-339 -42 OFFCURVE",
"-268 122 CURVE SMOOTH"
);
},
{
closed = 1;
nodes = (
"459 417 LINE",
"497 418 LINE",
"498 450 LINE",
"320 450 LINE",
"319 418 LINE",
"358 417 LINE",
"263 62 LINE",
"283 88 LINE",
"185 417 LINE",
"224 418 LINE",
"225 450 LINE",
"-19 450 LINE",
"-20 418 LINE",
"19 417 LINE",
"173 0 LINE",
"264 5 LINE",
"264 35 LINE",
"189 -39 OFFCURVE",
"110 -100 OFFCURVE",
"19 -161 CURVE",
"122 -256 LINE",
"183 -180 OFFCURVE",
"261 -42 OFFCURVE",
"332 122 CURVE SMOOTH"
);
}
);
};
layerId = "FABFC9D4-E17A-4CB6-8F8E-4923CD579275";
name = Regular;
paths = (
{
closed = 1;
nodes = (
"459 417 LINE",
"497 418 LINE",
"498 450 LINE",
"320 450 LINE",
"319 418 LINE",
"358 417 LINE",
"263 62 LINE",
"283 88 LINE",
"185 417 LINE",
"224 418 LINE",
"225 450 LINE",
"-19 450 LINE",
"-20 418 LINE",
"19 417 LINE",
"173 0 LINE",
"264 5 LINE",
"264 35 LINE",
"187 -39 OFFCURVE",
"106 -100 OFFCURVE",
"12 -161 CURVE",
"121 -264 LINE",
"180 -186 OFFCURVE",
"261 -45 OFFCURVE",
"332 122 CURVE SMOOTH"
);
}
);
width = 473;
}
);
leftKerningGroup = y;
rightKerningGroup = y;
unicode = 0079;
},
{
glyphname = z;
lastChange = "2016-02-18 17:20:35 +0000";
layers = (
{
anchors = (
{
name = bottom;
position = "{197, -80}";
},
{
name = top;
position = "{201, 574}";
}
);
background = {
paths = (
{
closed = 1;
nodes = (
"-341 328 LINE",
"-604 116 LINE",
"-364 155 LINE",
"-361 183 LINE",
"-332 183 LINE",
"-332 0 LINE",
"-675 -1 LINE",
"-675 104 LINE",
"-393 329 LINE",
"-640 302 LINE",
"-644 267 LINE",
"-673 267 LINE",
"-673 450 LINE",
"-341 450 LINE"
);
},
{
closed = 1;
nodes = (
"359 328 LINE",
"96 116 LINE",
"336 155 LINE",
"339 183 LINE",
"368 183 LINE",
"368 0 LINE",
"25 -1 LINE",
"25 104 LINE",
"278 329 LINE",
"60 302 LINE",
"56 267 LINE",
"27 267 LINE",
"27 450 LINE",
"359 450 LINE"
);
}
);
};
layerId = "FABFC9D4-E17A-4CB6-8F8E-4923CD579275";
name = Regular;
paths = (
{
closed = 1;
nodes = (
"362 328 LINE",
"93 116 LINE",
"339 155 LINE",
"342 183 LINE",
"371 183 LINE",
"371 0 LINE",
"22 -1 LINE",
"22 104 LINE",
"281 329 LINE",
"57 302 LINE",
"53 267 LINE",
"24 267 LINE",
"24 450 LINE",
"362 450 LINE"
);
}
);
width = 393;
}
);
leftKerningGroup = z;
rightKerningGroup = z;
unicode = 007A;
},
{
glyphname = s.alt;
lastChange = "2016-01-15 14:10:18 +0000";
layers = (
{
background = {
paths = (
{
closed = 1;
nodes = (
"2325 161 OFFCURVE",
"2223 124 OFFCURVE",
"2170 124 CURVE",
"2146 169 LINE",
"2117 154 LINE",
"2193 -23 LINE",
"2272 -17 OFFCURVE",
"2448 36 OFFCURVE",
"2448 142 CURVE",
"2418 206 OFFCURVE",
"2246 262 OFFCURVE",
"2243 313 CURVE SMOOTH",
"2242 331 OFFCURVE",
"2344 368 OFFCURVE",
"2397 368 CURVE",
"2421 323 LINE",
"2450 338 LINE",
"2374 515 LINE",
"2295 509 OFFCURVE",
"2119 456 OFFCURVE",
"2119 350 CURVE",
"2149 286 OFFCURVE",
"2321 230 OFFCURVE",
"2324 179 CURVE SMOOTH"
);
},
{
closed = 1;
nodes = (
"1653 124 OFFCURVE",
"1602 108 OFFCURVE",
"1573 108 CURVE",
"1549 153 LINE",
"1520 138 LINE",
"1587 -22 LINE",
"1666 -16 OFFCURVE",
"1833 35 OFFCURVE",
"1833 145 CURVE SMOOTH",
"1833 218 OFFCURVE",
"1707 294 OFFCURVE",
"1707 344 CURVE SMOOTH",
"1707 366 OFFCURVE",
"1758 387 OFFCURVE",
"1787 387 CURVE",
"1811 342 LINE",
"1840 357 LINE",
"1773 517 LINE",
"1694 511 OFFCURVE",
"1519 455 OFFCURVE",
"1519 345 CURVE SMOOTH",
"1519 268 OFFCURVE",
"1653 194 OFFCURVE",
"1653 146 CURVE SMOOTH"
);
},
{
closed = 1;
nodes = (
"1155 118 OFFCURVE",
"1109 104 OFFCURVE",
"1082 104 CURVE",
"1060 145 LINE",
"1034 131 LINE",
"1095 -15 LINE",
"1167 -10 OFFCURVE",
"1320 37 OFFCURVE",
"1320 138 CURVE SMOOTH",
"1320 202 OFFCURVE",
"1205 263 OFFCURVE",
"1205 307 CURVE SMOOTH",
"1205 327 OFFCURVE",
"1251 346 OFFCURVE",
"1278 346 CURVE",
"1300 305 LINE",
"1326 319 LINE",
"1265 465 LINE",
"1193 459 OFFCURVE",
"1033 408 OFFCURVE",
"1033 308 CURVE SMOOTH",
"1033 240 OFFCURVE",
"1155 181 OFFCURVE",
"1155 139 CURVE SMOOTH"
);
},
{
closed = 1;
nodes = (
"727 45 OFFCURVE",
"674 0 OFFCURVE",
"640 0 CURVE",
"704 1 LINE",
"663 44 OFFCURVE",
"630 91 OFFCURVE",
"605 143 CURVE",
"519 74 LINE",
"548 18 OFFCURVE",
"605 -15 OFFCURVE",
"686 -15 CURVE SMOOTH",
"798 -15 OFFCURVE",
"870 55 OFFCURVE",
"870 133 CURVE SMOOTH",
"870 255 OFFCURVE",
"673 286 OFFCURVE",
"673 375 CURVE SMOOTH",
"673 421 OFFCURVE",
"696 445 OFFCURVE",
"718 453 CURVE",
"671 448 LINE",
"721 407 OFFCURVE",
"757 366 OFFCURVE",
"796 317 CURVE",
"874 400 LINE",
"844 436 OFFCURVE",
"790 465 OFFCURVE",
"730 465 CURVE SMOOTH",
"613 465 OFFCURVE",
"537 390 OFFCURVE",
"537 318 CURVE SMOOTH",
"537 197 OFFCURVE",
"727 175 OFFCURVE",
"727 85 CURVE SMOOTH"
);
},
{
closed = 1;
nodes = (
"121 467 OFFCURVE",
"35 405 OFFCURVE",
"35 334 CURVE SMOOTH",
"35 202 OFFCURVE",
"260 230 OFFCURVE",
"260 162 CURVE SMOOTH",
"260 141 OFFCURVE",
"232 124 OFFCURVE",
"180 124 CURVE SMOOTH",
"148 124 OFFCURVE",
"107 129 OFFCURVE",
"79 134 CURVE",
"74 173 LINE",
"42 171 LINE",
"48 16 LINE",
"94 -3 OFFCURVE",
"139 -15 OFFCURVE",
"215 -15 CURVE SMOOTH",
"342 -15 OFFCURVE",
"397 51 OFFCURVE",
"397 112 CURVE SMOOTH",
"397 238 OFFCURVE",
"176 219 OFFCURVE",
"176 285 CURVE SMOOTH",
"176 314 OFFCURVE",
"205 334 OFFCURVE",
"267 334 CURVE SMOOTH",
"297 334 OFFCURVE",
"329 330 OFFCURVE",
"343 326 CURVE",
"350 291 LINE",
"379 294 LINE",
"375 452 LINE",
"336 462 OFFCURVE",
"286 467 OFFCURVE",
"241 467 CURVE SMOOTH"
);
}
);
};
layerId = "FABFC9D4-E17A-4CB6-8F8E-4923CD579275";
name = Regular;
paths = (
{
closed = 1;
nodes = (
"124 467 OFFCURVE",
"38 405 OFFCURVE",
"38 294 CURVE",
"260 182 LINE",
"260 141 OFFCURVE",
"232 124 OFFCURVE",
"180 124 CURVE SMOOTH",
"148 124 OFFCURVE",
"107 129 OFFCURVE",
"79 134 CURVE",
"74 173 LINE",
"42 171 LINE",
"48 16 LINE",
"94 -3 OFFCURVE",
"144 -15 OFFCURVE",
"215 -15 CURVE SMOOTH",
"342 -15 OFFCURVE",
"397 51 OFFCURVE",
"397 152 CURVE",
"179 262 LINE",
"179 314 OFFCURVE",
"208 334 OFFCURVE",
"270 334 CURVE SMOOTH",
"300 334 OFFCURVE",
"332 330 OFFCURVE",
"346 326 CURVE",
"353 291 LINE",
"382 294 LINE",
"378 452 LINE",
"339 462 OFFCURVE",
"289 467 OFFCURVE",
"244 467 CURVE SMOOTH"
);
}
);
width = 432;
}
);
},
{
glyphname = f_f_i;
lastChange = "2016-01-26 14:25:13 +0000";
layers = (
{
anchors = (
{
name = bottom;
position = "{757, 0}";
}
);
background = {
components = (
{
name = f;
},
{
name = f;
transform = "{1, 0, 0, 1, 311, 0}";
},
{
name = i;
transform = "{1, 0, 0, 1, 622, 0}";
}
);
};
components = (
{
name = fi;
transform = "{1, 0, 0, 1, 310, 0}";
}
);
layerId = "FABFC9D4-E17A-4CB6-8F8E-4923CD579275";
name = Regular;
paths = (
{
closed = 1;
nodes = (
"78 32 LINE",
"41 29 LINE",
"41 0 LINE",
"296 0 LINE",
"296 29 LINE",
"219 32 LINE",
"221 416 LINE",
"340 416 LINE",
"340 450 LINE",
"223 450 LINE",
"197 486 OFFCURVE",
"154 606 OFFCURVE",
"154 669 CURVE",
"120 664 LINE",
"159 647 OFFCURVE",
"231 586 OFFCURVE",
"266 545 CURVE",
"349 664 LINE",
"309 686 OFFCURVE",
"252 702 OFFCURVE",
"198 702 CURVE SMOOTH",
"147 702 OFFCURVE",
"71 662 OFFCURVE",
"53 608 CURVE",
"52 599 OFFCURVE",
"52 590 OFFCURVE",
"52 580 CURVE SMOOTH",
"52 538 OFFCURVE",
"62 484 OFFCURVE",
"76 450 CURVE",
"20 450 LINE",
"20 416 LINE",
"76 416 LINE"
);
}
);
width = 891;
}
);
leftMetricsKey = f;
},
